SplineFontDB: 3.2
FontName: Vilnius-Regular
FullName: Vilnius
FamilyName: Vilnius
Weight: Regular
Copyright: Copyright 2020 Aleksandr Andreev and Nikita Simmons (<https://sci.ponomar.net/>).
UComments: "2012-5-7: Created."
Version: 1.0
ItalicAngle: 0
UnderlinePosition: -100
UnderlineWidth: 50
Ascent: 800
Descent: 200
InvalidEm: 0
LayerCount: 3
Layer: 0 0 "Back" 1
Layer: 1 0 "Fore" 0
Layer: 2 0 "Original" 0
XUID: [1021 623 1685047925 1648344]
FSType: 0
OS2Version: 0
OS2_WeightWidthSlopeOnly: 0
OS2_UseTypoMetrics: 1
CreationTime: 1336434585
ModificationTime: 1624287156
PfmFamily: 17
TTFWeight: 400
TTFWidth: 5
LineGap: 90
VLineGap: 0
OS2TypoAscent: 0
OS2TypoAOffset: 1
OS2TypoDescent: 0
OS2TypoDOffset: 1
OS2TypoLinegap: 90
OS2WinAscent: 0
OS2WinAOffset: 1
OS2WinDescent: 0
OS2WinDOffset: 1
HheadAscent: 0
HheadAOffset: 1
HheadDescent: 0
HheadDOffset: 1
OS2Vendor: '    '
Lookup: 4 0 0 "'ccmp' Glyph Composition/Decomposition lookup 0" { "'ccmp' Glyph Composition/Decomposition lookup 0-1"  } ['ccmp' ('DFLT' <'dflt' > 'cyrl' <'dflt' > 'latn' <'dflt' > ) ]
Lookup: 4 0 0 "'ccmp' Secondary Ligatures" { "'ccmp' Secondary Ligatures 1"  } ['ccmp' ('DFLT' <'dflt' > 'cyrl' <'dflt' > 'latn' <'dflt' > ) ]
Lookup: 3 0 0 "'salt' Stylistic Alternatives lookup 2" { "'salt' Stylistic Alternatives lookup 2-1"  } ['salt' ('DFLT' <'dflt' > 'cyrl' <'dflt' > 'latn' <'dflt' > ) ]
Lookup: 260 0 0 "'mark' Mark Positioning lookup 0" { "'mark' Mark Positioning lookup 0-1"  } ['mark' ('DFLT' <'dflt' > 'cyrl' <'dflt' > 'latn' <'dflt' > ) ]
Lookup: 262 0 0 "'mkmk' Mark to Mark lookup 1" { "'mkmk' Mark to Mark lookup 1-1"  } ['mkmk' ('DFLT' <'dflt' > 'cyrl' <'dflt' > 'latn' <'dflt' > ) ]
MarkAttachClasses: 1
DEI: 91125

StartChar: uni0000
Encoding: 0 0 0
Width: 427
Flags: W
HStem: 0 19<29 398> 748 22<29 398>
VStem: 0 22<34 733> 405 22<34 733>
LayerCount: 3
Fore
SplineSet
0 770 m 5
 427 770 l 5
 427 0 l 5
 0 0 l 5
 0 770 l 5
29 748 m 5
 213 398 l 5
 398 748 l 5
 29 748 l 5
398 19 m 5
 213 369 l 5
 29 19 l 5
 398 19 l 5
221 383 m 5
 405 34 l 5
 405 733 l 5
 221 383 l 5
22 733 m 5
 22 34 l 5
 206 383 l 5
 22 733 l 5
EndSplineSet
Validated: 1
EndChar

StartChar: uniA676
Encoding: 42614 42614 1
Width: 0
Flags: W
HStem: 724 49<-240.507 -192.399 -157.67 -106.199>
VStem: -246 52<724.707 770> -205 63<500 682.687> -155 52<724.039 771.533>
AnchorPoint: "Stacking" -170 482 mark 0
AnchorPoint: "Stacking" -164 854 basemark 0
AnchorPoint: "Diacritic" -170 482 mark 0
LayerCount: 3
Fore
SplineSet
-142 570 m 2xa0
 -142 546 -140 519 -137 500 c 1
 -146 500 -158 499 -167 499 c 0
 -179 499 -193 500 -205 500 c 1
 -205 596 l 2
 -205 627 -201 656 -198 684 c 1
 -182 686 -172 688 -158 688 c 0
 -152 688 -144 688 -137 687 c 1
 -138 682 -139 675 -139 667 c 0
 -139 650 -141 630 -141 613 c 0
 -141 603 -141 594 -142 585 c 1
 -142 570 l 2xa0
-103 727 m 1x90
 -112 724 -121 724 -132 724 c 0
 -140 724 -148 723 -155 724 c 1
 -158 727 -156 741 -158 747 c 0
 -160 755 -164 762 -164 772 c 1
 -154 772 -144 773 -133 773 c 2
 -123 773 l 2
 -119 773 -115 773 -112 772 c 1
 -109 766 -107 757 -106 750 c 2
 -104 737 l 2
 -103 733 -103 730 -103 727 c 1x90
-185 724 m 1
 -194 723 -204 724 -214 724 c 0
 -222 724 -230 723 -237 724 c 1
 -243 730 -246 757 -246 768 c 1
 -237 771 -228 771 -217 771 c 0
 -208 771 -203 770 -194 770 c 1xc0
 -189 759 -185 739 -185 724 c 1
EndSplineSet
Validated: 1
Comment: "Copied from Hirmos"
Colour: ff0000
EndChar

StartChar: exclam
Encoding: 33 33 2
Width: 202
Flags: W
HStem: -4 126<49.768 142.231>
VStem: 32.999 138.001<198.246 322.259> 32.999 126.001<12.7694 106.238> 59.999 47.001<464.512 645.644> 72 96<312.384 417.844>
LayerCount: 3
Fore
SplineSet
32.999 59 m 0xa0
 32.999 92.6092755581 61.2841350919 122 96 122 c 0
 130.713236244 122 159 92.6136461642 159 59 c 0
 159 25.3545806023 129.64337549 -4 96 -4 c 0
 62.3549173548 -4 32.999 25.3571601479 32.999 59 c 0xa0
96 167 m 0
 56.146982954 167 32.999 192.606040354 32.999 232 c 0xc0
 32.999 284.27576564 51.6441809894 310.521497721 66 350 c 0
 70 361 72 374 72 387 c 0x88
 72 401 70 413 70 424 c 1
 66 457 l 1
 59.999 491 l 1
 59.999 503 59.999 516 59.999 531 c 0
 59.999 604.095875844 83.8533993415 669.853399342 120 706 c 0
 125.164690819 711.164690819 142.160625119 707.481875357 140 701 c 0
 127.769762872 667.80364208 107 629.353981212 107 587 c 0x90
 107 529.206787636 115.864285423 495.339286443 134 450 c 2
 150 408 l 2
 155 395 158 383 161 370 c 0
 164 358 168 345 168 332 c 0x88
 168 319 171 303 171 285 c 0xc0
 171 236.93915849 156.805988667 197.626880074 129 176 c 0
 120 170 109 167 96 167 c 0
EndSplineSet
Validated: 1
EndChar

StartChar: parenleft
Encoding: 40 40 3
Width: 319
Flags: W
VStem: 119.999 48.001<-134.275 214.621>
LayerCount: 3
Fore
SplineSet
408 -466 m 0
 414.474861845 -471.036363372 417.156314191 -477.439264222 417.156314191 -483.753163877 c 0
 417.156314191 -496.5230257 406.187817004 -508.928827592 393.450098005 -508.928827592 c 0
 389.051105834 -508.928827592 384.441102547 -507.449215431 379.999 -503.994 c 0
 264.173867783 -417.61618485 176.626615097 -288.814652258 138.499 -125.994 c 0
 126.166 -73.3271 119.999 -17.9941 119.999 40.0059 c 0
 119.999 234.951794491 182.945057492 377.246744729 273.499 484.003 c 0
 305.166 521.336 340.666 554.669 379.999 584.002 c 0
 384.59045946 587.573390217 389.305144968 589.099022778 393.769492916 589.099022778 c 0
 406.498236607 589.099022778 417.191902462 576.696644867 417.191902462 563.947530523 c 0
 417.191902462 557.543529188 414.493731869 551.052041106 408 546.001 c 0
 300.741078467 464.564663826 219.946425639 352.654103523 185 199.501 c 0
 173.667 149.834 168 96.667 168 40 c 0
 168 -137.426719849 227.66784632 -271.699176442 309.5 -371 c 0
 339.167 -407 372 -438.667 408 -466 c 0
EndSplineSet
Validated: 1
EndChar

StartChar: uni0410
Encoding: 1040 1040 4
Width: 614
Flags: HW
LayerCount: 3
Fore
SplineSet
160 -210 m 0xe8
 160 -184 179 -174 205 -174 c 0
 210 -174 216 -174 221 -175 c 1
 221 -156 223 -140 224 -120 c 1
 222 -111 218 -101 213 -90 c 2
 197 -55 l 2
 187 -31 177 -2 177 32 c 0
 177 61 187 95 201 112 c 0
 231.578667408 149.635282964 262.688854602 173.985526411 298 204 c 0
 307 212 317 222 327 234 c 1
 342 266 348 307 352 348 c 1
 352 495 l 1
 297 495 l 1
 297 519.998 l 1
 522 519.998 l 1
 522 495 l 1
 468 495 l 1xf0
 499 -430 l 1
 555 -430 l 1
 555 -455 l 1
 318 -455 l 1
 318 -430 l 1
 372 -430 l 1
 364 -70 l 1
 324 -101 291 -142 271 -190 c 1
 286 -197 308 -211 308 -232 c 0
 308 -260 287 -270 259 -270 c 0
 256 -270 252 -269 248 -269 c 1
 242 -299 236 -339 236 -371 c 1
 233 -430 l 1
 285 -430 l 1
 285 -455 l 1
 68 -455 l 1
 68 -430 l 1
 115 -430 l 1
 126 -400 139 -370 153 -340 c 2
 195 -253 l 1
 180 -245 160 -231 160 -210 c 0xe8
260 -49 m 0
 257 -76 249 -111 249 -138 c 0
 249 -154 246 -168 246 -181 c 1
 247 -181 l 1
 266 -133 296 -99 330 -64 c 0
 341 -53 352 -43 363 -35 c 1
 357 249 l 1
 355 239 352 229 348 219 c 2
 331 179 l 2
 310 131 285 83 272 24 c 0
 267 0 263 -23 260 -49 c 0
EndSplineSet
Validated: 1
Layer: 2
SplineSet
162 -198 m 0
 165.33333 -186.6667 172.6667 -179.5 184 -176.5 c 0
 190.8 -174.7 197.96 -173.8 205.48 -173.8 c 0
 210.49333 -173.8 215.6667 -174.2 221 -175 c 1
 221.666667 -165.66667 222.16667 -156.6667 222.5 -148 c 0
 222.83333 -139.3333 223.333333 -130 224 -120 c 0
 222 -110.66667 218.5 -100.5 213.5 -89.5 c 0
 208.5 -78.5 203.1667 -66.8333 197.5 -54.5 c 0
 191.83333 -42.1667 187 -28.8333 183 -14.5 c 0
 179 -0.1667 177 15.3333 177 32 c 0
 177 44 178.83333 57.8333 182.5 73.5 c 0
 186.16667 89.1667 192.33333 102 201 112 c 0
 214.3333 128 226.5 141 237.5 151 c 0
 248.5 161 259 170.3333 269 179 c 0
 279 187.6667 288.6667 196 298 204 c 0
 307.3333 212 317 222 327 234 c 1
 335 251.3333 341.1667 269.8333 345.5 289.5 c 0
 349.8333 309.1667 353 328.6667 355 348 c 2
 352 495 l 1
 297 495 l 1
 297 520 l 1
 522 520 l 1
 522 495 l 1
 468 495 l 1
 499 -430 l 1
 555 -430 l 1
 555 -455 l 1
 318 -455 l 1
 318 -430 l 1
 372 -430 l 1
 364 -70 l 1
 355.33333 -76.66667 346.8333 -84.1667 338.5 -92.5 c 0
 330.1667 -100.8333 322.6667 -109 316 -117 c 0
 304.6667 -130.3333 295.6667 -142.6667 289 -154 c 0
 282.3333 -165.3333 276.3333 -177.3333 271 -190 c 1
 282.3333 -195.33333 292 -202.3333 300 -211 c 0
 305.64733 -217.11733 308.471 -224.0653 308.471 -231.844 c 0
 308.471 -235.08533 307.980667 -238.47067 307 -242 c 0
 303.66667 -254.6667 296.3333 -262.6667 285 -266 c 0
 276.90467 -268.38067 268.2993 -269.571 259.184 -269.571 c 0
 255.53733 -269.571 251.80933 -269.380667 248 -269 c 0
 244.66667 -286.3333 242 -304.1667 240 -322.5 c 0
 238 -340.8333 236.66667 -357 236 -371 c 2
 233 -430 l 1
 285 -430 l 1
 285 -455 l 1
 68 -455 l 1
 68 -430 l 1
 115 -430 l 1
 126.3333 -400 139 -370 153 -340 c 0
 167 -310 181 -281 195 -253 c 1
 183.6667 -247 174.3333 -239.3333 167 -230 c 0
 162.25467 -223.96067 159.882 -217.3633 159.882 -210.208 c 0
 159.882 -206.30467 160.588 -202.23533 162 -198 c 0
255 -91 m 0
 252.33333 -107.6667 250.5 -123.5 249.5 -138.5 c 0
 248.5 -153.5 247.33333 -167.6667 246 -181 c 1
 247 -181 l 1
 253 -165.6667 260.1667 -151.3333 268.5 -138 c 0
 276.83333 -124.6667 287.3333 -111 300 -97 c 0
 309.33333 -86.3333 319.5 -75.3333 330.5 -64 c 0
 341.5 -52.6667 352.3333 -43 363 -35 c 1
 357 249 l 1
 355 239 352 229 348 219 c 0
 342 204.3333 336.3333 191 331 179 c 0
 325.6667 167 320.1667 155.3333 314.5 144 c 0
 308.8333 132.6667 303.3333 120.6667 298 108 c 0
 292.6667 95.3333 287.6667 81 283 65 c 0
 278.33333 50.3333 274.66667 36.8333 272 24.5 c 0
 269.33333 12.1667 267 0 265 -12 c 0
 263 -24 261.33333 -36.3333 260 -49 c 0
 258.66667 -61.6667 257 -75.6667 255 -91 c 0
EndSplineSet
EndChar

StartChar: uni0430
Encoding: 1072 1072 5
Width: 377
Flags: HW
LayerCount: 3
Fore
SplineSet
60 0 m 1xd0
 47 0 35 5 35 19 c 0
 35 61 54 88 70 121 c 0
 107.463414992 199.048781233 175.188666013 263.579819522 199 362 c 1
 199 385 197 407 194 428 c 1
 219 435 268 443 300 443 c 1xe0
 303 374 302 306 307 233 c 0
 311 154 319 54 329 -12 c 1
 314 -14 298 -15 279 -15 c 0
 260 -15 235 -14 220 -12 c 1
 220 74 l 1
 217 103 215 135 212 169 c 1
 184 130 l 2
 170 110 153 87 146 60 c 2
 140 36 l 1
 113 29 80 14 60 0 c 1xd0
208.006 208 m 1xd0
 207.006 211 208.006 215 208.006 219 c 0
 208.006 232 205 247 205 260 c 0
 204 270 204 280 203 290 c 1
 182 242 152 196 129 150 c 0
 124 140 122 133 122 129 c 1
 124 124 128 121 133 121 c 0
 137 121 143 124 150 129 c 1
 166.562929232 145.562929232 190.943282376 186.67160297 208.006 208 c 1xd0
EndSplineSet
Validated: 1
Layer: 2
SplineSet
199 362 m 0
 198.333333 374.6667 197.66667 386.5 197 397.5 c 0
 196.33333 408.5 195.33333 418.6667 194 428 c 1
 206.6667 431.33333 223.1667 434.66667 243.5 438 c 0
 263.8333 441.33333 282.6667 443 300 443 c 1
 301.33333 413.6667 302.16667 381.6667 302.5 347 c 0
 302.83333 312.3333 304.33333 274.3333 307 233 c 0
 309.66667 185 313 138.8333 317 94.5 c 0
 321 50.1667 325 14.6667 329 -12 c 1
 314.3333 -14 297.6667 -15 279 -15 c 0
 260.3333 -15 243.3333 -14 228 -12 c 1
 225.33333 15.3333 222.66667 43.8333 220 73.5 c 0
 217.33333 103.1667 214.66667 135 212 169 c 1
 202.66667 156.3333 193.3333 143.3333 184 130 c 0
 174.66667 116.6667 165.6667 102.3333 157 87 c 0
 152.33333 79 148.66667 69.8333 146 59.5 c 0
 143.33333 49.1667 141.33333 41.3333 140 36 c 1
 125.3333 32 110.8333 26.66667 96.5 20 c 0
 82.1667 13.33333 70 6.6667 60 0 c 0
 54 0.666667 48.5 2.16667 43.5 4.5 c 0
 38.5 6.83333 35.66667 11.66667 35 19 c 0
 37 37.6667 41.16667 54.8333 47.5 70.5 c 0
 53.83333 86.1667 61.3333 103 70 121 c 0
 82 146.3333 98 173.1667 118 201.5 c 0
 138 229.8333 157.3333 262 176 298 c 0
 186 318 193.6667 339.3333 199 362 c 0
209 208 m 0
 208.333333 211.33333 208 214.83333 208 218.5 c 0
 208 222.16667 207.666667 225.66667 207 229 c 0
 205.66667 239.6667 204.83333 250 204.5 260 c 0
 204.16667 270 203.666667 280 203 290 c 1
 201 285.33333 199 280.83333 197 276.5 c 0
 195 272.16667 192.66667 267.33333 190 262 c 0
 183.33333 249.3333 176 236.1667 168 222.5 c 0
 160 208.8333 152.6667 195.6667 146 183 c 0
 139.3333 170.3333 133.6667 159.1667 129 149.5 c 0
 124.33333 139.83333 122 133 122 129 c 0
 126.66667 118.3333 136 118.3333 150 129 c 0
 155.33333 134.33333 163.5 145 174.5 161 c 0
 185.5 177 197 192.6667 209 208 c 0
EndSplineSet
EndChar

StartChar: uni0411
Encoding: 1041 1041 6
Width: 613
Flags: HW
LayerCount: 3
Fore
SplineSet
75 -455 m 1xd8
 75 -430 l 1
 130 -430 l 1xe8
 156 495 l 1
 102 495 l 1
 102 519.998 l 1
 577 519.998 l 1
 577 517.998 577 516 578 514 c 0
 578 512 578 510 578 509 c 0
 578 507 578 506 577 505 c 0
 514 437 476 377 436 294 c 1
 425 294 l 1
 422 328 419 365 415 399 c 2
 409 451 l 2
 407 467 405 482 403 495 c 1
 276 495 l 1
 272 203 l 1
 276 152 283 118 304 84 c 0
 319 59 344 30 369 9 c 2
 405 -21 l 2
 427 -40 447 -59 462 -87 c 1
 494 -202 511 -306 526 -430 c 1
 551 -430 l 1
 551 -455 l 1
 75 -455 l 1xd8
328 6 m 1
 302 41 l 2
 289 57 279 75 270 94 c 1xd8
 262 -430 l 1
 396 -430 l 1
 391 -317 374 -190 353 -89 c 0
 345 -51 337 -19 328 6 c 1
EndSplineSet
Validated: 1
Layer: 2
SplineSet
75 -455 m 1
 75 -430 l 1
 130 -430 l 1
 156 495 l 1
 102 495 l 1
 102 520 l 1
 577 520 l 1
 577 518 577.333333 516 578 514 c 0
 578 512.66667 578.166667 511.16667 578.5 509.5 c 0
 578.833333 507.83333 578.333333 506.33333 577 505 c 0
 543.6667 469 516.3333 434.1667 495 400.5 c 0
 473.6667 366.8333 454 331.3333 436 294 c 1
 425 294 l 1
 423.66667 310 422.16667 327 420.5 345 c 0
 418.83333 363 417 381 415 399 c 0
 413 417 411 434.1667 409 450.5 c 0
 407 466.8333 405 481.6667 403 495 c 1
 276 495 l 1
 272 203 l 2
 273.33333 187 274.83333 172.5 276.5 159.5 c 0
 278.16667 146.5 281.16667 133.8333 285.5 121.5 c 0
 289.83333 109.1667 295.8333 96.6667 303.5 84 c 0
 311.1667 71.3333 321.6667 57.3333 335 42 c 0
 345 30.6667 356.3333 19.6667 369 9 c 0
 381.6667 -1.6667 393.6667 -11.6667 405 -21 c 0
 415 -29.66667 425 -39.1667 435 -49.5 c 0
 445 -59.8333 454 -72.3333 462 -87 c 0
 479.3333 -149 492.6667 -207.833 502 -263.5 c 0
 511.33333 -319.1667 519.3333 -374.667 526 -430 c 1
 551 -430 l 1
 551 -455 l 1
 75 -455 l 1
328 6 m 0
 322.66667 12.66667 313.8333 24.1667 301.5 40.5 c 0
 289.1667 56.8333 278.6667 74.6667 270 94 c 1
 262 -430 l 1
 396 -430 l 1
 394.66667 -402 392.16667 -368.3333 388.5 -329 c 0
 384.83333 -289.6667 380 -249.3333 374 -208 c 0
 368 -166.6667 361 -127 353 -89 c 0
 345 -51 336.6667 -19.3333 328 6 c 0
EndSplineSet
EndChar

StartChar: uni0431
Encoding: 1073 1073 7
Width: 401
Flags: HW
LayerCount: 3
Fore
SplineSet
54 0 m 1
 60 126 72 277 89 390 c 0
 92 411 95 426 98 437 c 1
 388 437 l 2
 392 437 394 434 394 431 c 0
 394 429 393 427 392 425 c 0
 386 417 378 408 368 397 c 0
 349 375 330 353 310 332 c 0
 302 322 295 315 290 311 c 0
 288 309 287 308 285 308 c 0
 280 308 279 324 278 333 c 0
 278 357 275 389 266 407 c 1
 193 407 l 1
 186 383 182 349 178 317 c 0
 174 276 169 228 165 186 c 1
 201 202 225 214 237 222 c 0
 241 224 246 226 249 222 c 0
 261 206 276 158 285 130 c 0
 297 92 309 43 315 0 c 1
 54 0 l 1
163 166 m 1
 159 121 156 69 154 30 c 1
 209 30 l 1
 202 67 191 113 179 145 c 0
 175 156 171 163 168 167 c 1
 167 166 165 166 163 166 c 1
EndSplineSet
Validated: 1
Layer: 2
SplineSet
54 -0 m 1
 55.33333 27.3333 57.83333 65 61.5 113 c 0
 65.16667 161 68.33333 200.1667 71 230.5 c 0
 73.66667 260.8333 76.5 289.6667 79.5 317 c 0
 82.5 344.3333 85.5 368.5 88.5 389.5 c 0
 91.5 410.5 94.66667 426.3333 98 437 c 1
 388 437 l 2
 391.33333 437 393.16667 435.5 393.5 432.5 c 0
 393.83333 429.5 393.333333 427 392 425 c 0
 386 417 378.1667 407.5 368.5 396.5 c 0
 358.8333 385.5 349 374.3333 339 363 c 0
 329 351.6667 319.5 341.1667 310.5 331.5 c 0
 301.5 321.8333 294.6667 315 290 311 c 0
 288 309 286 308.33333 284 309 c 0
 282 309.66667 280.66667 311.33333 280 314 c 0
 279.333333 318 278.83333 324.1667 278.5 332.5 c 0
 278.16667 340.8333 277.5 349.5 276.5 358.5 c 0
 275.5 367.5 274.16667 376.5 272.5 385.5 c 0
 270.83333 394.5 268.66667 401.6667 266 407 c 1
 193 407 l 1
 190.33333 398.33333 187.83333 386.1667 185.5 370.5 c 0
 183.16667 354.8333 180.83333 337 178.5 317 c 0
 176.16667 297 173.83333 275.6667 171.5 253 c 0
 169.16667 230.3333 167 208 165 186 c 1
 201 202 225 214 237 222 c 0
 239 223.33333 241.16667 224.16667 243.5 224.5 c 0
 245.83333 224.83333 247.66667 224 249 222 c 0
 252.33333 217.33333 258 204.6667 266 184 c 0
 272 168 278.3333 149.8333 285 129.5 c 0
 291.66667 109.1667 297.6667 87.6667 303 65 c 0
 308.3333 42.3333 312.33333 20.6667 315 0 c 1
 54 -0 l 1
168 167 m 0
 166.66667 166.333333 165 166 163 166 c 0
 160.33333 135.3333 158.33333 107.6667 157 83 c 0
 155.66667 58.3333 154.66667 40.6667 154 30 c 1
 209 30 l 1
 207 40 204.33333 52.1667 201 66.5 c 0
 197.66667 80.8333 194.16667 94.8333 190.5 108.5 c 0
 186.83333 122.1667 183 134.3333 179 145 c 0
 175 155.6667 171.33333 163 168 167 c 0
EndSplineSet
EndChar

StartChar: uni0412
Encoding: 1042 1042 8
Width: 633
Flags: HW
LayerCount: 3
Fore
SplineSet
480 -155 m 1xd4
 501 -245 516 -334 527 -430 c 1
 551 -430 l 1
 551 -455.006 l 1
 75 -455.006 l 5
 75 -430 l 1
 130.001 -430 l 1xe8
 152.001 343 l 2
 155.001 426 208 489 268 514 c 0
 292 525 316 530 349 530 c 2
 396.003 530 l 1xd8
 486.003 528 552 497 552 402 c 0
 552 352 542 334 511 309 c 0
 475 280 401 287 351 271 c 0
 310 259 280 216 271 178 c 1
 271 177 l 1
 270 97 l 1
 281 33 320 -20 363 -53 c 0
 390 -73 418 -91 443 -114 c 1
 462 -133 l 2
 467 -139 473 -146 480 -155 c 1xd4
330 -56 m 2
 305 -34 284 -9 269 23 c 1
 262 -430 l 1
 396.003 -430 l 1
 393.003 -339 382 -239 368 -156 c 0
 363 -124 357 -96 350 -73 c 1
 330 -56 l 2
272 241 m 1
 286 260 315 286 341 293 c 2
 377 302 l 1
 429 313 446.005 344 446.005 402 c 0xc4
 446.005 446 431 482 404 499 c 0
 394 505 383 507.995 370 507.995 c 0
 317 507.995 276 477 275 428 c 2
 272 241 l 1
EndSplineSet
Validated: 1
Layer: 2
SplineSet
480 -155 m 1
 491.3333 -203 500.6667 -249.6667 508 -295 c 0
 515.33333 -340.3333 521.6667 -385.3333 527 -430 c 1
 551 -430 l 1
 551 -455 l 1
 75 -455 l 1
 75 -430 l 1
 130 -430 l 1
 152 343 l 2
 153.33333 375 161.5 403.8333 176.5 429.5 c 0
 191.5 455.1667 208.3333 475.3333 227 490 c 0
 241 500.6667 254.5 508.8333 267.5 514.5 c 0
 280.5 520.16667 293.6667 524.16667 307 526.5 c 0
 320.3333 528.83333 334.3333 530 349 530 c 2
 397 530 l 2
 421 529.333333 445.3333 525.83333 470 519.5 c 0
 494.6667 513.16667 514.6667 500.3333 530 481 c 0
 537.33333 471.66667 542.8333 459.5 546.5 444.5 c 0
 550.1667 429.5 552 415.3333 552 402 c 0
 552 380.6667 549.5 363.3333 544.5 350 c 0
 539.5 336.6667 528.3333 323 511 309 c 0
 504.33333 303.66667 496 299.33333 486 296 c 0
 476 292.66667 465.1667 290 453.5 288 c 0
 441.8333 286 430 284.5 418 283.5 c 0
 406 282.5 394.3333 281 383 279 c 0
 373.66667 277.66667 363 275.16667 351 271.5 c 0
 339 267.83333 328 261.66667 318 253 c 0
 293.3333 231.6667 277.6667 206.6667 271 178 c 1
 271 177 l 1
 270 97 l 2
 273.33333 77.6667 279.83333 57.8333 289.5 37.5 c 0
 299.16667 17.1667 311.6667 -1.6667 327 -19 c 0
 339 -32.3333 351 -43.6667 363 -53 c 0
 375 -62.3333 386.6667 -71 398 -79 c 0
 404.66667 -83.66667 411.8333 -88.83333 419.5 -94.5 c 0
 427.1667 -100.16667 435 -106.6667 443 -114 c 0
 450.33333 -121.33333 456.6667 -127.8333 462 -133.5 c 0
 467.33333 -139.16667 473.3333 -146.3333 480 -155 c 1
309 -35 m 0
 293 -19 279.6667 0.3333 269 23 c 1
 262 -430 l 1
 396 -430 l 1
 395.333333 -408 393.83333 -381.5 391.5 -350.5 c 0
 389.16667 -319.5 386 -287.3333 382 -254 c 0
 378 -220.6667 373.33333 -188 368 -156 c 0
 362.66667 -124 356.6667 -96.3333 350 -73 c 1
 344 -67.66667 337.3333 -61.8333 330 -55.5 c 0
 322.6667 -49.1667 315.6667 -42.3333 309 -35 c 0
272 241 m 1
 279.33333 251 289.3333 261.3333 302 272 c 0
 314.6667 282.6667 327.5 289.6667 340.5 293 c 0
 353.5 296.3333 365.6667 299.33333 377 302 c 0
 405.6667 308 424.3333 319.8333 433 337.5 c 0
 441.6667 355.1667 446 376.6667 446 402 c 0
 446 415.3333 444.5 428.3333 441.5 441 c 0
 438.5 453.6667 433.83333 465 427.5 475 c 0
 421.16667 485 413.1667 493 403.5 499 c 0
 393.8333 505 382.6667 508 370 508 c 0
 340.6667 508 317.6667 500.16667 301 484.5 c 0
 284.3333 468.83333 275.6667 450 275 428 c 2
 272 241 l 1
EndSplineSet
EndChar

StartChar: uni0432
Encoding: 1074 1074 9
Width: 403
Flags: HW
LayerCount: 3
Fore
SplineSet
42 0 m 1
 48 74 58 156 68 230 c 2
 79 313 l 2
 85 356 92 402 99 437 c 1
 320 437 l 2
 323 437 340 432 331 427 c 0
 315 416 297 398 282 382 c 2
 254 351 l 2
 245 340 237 330 230 321 c 2
 216 301 l 2
 212 295 208 288 205 281 c 1
 212 276 l 1
 305 276 l 1
 311 268 317 253 322 231 c 0
 339 166 353 78 356 0 c 1
 42 0 l 1
194 261 m 1
 175 249 167 191 161 163 c 0
 156 136 151 108 148 80 c 1
 148 30 l 1
 252 30 l 1
 248 108 237 183 212 237 c 0
 207 251 203 254 194 261 c 1
177 293 m 1
 198 337 231 375 263 407 c 1
 193 407 l 1
 186 362 l 2
 183 342 180 319 177 293 c 1
EndSplineSet
Validated: 1
Layer: 2
SplineSet
42 0 m 1
 43.33333 17.3333 45.33333 38.5 48 63.5 c 0
 50.66667 88.5 53.66667 115.1667 57 143.5 c 0
 60.33333 171.8333 64 200.6667 68 230 c 0
 72 259.3333 75.83333 287.1667 79.5 313.5 c 0
 83.16667 339.8333 86.66667 363.8333 90 385.5 c 0
 93.33333 407.1667 96.33333 424.3333 99 437 c 1
 320 437 l 2
 324 437 327.66667 435.83333 331 433.5 c 0
 334.33333 431.16667 334.33333 429 331 427 c 0
 325 423 317.6667 417 309 409 c 0
 300.3333 401 291.3333 392 282 382 c 0
 272.6667 372 263.3333 361.6667 254 351 c 0
 244.66667 340.3333 236.6667 330.3333 230 321 c 0
 225.33333 314.33333 220.83333 307.8333 216.5 301.5 c 0
 212.16667 295.1667 208.33333 288.3333 205 281 c 1
 212 276 l 1
 305 276 l 1
 311 268 316.8333 253 322.5 231 c 0
 328.1667 209 333.5 184.3333 338.5 157 c 0
 343.5 129.6667 347.5 101.8333 350.5 73.5 c 0
 353.5 45.1667 355.33333 20.6667 356 0 c 1
 42 0 l 1
191 259 m 2
 183 249 176.3333 232.6667 171 210 c 0
 167 192 163.66667 176.3333 161 163 c 0
 155.66667 135.6667 151.33333 108 148 80 c 2
 143 30 l 1
 252 30 l 1
 251.333333 44.6667 250 61.6667 248 81 c 0
 245.33333 109.6667 242 133.3333 238 152 c 0
 236 161.33333 234 170 232 178 c 0
 229.33333 188.6667 226.33333 199.1667 223 209.5 c 0
 219.66667 219.8333 216.16667 229.1667 212.5 237.5 c 0
 208.83333 245.8333 205.33333 251.6667 202 255 c 2
 194 261 l 1
 191 259 l 2
205 339 m 0
 214.33333 351.6667 224 363.8333 234 375.5 c 0
 244 387.1667 253.6667 397.6667 263 407 c 1
 193 407 l 1
 191.66667 397.66667 189.5 382.8333 186.5 362.5 c 0
 183.5 342.1667 180.33333 319 177 293 c 1
 185 309.6667 194.3333 325 205 339 c 0
EndSplineSet
EndChar

StartChar: uni0413
Encoding: 1043 1043 10
Width: 589
Flags: HW
LayerCount: 3
Fore
SplineSet
75 -455 m 1xe0
 75 -430 l 1
 129.999 -430 l 1xe0
 155.999 495 l 1
 102 495 l 1
 102 519.998 l 1
 577 519.998 l 1
 577 517.998 577 516 578 514 c 0
 578 512 578 510 578 509 c 0
 578 507 578 506 577 505 c 0
 514 437 476 377 436 294 c 1
 425 294 l 1
 422 328 419 365 415 399 c 2
 409 451 l 2
 407 467 405 482 403 495 c 1
 276 495 l 1xd0
 262 -430 l 1
 317 -430 l 1
 317 -455 l 1
 75 -455 l 1xe0
EndSplineSet
Validated: 1
Layer: 2
SplineSet
75 -455 m 1
 75 -430 l 1
 130 -430 l 1
 156 495 l 1
 102 495 l 1
 102 520 l 1
 577 520 l 1
 577 518 577.333333 516 578 514 c 0
 578 512.66667 578.166667 511.16667 578.5 509.5 c 0
 578.833333 507.83333 578.333333 506.33333 577 505 c 0
 543.6667 469 516.3333 434.1667 495 400.5 c 0
 473.6667 366.8333 454 331.3333 436 294 c 1
 425 294 l 1
 423.66667 310 422.16667 327 420.5 345 c 0
 418.83333 363 417 381 415 399 c 0
 413 417 411 434.1667 409 450.5 c 0
 407 466.8333 405 481.6667 403 495 c 1
 276 495 l 1
 262 -430 l 1
 317 -430 l 1
 317 -455 l 1
 75 -455 l 1
EndSplineSet
EndChar

StartChar: uni0433
Encoding: 1075 1075 11
Width: 387
Flags: HW
LayerCount: 3
Fore
SplineSet
51 0 m 1
 51 146.290561862 64.1596847309 307.89091627 81 437 c 1
 376 437 l 2
 379 437 381 434 381 431 c 0
 381 429 380 426 379 425 c 0
 342 388 293 333 271 287 c 0
 270 285 267 284 264 284 c 0
 260 284 258.001 285 258.001 287 c 0
 257.001 292 258.001 298 258.001 305 c 0
 258.001 321 257 336 257 352 c 0
 257 376 255 398.001 242 407.001 c 1
 176 407.001 l 1
 165 316.001 158 203 154 103 c 0
 152 65 151 31 151 0 c 1
 133 -2 116 -3 100 -3 c 0
 85 -3 68 -2 51 0 c 1
EndSplineSet
Validated: 1
Layer: 2
SplineSet
51 0 m 1
 51 29.3333 51.833333 64.3333 53.5 105 c 0
 55.166667 145.6667 57.5 186.6667 60.5 228 c 0
 63.5 269.3333 66.83333 308.6667 70.5 346 c 0
 74.16667 383.3333 77.66667 413.6667 81 437 c 1
 376 437 l 2
 378.66667 437 380.33333 435.5 381 432.5 c 0
 381.66667 429.5 381 427 379 425 c 0
 357.6667 403.6667 336.8333 380.5 316.5 355.5 c 0
 296.1667 330.5 281 307.6667 271 287 c 0
 269.66667 285 267.16667 284 263.5 284 c 0
 259.83333 284 258 285 258 287 c 0
 257.333333 291.66667 257 297.6667 257 305 c 2
 257 328 l 1
 257 351.5 l 2
 257 359.16667 256.666667 365.6667 256 371 c 0
 254.66667 381.6667 253.16667 389.5 251.5 394.5 c 0
 249.83333 399.5 246.66667 403.66667 242 407 c 2
 176 407 l 1
 173.33333 385 170.5 357.1667 167.5 323.5 c 0
 164.5 289.8333 161.83333 254.1667 159.5 216.5 c 0
 157.16667 178.8333 155.16667 141 153.5 103 c 0
 151.83333 65 151 30.6667 151 0 c 1
 133 -2 116.1667 -3 100.5 -3 c 0
 84.8333 -3 68.3333 -2 51 0 c 1
EndSplineSet
EndChar

StartChar: uni0414
Encoding: 1044 1044 12
Width: 665
Flags: HW
LayerCount: 3
Fore
SplineSet
126.002 -655 m 1xe8
 113.002 -584 100 -512.003 74 -455.003 c 1
 47 -455.003 l 1
 47 -430 l 1
 258 -430 l 1
 282.741235333 -344.53027794 302.429892173 -255.875449278 324 -166 c 1
 343 -79 l 2
 354 -25 364 28 372 84 c 2
 384 170 l 1
 377 494.998 l 1
 322 494.998 l 1
 322 519.998 l 1
 557 519.998 l 1
 557 494.998 l 1
 493 494.998 l 1xf0
 524 -430 l 1
 698 -430 l 1
 698 -433 698 -435 699 -437 c 0
 699 -442 699 -445 698 -445 c 0
 652 -470 613 -503 582 -542 c 0
 550 -581 525 -619 507 -656 c 1
 496 -656 l 1
 496 -643 494 -630 494 -615 c 0
 494 -574 497 -533 501 -497 c 2
 506 -455.003 l 1
 244 -455.003 l 1
 190 -499.003 155 -577 136 -655 c 1
 126.002 -655 l 1xe8
348 -172 m 2
 337 -223 325 -271 314 -317 c 1
 284 -430 l 1
 397.002 -430 l 1xe8
 387 26 l 1
 382 -6 376 -38 369 -70 c 2
 348 -172 l 2
EndSplineSet
Validated: 1
Layer: 2
SplineSet
258 -430 m 1
 262 -415.3333 266.66667 -398.1667 272 -378.5 c 0
 277.33333 -358.8333 282.8333 -337.6667 288.5 -315 c 0
 294.1667 -292.3333 300 -268.3333 306 -243 c 0
 312 -217.6667 318 -192 324 -166 c 0
 330.66667 -135.3333 336.8333 -106.3333 342.5 -79 c 0
 348.1667 -51.6667 353.5 -24.5 358.5 2.5 c 0
 363.5 29.5 368 56.6667 372 84 c 0
 376 111.3333 380 140 384 170 c 1
 377 495 l 1
 322 495 l 1
 322 520 l 1
 557 520 l 1
 557 495 l 1
 493 495 l 1
 524 -430 l 1
 698 -430 l 1
 698 -432.66667 698.333333 -435 699 -437 c 0
 699 -442.33333 698.666667 -445 698 -445 c 0
 652 -470.3333 613.1667 -502.5 581.5 -541.5 c 0
 549.8333 -580.5 525 -618.6667 507 -656 c 1
 496 -656 l 1
 494.93333 -643.2 494.4 -629.5467 494.4 -615.04 c 0
 494.4 -611.41333 494.4333333 -607.73333 494.5 -604 c 0
 494.833333 -585.3333 495.5 -566.8333 496.5 -548.5 c 0
 497.5 -530.1667 499 -512.8333 501 -496.5 c 0
 503 -480.1667 504.66667 -466.3333 506 -455 c 1
 244 -455 l 1
 230 -466.3333 217.1667 -480.1667 205.5 -496.5 c 0
 193.8333 -512.8333 183.5 -530.1667 174.5 -548.5 c 0
 165.5 -566.8333 157.8333 -585.1667 151.5 -603.5 c 0
 145.1667 -621.8333 140 -639 136 -655 c 1
 126 -655 l 1
 119.33333 -618.3333 112.1667 -582.8333 104.5 -548.5 c 0
 96.8333 -514.1667 86.6667 -483 74 -455 c 1
 47 -455 l 1
 47 -430 l 1
 258 -430 l 1
348 -172 m 0
 336.6667 -222.6667 325.1667 -270.8333 313.5 -316.5 c 0
 301.8333 -362.1667 292 -400 284 -430 c 1
 397 -430 l 1
 387 26 l 1
 381.66667 -6 375.6667 -38 369 -70 c 0
 362.3333 -102 355.3333 -136 348 -172 c 0
EndSplineSet
EndChar

StartChar: uni0434
Encoding: 1076 1076 13
Width: 462
Flags: HW
LayerCount: 3
Fore
SplineSet
239 44 m 2
 232.239 87.9401 227.76 127.287 221.998 178 c 1
 208.883 125.533 188.895 71.9643 167 30 c 1
 241 30 l 1
 239 44 l 2
432.998 30.001 m 1
 434.418 26.4513 436.109 22.6278 436.109 18.6318 c 0
 436.109 14.2861 433.739 4.40918 428.999 -10.998 c 0
 420.999 -39.665 410.336 -64.5 397.003 -85.5 c 0
 391.513 -94.1471 386.758 -98.4706 382.737 -98.4706 c 0
 376.993 -98.4706 372.748 -89.6471 370.003 -72 c 0
 365.336 -42 358.669 -18 350.002 0 c 1
 104.002 0 l 1
 96.6689 -33.333 92.002 -55.5 90.002 -66.5 c 0
 88.002 -77.5 83.502 -83.167 76.502 -83.5 c 0
 69.502 -83.833 63.502 -76.333 58.502 -61 c 0
 50.6788 -37.3232 43.1289 -13.3731 36.002 11 c 0
 34.6689 14.333 34.002 18.5 34.002 23.5 c 0
 34.002 28.5 36.6689 30.667 42.002 30 c 2
 132.002 30 l 1
 165.051 84.296 189.169 155.661 201.5 232.5 c 0
 205.833 259.5 209.666 284.667 212.999 308 c 1
 210.652 349.08 208.999 387.168 208.999 427.001 c 1
 234.391 436.673 289.535 445.405 321.999 448.001 c 1
 318.431 410.543 316.665 367.15 316.665 324.223 c 0
 316.665 221.241 324.711 116.623 339.998 30.001 c 1
 432.998 30.001 l 1
EndSplineSet
Validated: 1
Layer: 2
SplineSet
239 44 m 2
 236.33333 61.3333 233.66667 80.6667 231 102 c 0
 228.33333 123.3333 225.33333 148.6667 222 178 c 1
 220.66667 172.66667 219.33333 167.6667 218 163 c 0
 216.66667 158.3333 215.33333 153.33333 214 148 c 0
 208 126 200.6667 104.6667 192 84 c 0
 183.3333 63.3333 175 45.3333 167 30 c 1
 241 30 l 1
 239 44 l 2
429 -11 m 0
 421 -39.6667 410.3333 -64.5 397 -85.5 c 0
 383.6667 -106.5 374.6667 -102 370 -72 c 0
 365.3333 -42 358.6667 -18 350 0 c 1
 104 0 l 1
 96.66667 -33.3333 92 -55.5 90 -66.5 c 0
 88 -77.5 83.5 -83.1667 76.5 -83.5 c 0
 69.5 -83.8333 63.5 -76.33333 58.5 -61 c 2
 46.5 -24 l 1
 36 11 l 2
 34.66667 14.33333 34 18.5 34 23.5 c 0
 34 28.5 36.66667 30.66667 42 30 c 2
 132 30 l 1
 141.33333 45.3333 150.6667 63.8333 160 85.5 c 0
 169.3333 107.1667 177.6667 130.6667 185 156 c 0
 191.66667 180 197.1667 205.5 201.5 232.5 c 0
 205.8333 259.5 209.66667 284.6667 213 308 c 1
 211.66667 331.3333 210.66667 352.8333 210 372.5 c 0
 209.33333 392.1667 209 410.3333 209 427 c 1
 223 432.33333 241.1667 436.83333 263.5 440.5 c 0
 285.8333 444.16667 305.3333 446.66667 322 448 c 1
 319.33333 420 317.66667 389.8333 317 357.5 c 0
 316.778 346.722 316.667 335.6293 316.667 324.222 c 0
 316.667 301.4073 317.111333 277.3333 318 252 c 0
 318.666667 231.3333 319.66667 210.3333 321 189 c 0
 322.33333 167.6667 324 147.1667 326 127.5 c 0
 328 107.8333 330.33333 89.5 333 72.5 c 0
 335.66667 55.5 338 41.3333 340 30 c 1
 433 30 l 2
 434.33333 26.66667 435.33333 23.33333 436 20 c 0
 436.074 19.6296 436.111 19.1728 436.111 18.6296 c 0
 436.111 14.28393 433.74067 4.4074 429 -11 c 0
EndSplineSet
EndChar

StartChar: uni0415
Encoding: 1045 1045 14
Width: 688
Flags: HW
LayerCount: 3
Fore
SplineSet
392 118 m 0
 482.535527618 118 556.64481408 68.8414873598 568 -22 c 1
 611 -22 l 1
 611 -47.0039 l 1
 401 -47.0039 l 1
 401 -22 l 1
 450 -22 l 1
 441 12 420 39 391 53 c 0
 382 58 372 60.9961 361 60.9961 c 0
 316 60.9961 278 43 257 16 c 0
 225 -27 204 -70 194 -128 c 1
 194 -237 210 -354 263 -415 c 0
 279 -432 299 -441 323 -441 c 0
 370 -441 394 -406 409 -370 c 0
 430 -325 440 -263 446 -203 c 1
 401 -203 l 1
 401 -178 l 1
 611 -178 l 1
 611 -203 l 1
 564 -203 l 1
 543 -287 511 -352 468 -397 c 0
 425 -442 376 -465 323 -465 c 0
 286 -465 251 -454 220 -431 c 0
 149 -379 107 -284 84 -176 c 0
 71 -115 65 -45 65 32 c 0
 65 178 89 305 138 396 c 0
 161 439 189 472 220 495 c 0
 251 518 286 529 323 529 c 0
 387 529 434 497 468 460 c 0
 514 411 545 343 564 265 c 1
 611 265 l 1
 611 240 l 1
 401 239.993 l 1
 401 265 l 1
 446 265 l 1
 437 351 423 441 374 485 c 0
 360 498 343 504.993 323 504.993 c 0
 273 504.993 248 465 232 425 c 0
 191 327 191 177 191 40 c 2
 191 -47.0039 l 1
 219.927897828 19.7527872964 269.579294469 81.4723093743 341 108 c 0
 358 115 375 118 392 118 c 0
EndSplineSet
Validated: 1
Layer: 2
SplineSet
564 -203 m 1
 543.3333 -287 511.3333 -351.667 468 -397 c 0
 424.6667 -442.333 376.3333 -465 323 -465 c 0
 285.6667 -465 251.3333 -453.6667 220 -431 c 0
 188.6667 -408.3333 161.5 -375.5 138.5 -332.5 c 0
 115.5 -289.5 97.5 -237.3333 84.5 -176 c 0
 71.5 -114.6667 65 -45.333 65 32 c 0
 65 109.333 71.5 178.667 84.5 240 c 0
 97.5 301.3333 115.5 353.5 138.5 396.5 c 0
 161.5 439.5 188.6667 472.3333 220 495 c 0
 251.3333 517.6667 285.6667 529 323 529 c 0
 349.6667 529 375.3333 523.16667 400 511.5 c 0
 424.6667 499.8333 447.5 482.6667 468.5 460 c 0
 489.5 437.3333 508.1667 409.6667 524.5 377 c 0
 540.8333 344.3333 554 307 564 265 c 1
 611 265 l 1
 611 240 l 1
 401 240 l 1
 401 265 l 1
 448 265 l 1
 444.66667 297 440 327.5 434 356.5 c 0
 428 385.5 420.1667 411 410.5 433 c 0
 400.8333 455 388.8333 472.5 374.5 485.5 c 0
 360.1667 498.5 343 505 323 505 c 0
 301.6667 505 283.6667 497.83333 269 483.5 c 0
 254.3333 469.1667 242 449.8333 232 425.5 c 0
 222 401.1667 214.3333 373 209 341 c 0
 203.6667 309 199.66667 275.5 197 240.5 c 0
 194.33333 205.5 192.66667 170 192 134 c 0
 191.33333 98 191 64 191 32 c 2
 191 -47 l 1
 197.66667 -31.6667 207 -13.6667 219 7 c 0
 227.66667 21 238.3333 34.5 251 47.5 c 0
 263.6667 60.5 277.6667 72.3333 293 83 c 0
 308.3333 93.6667 324.5 102.1667 341.5 108.5 c 0
 358.5 114.8333 375.3333 118 392 118 c 0
 463.3333 118 515.667 91 549 37 c 0
 554.33333 27.66667 558.5 18.3333 561.5 9 c 0
 564.5 -0.33333 566.66667 -10.6667 568 -22 c 1
 611 -22 l 1
 611 -47 l 1
 401 -47 l 1
 401 -22 l 1
 450 -22 l 1
 447.33333 -12 443.33333 -2 438 8 c 0
 432.66667 18 426 26.8333 418 34.5 c 0
 410 42.16667 401.1667 48.5 391.5 53.5 c 0
 381.8333 58.5 371.6667 61 361 61 c 0
 347 61 333.1667 59.16667 319.5 55.5 c 0
 305.8333 51.83333 293 46 281 38 c 0
 271.66667 32 263.8333 24.8333 257.5 16.5 c 0
 251.16667 8.16667 245.6667 0.3333 241 -7 c 0
 225.6667 -30.3333 214.8333 -51.6667 208.5 -71 c 0
 202.1667 -90.3333 197.3333 -109.3333 194 -128 c 1
 196 -168 199.33333 -206.6667 204 -244 c 0
 208.66667 -281.3333 215.8333 -314.6667 225.5 -344 c 0
 235.1667 -373.3333 247.8333 -396.8333 263.5 -414.5 c 0
 279.1667 -432.1667 299 -441 323 -441 c 0
 343 -441 360 -434.66667 374 -422 c 0
 388 -409.33333 399.8333 -392.1667 409.5 -370.5 c 0
 419.1667 -348.8333 426.8333 -323.5 432.5 -294.5 c 0
 438.1667 -265.5 442.6667 -235 446 -203 c 1
 401 -203 l 1
 401 -178 l 1
 611 -178 l 1
 611 -203 l 1
 564 -203 l 1
EndSplineSet
EndChar

StartChar: uni0435
Encoding: 1077 1077 15
Width: 295
Flags: HW
LayerCount: 3
Fore
SplineSet
220 120 m 2
 220 105 l 2
 220 88 215 54 212 45 c 1
 191 28 160 15 133 4 c 2
 114 -4 l 2
 111 -5 109 -6 107 -6 c 0
 93 -6 86.999 20 83.999 33 c 0
 78.999 58 64.999 85 60.999 116 c 1
 60.999 213 l 1
 59.999 222 60.999 230 60.999 236 c 0
 62.999 321 87 361 141 401 c 0
 166 418 210 440 244 445 c 1
 246 436 247 427 247 416 c 0
 247 395 244 376 240 355 c 1
 205 346 181 332 157 317 c 1
 155 310 154 300 154 287 c 0
 153 283 153 279 153 274 c 0
 153 265 153 256 154 246 c 1
 180 256 208 269 230 285 c 0
 233 286 235 285 235 282 c 2
 235 272 l 2
 235.077 271.231 235.112 270.237 235.112 269.056 c 0
 235.112 254.882 230 213.769 230 211 c 1
 209 194 186 182 160 172 c 1
 163 150 167 124 171 107 c 1
 186 110 202 116 216 123 c 0
 219 124 220 123 220 120 c 2
EndSplineSet
Validated: 1
Layer: 2
SplineSet
171 107 m 1
 177.66667 108.33333 185.3333 110.66667 194 114 c 0
 200.66667 116 208 119 216 123 c 0
 218.66667 124.33333 220 123.333333 220 120 c 2
 220 111 l 2
 220.666667 105.66667 220 96 218 82 c 0
 216.66667 66 214.66667 53.6667 212 45 c 1
 205.33333 39.66667 197.3333 34.5 188 29.5 c 0
 178.6667 24.5 169.3333 19.83333 160 15.5 c 0
 150.6667 11.16667 141.8333 7.33333 133.5 4 c 0
 125.16667 0.66667 118.6667 -2 114 -4 c 0
 108 -7.33333 103.6667 -7.33333 101 -4 c 0
 95.66667 2 92 7.3333 90 12 c 0
 88 16.66667 86 23.6667 84 33 c 0
 78.66667 57.6667 74 85.3333 70 116 c 0
 69.333333 124 66.66667 156.3333 62 213 c 0
 61.333333 222.33333 61 230 61 236 c 0
 61.666667 268.6667 66 296 74 318 c 0
 86 349.3333 108.3333 377 141 401 c 0
 156.3333 411.6667 174 421.3333 194 430 c 0
 213.3333 438 230 443 244 445 c 1
 246 436.33333 247 426.6667 247 416 c 0
 247 411.33333 246.666667 405.6667 246 399 c 0
 245.333333 385 243.33333 370.3333 240 355 c 1
 220 349.66667 203.5 343.5 190.5 336.5 c 0
 177.5 329.5 166.3333 323 157 317 c 1
 155 309.66667 154 299.6667 154 287 c 0
 153.333333 283 153 278.66667 153 274 c 0
 153 265.33333 153.333333 256 154 246 c 1
 166 250.66667 178.6667 256.1667 192 262.5 c 0
 205.3333 268.8333 218 276.3333 230 285 c 0
 233.33333 286.33333 235 285.333333 235 282 c 2
 235 272 l 2
 235.666667 267.33333 235.333333 258.6667 234 246 c 0
 232 227.3333 230.66667 215.6667 230 211 c 0
 218.6667 201.66667 207.1667 194 195.5 188 c 0
 183.8333 182 172 176.6667 160 172 c 1
 162 157.3333 164 144.1667 166 132.5 c 0
 168 120.8333 169.66667 112.3333 171 107 c 1
EndSplineSet
EndChar

StartChar: uni0416
Encoding: 1046 1046 16
Width: 904
Flags: HW
LayerCount: 3
Fore
SplineSet
773 519.999 m 1xd4
 722.056524055 482.723285894 678.443793814 420.442329896 658 354 c 1
 649 354 l 1
 644 387 633 430 624 459 c 1
 569 428 537 364 526 293 c 1
 526 287 l 1
 548 281 569 271 569 244 c 0
 569 217 548 207 525 202 c 1
 525 160 l 1
 534 105 553 66 582 35 c 0
 643 -32 688 -98 740 -181 c 1
 766 -260 782 -335 794 -430 c 1
 843 -430 l 1
 843 -454.999 l 1
 605 -454.999 l 1
 605 -430 l 1
 658 -430 l 1
 658 -356 654 -276 644 -205 c 1
 635 -149 627 -83 607 -37 c 1
 577 0 544 36 523 83 c 1
 515 -430 l 1
 570 -430 l 1
 570 -454.999 l 1
 328 -454.999 l 1
 328 -430 l 1
 383.001 -430 l 1
 398 83 l 1
 384 54 363 21 344 0 c 0
 336 -9 328 -16 321 -24 c 2
 307 -39 l 1
 273 -118 257 -224 250 -326 c 0
 247 -365 246 -400 246 -430 c 1
 289 -430 l 1
 289 -454.999 l 1
 61 -454.999 l 1
 61 -430 l 1
 109.002 -430 l 1
 121.002 -338 138 -268 164 -190 c 1
 186 -145 214 -110 244 -74 c 2
 290 -21 l 1
 338 31 385 81 400 169 c 1
 401 203 l 1
 380 209 357 219 357 244 c 0
 357 272 381.006 281 404.006 287 c 1
 404.006 291 l 1
 396.006 349 380 397 346 434 c 0
 340 440 318 458 309 461 c 1
 300 432 289 387 284 354 c 1
 275 354 l 1
 260 404 230 449 199 484 c 0
 187 498 174 509.999 160 519.999 c 1xd8
 165 527 l 1xb8
 217 521 275 505 316 490 c 0
 330 485 354 466 364 456 c 0
 383 437 397 416 406 391 c 1
 409 494.999 l 1
 365 494.999 l 1
 365 519.999 l 1
 575 519.999 l 1
 575 494.999 l 1
 529 494.999 l 1xd4
 529 390 l 1
 544 423 566 453 596 474 c 1
 617 490 l 1
 659 509 713 520 768 527 c 1xb4
 773 519.999 l 1xd4
EndSplineSet
Validated: 1
Layer: 2
SplineSet
357 244 m 0
 357 256.6667 361.5 266.1667 370.5 272.5 c 0
 379.5 278.8333 390.6667 283.6667 404 287 c 1
 404 291 l 2
 400.66667 316.3333 394.83333 341.3333 386.5 366 c 0
 378.16667 390.6667 364.6667 413.3333 346 434 c 0
 343.33333 436.66667 338 441.33333 330 448 c 0
 322 454.66667 315 459 309 461 c 1
 304.33333 446.3333 299.66667 429.1667 295 409.5 c 0
 290.33333 389.8333 286.66667 371.3333 284 354 c 1
 275 354 l 1
 271 367.3333 265.33333 381.5 258 396.5 c 0
 250.66667 411.5 242 426.5 232 441.5 c 0
 222 456.5 211 470.8333 199 484.5 c 0
 187 498.1667 174 510 160 520 c 1
 165 527 l 1
 193 523.66667 220.3333 518.5 247 511.5 c 0
 273.6667 504.5 296.6667 497.3333 316 490 c 0
 323.33333 487.33333 331.8333 482.33333 341.5 475 c 0
 351.1667 467.66667 358.6667 461.3333 364 456 c 0
 382.6667 437.3333 396.6667 415.6667 406 391 c 1
 409 495 l 1
 365 495 l 1
 365 520 l 1
 575 520 l 1
 575 495 l 1
 529 495 l 1
 528 390 l 1
 539.3333 414.6667 554.6667 436.6667 574 456 c 0
 580 462 587.1667 468 595.5 474 c 0
 603.8333 480 611 485.3333 617 490 c 0
 637.6667 499.33333 661 507 687 513 c 0
 713 519 740 523.6667 768 527 c 1
 773 520 l 1
 759 510 746 498.1667 734 484.5 c 0
 722 470.8333 711 456.5 701 441.5 c 0
 691 426.5 682.3333 411.5 675 396.5 c 0
 667.6667 381.5 662 367.3333 658 354 c 1
 649 354 l 1
 646.33333 371.3333 642.66667 389.5 638 408.5 c 0
 633.33333 427.5 628.66667 444.3333 624 459 c 1
 619.33333 456.33333 613.6667 452.33333 607 447 c 0
 600.3333 441.66667 595.3333 437.33333 592 434 c 0
 572.6667 414 557.8333 391.8333 547.5 367.5 c 0
 537.1667 343.1667 530 318.3333 526 293 c 1
 526 287 l 1
 538 283.66667 548.1667 278.83333 556.5 272.5 c 0
 564.8333 266.16667 569 256.6667 569 244 c 0
 569 231.3333 564.83333 221.8333 556.5 215.5 c 0
 548.16667 209.1667 537.6667 204.6667 525 202 c 1
 525 160 l 1
 529.66667 130.6667 537 106 547 86 c 0
 557 66 568.6667 49 582 35 c 0
 610 4.3333 636.5 -28.3333 661.5 -63 c 0
 686.5 -97.6667 712.6667 -137 740 -181 c 1
 747.33333 -203 753.6667 -223.3333 759 -242 c 0
 764.33333 -260.6667 769 -279.3333 773 -298 c 0
 777 -316.6667 780.66667 -336.5 784 -357.5 c 0
 787.33333 -378.5 790.66667 -402.6667 794 -430 c 1
 843 -430 l 1
 843 -455 l 1
 605 -455 l 1
 605 -430 l 1
 658 -430 l 1
 658 -400 657.166667 -365.5 655.5 -326.5 c 0
 653.833333 -287.5 650 -247 644 -205 c 0
 642 -193 639.83333 -179.1667 637.5 -163.5 c 0
 635.16667 -147.8333 632.33333 -132.1667 629 -116.5 c 0
 625.66667 -100.8333 622.16667 -86 618.5 -72 c 0
 614.83333 -58 611 -46.3333 607 -37 c 0
 602.33333 -31 598.5 -26.1667 595.5 -22.5 c 0
 592.5 -18.8333 589.5 -15 586.5 -11 c 0
 583.5 -7 580 -2.66667 576 2 c 0
 572 6.66667 567 13 561 21 c 0
 555 28.33333 548.5 37.5 541.5 48.5 c 0
 534.5 59.5 528.3333 71 523 83 c 1
 515 -430 l 1
 570 -430 l 1
 570 -455 l 1
 328 -455 l 1
 328 -430 l 1
 383 -430 l 1
 398 83 l 1
 392.66667 71.6667 386.3333 60.5 379 49.5 c 0
 371.6667 38.5 365 29 359 21 c 0
 353 13 347.8333 6.5 343.5 1.5 c 0
 339.1667 -3.5 335.16667 -8 331.5 -12 c 2
 320.5 -24 l 2
 316.83333 -28 312.33333 -33 307 -39 c 0
 303 -48.33333 298.83333 -60 294.5 -74 c 0
 290.16667 -88 286 -102.8333 282 -118.5 c 0
 278 -134.1667 274.33333 -149.6667 271 -165 c 0
 267.66667 -180.3333 265 -194 263 -206 c 0
 257 -247.3333 252.6667 -287.5 250 -326.5 c 0
 247.3333 -365.5 246 -400 246 -430 c 1
 289 -430 l 1
 289 -455 l 1
 61 -455 l 1
 61 -430 l 1
 109 -430 l 1
 112.33333 -403.3333 115.83333 -380 119.5 -360 c 0
 123.16667 -340 127 -321.1667 131 -303.5 c 0
 135 -285.8333 139.66667 -268 145 -250 c 0
 150.33333 -232 156.6667 -212 164 -190 c 0
 175.3333 -167.3333 187.8333 -146.6667 201.5 -128 c 0
 215.1667 -109.3333 229.3333 -91.3333 244 -74 c 0
 258.6667 -56.6667 274 -39.1667 290 -21.5 c 0
 306 -3.8333 322 15 338 35 c 0
 351.3333 51 363.6667 69.5 375 90.5 c 0
 386.3333 111.5 394.6667 137.6667 400 169 c 1
 401 203 l 1
 388.3333 206.33333 377.8333 211.16667 369.5 217.5 c 0
 361.1667 223.83333 357 232.6667 357 244 c 0
EndSplineSet
EndChar

StartChar: uni0436
Encoding: 1078 1078 17
Width: 730
Flags: HW
LayerCount: 3
Fore
SplineSet
304 32 m 2xf8
 304 96.8009904203 316.989 215.033054942 316.989 265 c 0
 316.989 271 315.989 277 316.989 283 c 1
 259.989 238 218 190 177 130 c 0
 155 98 137 62 134 16 c 0
 134 11 134 5 133 -0 c 1
 116 -3 98 -4 77 -4 c 0
 57 -4 41 -3 30 -0 c 1
 29 2 29 5 29 7 c 0
 29 37.6249625032 44.3809157716 62.714225808 58 85 c 0
 73 111 94 137 116 157 c 0
 148 187 181 216 214 244 c 1
 201 244 187 244 174 244 c 0
 166 244 153 245 136 247 c 1
 136 288 l 2
 136 323 142 402 142 419 c 1
 185 426 225 431 271 435 c 1
 299 420 l 2
 309 415 319 410 329 404 c 1
 332 422 l 1
 362 432 403 441 441 444 c 1
 439 434 437 423 435 412 c 2
 429 377 l 1
 444 387 460 396 476 404 c 2
 521 427 l 1
 573 445 610 447 670 447 c 0
 678 447 677 435 672 432 c 0
 664 427 655 420 646 411 c 2
 618 384 l 2
 602 368 585 347 571 333 c 1
 564 341 555 350 546 361 c 2
 521 392 l 1
 488 382 451 356 423 337 c 1
 450 316 479 292 509 265 c 2
 602 181 l 1
 638 145 672 93 695 37 c 0
 700 25 701 15 702 0 c 1
 691 -3 672 -3 656 -3 c 0
 653 -3 650 -3 647 -3 c 0
 628 -3 604 -3 589 -0 c 1
 583 39 568 72 548 98 c 0
 516 138 484 180 447 215 c 1
 413 249 l 1
 413 241 l 1xf4
 408 175 406 129 406 104 c 2
 406 53 l 2
 406 34 406 17 407 -0 c 1
 394 -3 380 -4 364 -4 c 2
 354 -4 l 2
 339 -4 323 -3 304 -0 c 1
 304 32 l 2xf8
239 263 m 1
 251 272 264 282 277 291 c 2
 322 323 l 1
 322 328 322 332 323 335 c 1
 310 346 298 356 287 365 c 2
 255 390 l 1
 241 390 l 1
 238 379 238 362 238 346 c 0
 238 342 238 337 238 333 c 0
 237 327 237 321 237 315 c 0
 237 309 237 303 238 296 c 0
 238 284 239 273 239 263 c 1
EndSplineSet
Validated: 1
Layer: 2
SplineSet
702 0 m 1
 696.66667 -1.33333 689 -2.16667 679 -2.5 c 0
 669 -2.83333 658.5 -3 647.5 -3 c 0
 636.5 -3 625.6667 -2.833333 615 -2.5 c 0
 604.3333 -2.166667 595.6667 -1.33333 589 0 c 0
 588.333333 4 587.66667 8.33333 587 13 c 0
 586.33333 17.66667 585.33333 22.66667 584 28 c 0
 580.66667 39.3333 575.66667 51.5 569 64.5 c 0
 562.33333 77.5 555.3333 88.6667 548 98 c 0
 534.6667 114.6667 522.5 129.6667 511.5 143 c 0
 500.5 156.3333 489.8333 169 479.5 181 c 0
 469.1667 193 458.5 204.3333 447.5 215 c 0
 436.5 225.6667 425 237 413 249 c 1
 413 241 l 1
 408.33333 175 406 129.333 406 104 c 2
 406 53 l 2
 406 34.3333 406.333333 16.6667 407 0 c 1
 394.3333 -2.66667 380 -4 364 -4 c 2
 354 -4 l 2
 339.3333 -4 322.6667 -2.66667 304 0 c 1
 304 19 l 2
 303.866667 22.73333 303.8 26.94667 303.8 31.64 c 0
 303.8 50.4133 304.86667 76.8667 307 111 c 0
 310.33333 169.6667 313.33333 215.333 316 248 c 0
 316.666667 253.33333 317 259 317 265 c 0
 317 271 317.333333 277 318 283 c 1
 302 270.3333 287.5 258 274.5 246 c 0
 261.5 234 249.5 221.8333 238.5 209.5 c 0
 227.5 197.1667 217 184.5 207 171.5 c 0
 197 158.5 187 144.6667 177 130 c 0
 165.6667 113.3333 156.8333 97 150.5 81 c 0
 144.1667 65 139.6667 48.6667 137 32 c 0
 135.66667 26.66667 134.83333 21.3333 134.5 16 c 0
 134.16667 10.6667 133.666667 5.3333 133 0 c 1
 116.3333 -2.66667 97.8333 -4 77.5 -4 c 0
 57.1667 -4 41.3333 -2.66667 30 0 c 0
 28.66667 3.33333 28.33333 6.66667 29 10 c 0
 29.66667 13.33333 30.33333 17.33333 31 22 c 0
 31.666667 29.33333 34.5 38.5 39.5 49.5 c 0
 44.5 60.5 50.6667 72.3333 58 85 c 0
 65.33333 97.6667 74 110.1667 84 122.5 c 0
 94 134.8333 104.6667 146.3333 116 157 c 0
 134.6667 174.3333 151.8333 190 167.5 204 c 0
 183.1667 218 198.6667 231.3333 214 244 c 1
 194 244 l 1
 174 244 l 2
 166 244 153.3333 245 136 247 c 1
 136 274 l 2
 135.778 278 135.667 282.74067 135.667 288.222 c 0
 135.667 299.1853 136.111333 313.1113 137 330 c 0
 139 372.6667 140.66667 402.3333 142 419 c 1
 162.6667 422.33333 183.5 425.33333 204.5 428 c 0
 225.5 430.66667 247.6667 433 271 435 c 1
 280.33333 430.33333 289.8333 425.5 299.5 420.5 c 0
 309.1667 415.5 319 410 329 404 c 1
 332 422 l 1
 347.3333 427.33333 364.5 432 383.5 436 c 0
 402.5 440 421.6667 442.66667 441 444 c 1
 439 434 437 423.3333 435 412 c 0
 433 400.6667 431 389 429 377 c 1
 444.3333 387 460 396.1667 476 404.5 c 0
 492 412.8333 507 420.3333 521 427 c 0
 551.6667 437.6667 578.8333 443.6667 602.5 445 c 0
 626.1667 446.3333 648.6667 447 670 447 c 0
 673.33333 447 675.33333 445 676 441 c 0
 676.66667 437 675.333333 434 672 432 c 0
 664 426.66667 655.3333 419.6667 646 411 c 0
 636.6667 402.3333 627.3333 393.3333 618 384 c 0
 608.6667 374.6667 600 365.3333 592 356 c 0
 584 346.6667 577 339 571 333 c 1
 563.66667 341 555.5 350.5 546.5 361.5 c 0
 537.5 372.5 529 382.6667 521 392 c 1
 507.6667 388 492.3333 380.8333 475 370.5 c 0
 457.6667 360.1667 440.3333 349 423 337 c 1
 450.3333 315.6667 479 291.8333 509 265.5 c 0
 539 239.1667 570 211 602 181 c 0
 617.3333 165.6667 633.3333 145.8333 650 121.5 c 0
 666.6667 97.1667 681.6667 69 695 37 c 0
 697.66667 31 699.33333 25.1667 700 19.5 c 0
 700.66667 13.8333 701.33333 7.3333 702 0 c 1
239 263 m 1
 251 272.33333 263.8333 281.8333 277.5 291.5 c 0
 291.1667 301.1667 306 311.6667 322 323 c 1
 322 328.33333 322.333333 332.33333 323 335 c 0
 310.3333 346.3333 298.3333 356.5 287 365.5 c 0
 275.6667 374.5 265 382.6667 255 390 c 1
 241 389 l 1
 239.66667 383.66667 238.83333 376 238.5 366 c 0
 238.16667 356 238 345 238 333 c 0
 237.333333 327 237 321 237 315 c 0
 237 309 237.333333 302.6667 238 296 c 0
 238 284 238.333333 273 239 263 c 1
EndSplineSet
EndChar

StartChar: uni0404
Encoding: 1028 1028 18
Width: 688
Flags: HW
LayerCount: 3
Fore
SplineSet
392 118 m 0
 482.535527618 118 556.64481408 68.8414873598 568 -22 c 1
 611 -22 l 1
 611 -47.0039 l 1
 401 -47.0039 l 1
 401 -22 l 1
 450 -22 l 1
 441 12 420 39 391 53 c 0
 382 58 372 60.9961 361 60.9961 c 0
 316 60.9961 278 43 257 16 c 0
 225 -27 204 -70 194 -128 c 1
 194 -237 210 -354 263 -415 c 0
 279 -432 299 -441 323 -441 c 0
 370 -441 394 -406 409 -370 c 0
 430 -325 446 -263 446 -203 c 1
 401 -203 l 1
 401 -178 l 1
 611 -178 l 1
 611 -203 l 1
 564 -203 l 1
 543 -287 511 -352 468 -397 c 0
 425 -442 376 -465 323 -465 c 0
 286 -465 251 -454 220 -431 c 0
 149 -379 107 -284 84 -176 c 0
 71 -115 65 -45 65 32 c 0
 65 178 89 305 138 396 c 0
 161 439 189 472 220 495 c 0
 251 518 286 529 323 529 c 0
 387 529 434 497 468 460 c 0
 514 411 545 343 564 265 c 1
 611 265 l 1
 611 240 l 1
 401 240 l 1
 401 265 l 1
 446 265 l 1
 437 351 423 441 374 485 c 0
 360 498 343 504.993 323 504.993 c 0
 273 504.993 248 465 232 425 c 0
 191 327 191 177 191 40 c 2
 191 -47.0039 l 1
 219.927897828 19.7527872964 269.579294469 81.4723093743 341 108 c 0
 358 115 375 118 392 118 c 0
EndSplineSet
Validated: 1
Layer: 2
SplineSet
564 -203 m 1
 543.3333 -287 511.3333 -351.667 468 -397 c 0
 424.6667 -442.333 376.3333 -465 323 -465 c 0
 285.6667 -465 251.3333 -453.6667 220 -431 c 0
 188.6667 -408.3333 161.5 -375.5 138.5 -332.5 c 0
 115.5 -289.5 97.5 -237.3333 84.5 -176 c 0
 71.5 -114.6667 65 -45.333 65 32 c 0
 65 109.333 71.5 178.667 84.5 240 c 0
 97.5 301.3333 115.5 353.5 138.5 396.5 c 0
 161.5 439.5 188.6667 472.3333 220 495 c 0
 251.3333 517.6667 285.6667 529 323 529 c 0
 349.6667 529 375.3333 523.16667 400 511.5 c 0
 424.6667 499.8333 447.5 482.6667 468.5 460 c 0
 489.5 437.3333 508.1667 409.6667 524.5 377 c 0
 540.8333 344.3333 554 307 564 265 c 1
 611 265 l 1
 611 240 l 1
 401 240 l 1
 401 265 l 1
 448 265 l 1
 444.66667 297 440 327.5 434 356.5 c 0
 428 385.5 420.1667 411 410.5 433 c 0
 400.8333 455 388.8333 472.5 374.5 485.5 c 0
 360.1667 498.5 343 505 323 505 c 0
 301.6667 505 283.6667 497.83333 269 483.5 c 0
 254.3333 469.1667 242 449.8333 232 425.5 c 0
 222 401.1667 214.3333 373 209 341 c 0
 203.6667 309 199.66667 275.5 197 240.5 c 0
 194.33333 205.5 192.66667 170 192 134 c 0
 191.33333 98 191 64 191 32 c 2
 191 -47 l 1
 197.66667 -31.6667 207 -13.6667 219 7 c 0
 227.66667 21 238.3333 34.5 251 47.5 c 0
 263.6667 60.5 277.6667 72.3333 293 83 c 0
 308.3333 93.6667 324.5 102.1667 341.5 108.5 c 0
 358.5 114.8333 375.3333 118 392 118 c 0
 463.3333 118 515.667 91 549 37 c 0
 554.33333 27.66667 558.5 18.3333 561.5 9 c 0
 564.5 -0.33333 566.66667 -10.6667 568 -22 c 1
 611 -22 l 1
 611 -47 l 1
 401 -47 l 1
 401 -22 l 1
 450 -22 l 1
 447.33333 -12 443.33333 -2 438 8 c 0
 432.66667 18 426 26.8333 418 34.5 c 0
 410 42.16667 401.1667 48.5 391.5 53.5 c 0
 381.8333 58.5 371.6667 61 361 61 c 0
 347 61 333.1667 59.16667 319.5 55.5 c 0
 305.8333 51.83333 293 46 281 38 c 0
 271.66667 32 263.8333 24.8333 257.5 16.5 c 0
 251.16667 8.16667 245.6667 0.3333 241 -7 c 0
 225.6667 -30.3333 214.8333 -51.6667 208.5 -71 c 0
 202.1667 -90.3333 197.3333 -109.3333 194 -128 c 1
 196 -168 199.33333 -206.6667 204 -244 c 0
 208.66667 -281.3333 215.8333 -314.6667 225.5 -344 c 0
 235.1667 -373.3333 247.8333 -396.8333 263.5 -414.5 c 0
 279.1667 -432.1667 299 -441 323 -441 c 0
 343 -441 360 -434.66667 374 -422 c 0
 388 -409.33333 399.8333 -392.1667 409.5 -370.5 c 0
 419.1667 -348.8333 426.8333 -323.5 432.5 -294.5 c 0
 438.1667 -265.5 442.6667 -235 446 -203 c 1
 401 -203 l 1
 401 -178 l 1
 611 -178 l 1
 611 -203 l 1
 564 -203 l 1
EndSplineSet
EndChar

StartChar: uni0454
Encoding: 1108 1108 19
Width: 514
Flags: HW
LayerCount: 3
Fore
SplineSet
183 92 m 1
 204 23 242 -57 278 -104 c 1
 293 -98 l 1
 334 -78 356 -65 386 -35 c 1
 396 -35 407 -46 407 -57 c 1
 374 -90 350 -104 304 -125 c 1
 270 -142 237 -147 192 -153 c 1
 138 -93 95 -15 74 78 c 0
 67 109 63.0049 142 63.0049 175 c 0
 63.0049 287 112 358 180 408 c 0
 217 434 253 443 311 443 c 2
 334 443 l 2
 342 443 350 443 359 442 c 1
 376 428 394 415.996 411 400.996 c 1
 428 384 l 1
 454 394 l 1
 459 391 465 382 465 373 c 0
 465 371 465 368 464 366 c 1
 343 322 l 2
 340 321 339 320 338 320 c 0
 320 349 299 378 269 393 c 0
 259 398 248 400.996 236 400.996 c 0
 231 400.996 227 401.996 224 400.996 c 1
 191 374.996 176 315 169 264 c 0
 166 245 164 226 164 209 c 0
 164 178 168 150 174 123 c 1
 219 153 283 190 334 214 c 1
 371 207 405 184 433 166 c 1
 455 176 l 1
 464 172 469 166 469 157 c 0
 469 155 469 152 468 149 c 1
 343 90 l 1
 327 106 304 125 282 135 c 0
 274 138 267 140 260 140 c 1
 234 124 209 108 183 92 c 1
EndSplineSet
Validated: 1
Layer: 2
SplineSet
407 -57 m 0
 391.6667 -72.3333 376.5 -84.8333 361.5 -94.5 c 0
 346.5 -104.1667 327.3333 -114.3333 304 -125 c 0
 286.6667 -133.66667 269 -139.8333 251 -143.5 c 0
 233 -147.1667 213.3333 -150.33333 192 -153 c 1
 174.6667 -133.6667 158.1667 -111.8333 142.5 -87.5 c 0
 126.8333 -63.1667 113.1667 -37.1667 101.5 -9.5 c 0
 89.8333 18.1667 80.5 47.5 73.5 78.5 c 0
 66.5 109.5 63 141.6667 63 175 c 0
 63 226.3333 73.1667 271.1667 93.5 309.5 c 0
 113.8333 347.8333 142.6667 380.6667 180 408 c 0
 200.6667 422.6667 221.5 432.1667 242.5 436.5 c 0
 263.5 440.8333 286.3333 443 311 443 c 2
 334 443 l 2
 342 443 350.3333 442.666667 359 442 c 1
 366.33333 436 372.8333 430.8333 378.5 426.5 c 0
 384.1667 422.1667 389.6667 417.83333 395 413.5 c 0
 400.3333 409.16667 405.5 404.66667 410.5 400 c 0
 415.5 395.33333 421.3333 390 428 384 c 1
 454 394 l 2
 458 391.33333 461.16667 387.16667 463.5 381.5 c 0
 465.83333 375.83333 466 370.6667 464 366 c 2
 343 322 l 2
 340.33333 320.66667 338.66667 320 338 320 c 0
 332 329.33333 325.5 338.8333 318.5 348.5 c 0
 311.5 358.1667 303.8333 366.8333 295.5 374.5 c 0
 287.1667 382.1667 278.1667 388.5 268.5 393.5 c 0
 258.8333 398.5 248 401 236 401 c 0
 230.66667 401 226.66667 400.666667 224 400 c 0
 214.66667 392.66667 206.3333 381.8333 199 367.5 c 0
 191.6667 353.1667 185.5 337.1667 180.5 319.5 c 0
 175.5 301.8333 171.5 283.3333 168.5 264 c 0
 165.5 244.6667 164 226.3333 164 209 c 0
 164 195 164.833333 180.8333 166.5 166.5 c 0
 168.166667 152.1667 170.66667 137.6667 174 123 c 1
 197.3333 138.3333 223.3333 154.3333 252 171 c 0
 280.6667 187.6667 308 202 334 214 c 1
 351.3333 210.66667 368.3333 204.33333 385 195 c 0
 401.6667 185.66667 417.6667 176 433 166 c 1
 455 176 l 1
 462.33333 172.66667 466.6667 168.5 468 163.5 c 0
 469.3333 158.5 469.33333 153.66667 468 149 c 2
 343 90 l 1
 338.33333 94.66667 332.6667 99.83333 326 105.5 c 0
 319.3333 111.16667 312.1667 116.6667 304.5 122 c 0
 296.8333 127.3333 289.1667 131.66667 281.5 135 c 0
 273.8333 138.33333 266.6667 140 260 140 c 0
 252.66667 135.33333 241.3333 128.3333 226 119 c 0
 210.6667 109.66667 196.3333 100.6667 183 92 c 1
 195 51.3333 210 13.5 228 -21.5 c 0
 246 -56.5 262.6667 -84 278 -104 c 1
 293 -98 l 2
 313.6667 -88 330.8333 -78.5 344.5 -69.5 c 0
 358.1667 -60.5 372 -49 386 -35 c 1
 391.33333 -35.666667 396.3333 -38.16667 401 -42.5 c 0
 405.6667 -46.83333 407.66667 -51.66667 407 -57 c 0
EndSplineSet
EndChar

StartChar: uni0405
Encoding: 1029 1029 20
Width: 829
Flags: HW
LayerCount: 3
Fore
SplineSet
369 45 m 1xdd
 344 36 320 24.9961 285 24.9961 c 0
 282 23.9961 277 23.9961 271 24.9961 c 0xed
 218 30.9961 198 41.9951 169 69.9951 c 0
 127 111.995 102.997 177 102.997 260 c 2
 102.997 279 l 2
 102.997 350 144 421 184 459 c 0
 226 499 286 531 363 531 c 0
 415 531 451 524 483 505 c 2
 518 484 l 2
 525 479 532 477 540 477 c 0
 566 477 593 504 597 527 c 1
 602 529 607 531 611 531 c 0
 614 531 617 530 621 527 c 1
 621 236 l 1
 614 229 604.997 229 595.997 236 c 1xda40
 592 262 l 2
 590 276 585 294 585 316 c 0
 585 338 576 359 565 380 c 0
 541 423 514 454 484 475 c 0
 454 496 417 506.999 374 506.999 c 0
 334 506.999 301 487 280 466 c 1
 247 430 244 354 244 286 c 2
 244 268 l 2
 244 229 251 155 262 127 c 0
 268 111 281 94 296 84 c 0
 301 81 326 69.9951 343 69.9951 c 0xea80
 352 70.9951 361 72 370 74 c 0
 381 77 386 78 387 78 c 2
 453 194 l 1
 466 196 473 193 476 184 c 1
 422 90 l 1
 456 101 472 106 516 113 c 0
 520 114 524 114 527 114 c 0
 582 114 618 87 648 58 c 0
 700 5 723 -72 723 -176 c 0
 723 -275 686 -347 634 -395 c 0
 594 -432 535 -465.007 467 -465.007 c 0
 413 -465.007 387 -454 351 -429 c 0
 333 -416 317 -406 302 -397 c 0
 288 -388 273 -383.007 258 -383.007 c 0
 207.564571267 -383.007 192.942018222 -417.521836005 188 -462 c 1
 180 -464 105 -479 77 -479 c 2
 67.998 -479 l 1
 60.998 -458 60 -442 60 -413 c 0
 60 -372 92 -346 122 -333 c 0
 135 -327 150 -324 165 -324 c 0
 219 -324 249 -334 280 -352 c 0
 323.758992359 -378.255395416 362.985013701 -410.993443494 411 -432 c 0
 427 -439 446 -442 467 -442 c 0
 518 -442 558 -414 566 -371 c 0
 569 -356 572 -333 572 -303 c 0
 572 -285 576.996 -182 576.996 -144 c 2
 576.996 -40 l 2
 576.996 -5 550 36 528 52 c 0
 510 64 489 69.9951 461 69.9951 c 0
 438 69.9951 422 64 404 58 c 1
 337 -61 l 1
 324 -61 320 -59 315 -51 c 1
 369 45 l 1xdd
EndSplineSet
Validated: 1
Layer: 2
SplineSet
723 -176 m 0
 723 -225.3333 714.66667 -268.1667 698 -304.5 c 0
 681.33333 -340.8333 660.1667 -370.8333 634.5 -394.5 c 0
 608.8333 -418.1667 581 -435.8333 551 -447.5 c 0
 521 -459.1667 493 -465 467 -465 c 0
 444.3333 -465 424.3333 -462.5 407 -457.5 c 0
 389.6667 -452.5 371 -443 351 -429 c 0
 333 -416.3333 316.8333 -405.5 302.5 -396.5 c 0
 288.1667 -387.5 273.3333 -383 258 -383 c 0
 244 -383 232.6667 -385.5 224 -390.5 c 0
 215.3333 -395.5 208.5 -401.6667 203.5 -409 c 0
 198.5 -416.3333 195 -424.8333 193 -434.5 c 0
 191 -444.1667 189.33333 -453.3333 188 -462 c 1
 182.66667 -463.33333 162.6667 -467.33333 128 -474 c 0
 110.6667 -477.33333 93.6667 -479 77 -479 c 2
 68 -479 l 1
 64.66667 -469 62.5 -459.1667 61.5 -449.5 c 0
 60.5 -439.8333 60 -427.6667 60 -413 c 0
 60 -403 62.5 -392.6667 67.5 -382 c 0
 72.5 -371.3333 79.6667 -361.8333 89 -353.5 c 0
 98.3333 -345.1667 109.5 -338.1667 122.5 -332.5 c 0
 135.5 -326.8333 149.6667 -324 165 -324 c 0
 195 -324 218.5 -326.83333 235.5 -332.5 c 0
 252.5 -338.16667 267.3333 -344.6667 280 -352 c 2
 300 -364.5 l 2
 308 -369.5 316 -374.6667 324 -380 c 2
 348 -396 l 2
 356 -401.33333 362.6667 -405.66667 368 -409 c 0
 381.3333 -417.66667 395.8333 -425.3333 411.5 -432 c 0
 427.1667 -438.6667 445.6667 -442 467 -442 c 0
 478.3333 -442 489.6667 -440.33333 501 -437 c 0
 512.3333 -433.66667 522.5 -428.83333 531.5 -422.5 c 0
 540.5 -416.16667 548 -408.6667 554 -400 c 0
 560 -391.3333 564 -381.6667 566 -371 c 0
 568.66667 -355.6667 570.66667 -333 572 -303 c 0
 573.33333 -288.3333 574.66667 -256.6667 576 -208 c 0
 576.666667 -184 577 -162.6667 577 -144 c 0
 577 -133.3333 576.666667 -122.6667 576 -112 c 0
 574.66667 -66.6667 574 -42.6667 574 -40 c 0
 574 -21.3333 568.66667 -2.6667 558 16 c 0
 549.33333 32 539.3333 44 528 52 c 0
 514.6667 61.33333 498.6667 67 480 69 c 0
 473.33333 69.666667 467 70 461 70 c 0
 451 70 441.3333 69 432 67 c 0
 428.66667 65.66667 424.66667 64.33333 420 63 c 0
 415.33333 61.66667 410 60 404 58 c 1
 337 -61 l 1
 331 -61.666667 326.5 -61.166667 323.5 -59.5 c 0
 320.5 -57.833333 317.66667 -55 315 -51 c 1
 369 45 l 1
 361.66667 42.33333 354.3333 39.83333 347 37.5 c 0
 339.6667 35.16667 331.3333 32.66667 322 30 c 0
 312 26.66667 299.6667 25 285 25 c 0
 281.66667 24.333333 277 24.333333 271 25 c 0
 246.3333 27.66667 228.3333 31.66667 217 37 c 0
 199.6667 45.66667 183.6667 57.1667 169 71.5 c 0
 154.3333 85.8333 142 103 132 123 c 0
 121.3333 143.6667 113.6667 166.6667 109 192 c 0
 105 212.6667 103 235.3333 103 260 c 2
 103 279 l 2
 103 311.6667 111.33333 345.3333 128 380 c 0
 142 410.6667 160.6667 437.1667 184 459.5 c 0
 207.3333 481.8333 234.3333 499.3333 265 512 c 0
 295.6667 524.6667 328.3333 531 363 531 c 0
 382.3333 531 399 530 413 528 c 0
 427 526 439.6667 523.16667 451 519.5 c 0
 462.3333 515.83333 473.1667 511 483.5 505 c 0
 493.8333 499 505.3333 492 518 484 c 0
 527.33333 477.33333 537.1667 475.5 547.5 478.5 c 0
 557.8333 481.5 567.6667 486.66667 577 494 c 0
 580.33333 496.66667 583.5 500 586.5 504 c 0
 589.5 508 591.66667 511.66667 593 515 c 0
 595 519 596.33333 523 597 527 c 0
 601.66667 529 605.83333 530.33333 609.5 531 c 0
 613.16667 531.66667 617 530.333333 621 527 c 1
 621 236 l 1
 613.66667 229.33333 605.3333 229.33333 596 236 c 1
 592 262 l 2
 590 276 587.83333 294 585.5 316 c 0
 583.16667 338 576.33333 359.3333 565 380 c 0
 541 422.6667 514 454.5 484 475.5 c 0
 454 496.5 417.3333 507 374 507 c 0
 364 507 353.1667 505.33333 341.5 502 c 0
 329.8333 498.66667 318.8333 494 308.5 488 c 0
 298.1667 482 288.6667 474.6667 280 466 c 0
 271.33333 456.66667 265.3333 447 262 437 c 0
 254.66667 414.3333 249.6667 388 247 358 c 0
 245 334 244 310 244 286 c 2
 244 268 l 2
 244 242.6667 246 214.6667 250 184 c 0
 253.33333 158 257.33333 139 262 127 c 0
 264.66667 120.33333 268.83333 113 274.5 105 c 0
 280.16667 97 287.3333 90 296 84 c 0
 301.33333 80.66667 312 76.66667 328 72 c 0
 332.66667 70.66667 337.66667 70 343 70 c 0
 352.33333 70.666667 361.3333 72 370 74 c 0
 380.6667 76.66667 386.3333 78 387 78 c 2
 453 194 l 1
 465.6667 196 473.3333 192.66667 476 184 c 1
 422 90 l 1
 426 91.33333 430.33333 92.66667 435 94 c 0
 443 96 448.6667 97.66667 452 99 c 0
 467.3333 103.66667 488.6667 108.33333 516 113 c 0
 520 113.666667 523.66667 114 527 114 c 0
 548.3333 112 566 108 580 102 c 0
 606.6667 90.6667 629.1667 75.8333 647.5 57.5 c 0
 665.8333 39.1667 680.6667 18 692 -6 c 0
 703.3333 -30 711.3333 -56.3333 716 -85 c 0
 720.6667 -113.6667 723 -144 723 -176 c 0
EndSplineSet
EndChar

StartChar: uni0455
Encoding: 1109 1109 21
Width: 591
Flags: HW
LayerCount: 3
Fore
SplineSet
284 340 m 1x78
 277 343 279 346 276 352 c 1
 276 372 267 381 259 392 c 0
 254 399 244 401.997 229 401.997 c 0
 181 401.997 155 349 155 301 c 0
 155 267 165 252 184 237 c 0
 189 233 198 232 207 232 c 0
 224 232 244 236 253 239 c 1
 272 248 290 256 305 263 c 2
 358 287 l 2
 374 294 402 300 424 300 c 0
 480 300 508 271 529 233 c 0
 541 213 552 186 552 156 c 0
 552 119 540 102 526 79 c 1
 468 34 l 1
 452 20 433 8 414 -3 c 0
 409 -6 404 -7 398 -7 c 0xb8
 383 -7 365 -2 355 0 c 2
 326 8 l 1
 306 12 288 14.9971 266 17.9971 c 1
 192 17.9971 137 10 71 -4 c 0
 69 -5 66 -5 63 -5 c 0
 54 -5 45 -1 39 0 c 1
 36 4 32 9.9971 32 17.9971 c 0
 32 19.9971 32 23 33 25 c 1
 127 62 l 2
 162 75 199 87 239 96 c 0
 249 98 259 99 268 99 c 0
 304 99 341 91 370 84 c 2
 425 72 l 1
 432 75 445 91 449 96 c 1
 446 150 433 200 406 233 c 0
 397 244 382 250.997 363 250.997 c 0
 358 251.997 352 251 347 248 c 0
 332 242 318 236 305 230 c 2
 263 210 l 2
 224 191 162 159 110 156 c 1
 80 172 54.998 202 54.998 245 c 2
 55 250.997 l 2
 55 303.997 95 358 127 386 c 0
 159 415 206 443 260 443 c 0
 275 443 288 442 298 441 c 2
 335 436 l 1
 346 436 356 434 366 434 c 0
 378 434 389 435 399 440 c 0
 404 443 408 445 411 446 c 1
 420 442 425 435 427 425 c 1
 402 413 374 396 350 381 c 0
 329 367 306 354 284 340 c 1x78
EndSplineSet
Validated: 1
Layer: 2
SplineSet
414 -3 m 0
 407.33333 -7 399 -8 389 -6 c 0
 376.3333 -3.33333 365 -0.83333 355 1.5 c 0
 345 3.83333 335.3333 6 326 8 c 0
 316.6667 10 307.1667 11.83333 297.5 13.5 c 0
 287.8333 15.16667 277.3333 16.66667 266 18 c 0
 232 16.66667 199.6667 14.5 169 11.5 c 0
 138.3333 8.5 105.6667 3.33333 71 -4 c 0
 65 -5.33333 59 -5.33333 53 -4 c 0
 47 -2.66667 42.3333 -1.66667 39 -1 c 0
 36.33333 2.33333 34.33333 6.5 33 11.5 c 0
 31.66667 16.5 31.66667 21 33 25 c 0
 61 36.3333 92.3333 48.6667 127 62 c 0
 161.6667 75.3333 199 86.6667 239 96 c 0
 249 98 258.6667 99 268 99 c 0
 277.3333 99 287.6667 98.333333 299 97 c 0
 324.3333 93.66667 348 89.5 370 84.5 c 2
 425 72 l 2
 428.33333 73.33333 432.5 76.83333 437.5 82.5 c 0
 442.5 88.16667 446.33333 92.6667 449 96 c 0
 447.66667 119.3333 444 143.3333 438 168 c 0
 432 192.6667 421.3333 214.3333 406 233 c 0
 399.33333 241 390.3333 246.3333 379 249 c 0
 373.66667 250.33333 368.3333 251 363 251 c 0
 357.66667 251.666667 352.3333 250.666667 347 248 c 0
 332.3333 242 318.5 236 305.5 230 c 0
 292.5 224 278.3333 217.3333 263 210 c 0
 239.6667 198.6667 214.1667 187.1667 186.5 175.5 c 0
 158.8333 163.8333 133.3333 157.3333 110 156 c 1
 92.6667 165.33333 79 178 69 194 c 0
 59.66667 209.3333 55 226.3333 55 245 c 2
 55 252 l 2
 55 274.6667 62.66667 299.3333 78 326 c 0
 91.3333 348.6667 107.8333 368.8333 127.5 386.5 c 0
 147.1667 404.1667 168.6667 418 192 428 c 0
 215.3333 438 238 443 260 443 c 0
 275.3333 443 288 442.333333 298 441 c 0
 308 439.666667 320.3333 438 335 436 c 0
 346.3333 434.66667 355.8333 433.83333 363.5 433.5 c 0
 371.1667 433.16667 379 433.666667 387 435 c 0
 390.33333 436.33333 394.33333 438.16667 399 440.5 c 0
 403.66667 442.83333 407.66667 444.66667 411 446 c 0
 419.66667 442 425 435 427 425 c 1
 415.6667 419.66667 403.3333 413.1667 390 405.5 c 0
 376.6667 397.8333 363.5 389.8333 350.5 381.5 c 0
 337.5 373.1667 325.1667 365.3333 313.5 358 c 0
 301.8333 350.6667 292 344.6667 284 340 c 0
 280.66667 341.33333 278.83333 343 278.5 345 c 0
 278.16667 347 277.33333 349.33333 276 352 c 0
 276 355.33333 275.666667 359.16667 275 363.5 c 0
 274.333333 367.83333 273.33333 370.66667 272 372 c 0
 268 378.66667 263.5 385.3333 258.5 392 c 0
 253.5 398.6667 243.6667 402 229 402 c 0
 217.6667 402 207.5 398.83333 198.5 392.5 c 0
 189.5 386.16667 181.6667 378.1667 175 368.5 c 0
 168.3333 358.8333 163.3333 348 160 336 c 0
 156.6667 324 155 312.3333 155 301 c 0
 155 284.3333 157.5 271.3333 162.5 262 c 0
 167.5 252.66667 174.6667 244.3333 184 237 c 0
 187.33333 234.33333 192 232.83333 198 232.5 c 0
 204 232.16667 210.5 232.333333 217.5 233 c 0
 224.5 233.666667 231.1667 234.5 237.5 235.5 c 0
 243.8333 236.5 249 237.66667 253 239 c 0
 272.3333 248.33333 289.6667 256.3333 305 263 c 0
 320.3333 269.6667 338 277.6667 358 287 c 0
 367.33333 291 378.1667 294.16667 390.5 296.5 c 0
 402.8333 298.83333 414 300 424 300 c 0
 437.3333 300 447.8333 299 455.5 297 c 0
 463.1667 295 471.6667 291.33333 481 286 c 0
 489 281.33333 497.3333 274.3333 506 265 c 0
 514.66667 255.66667 522.3333 245.1667 529 233.5 c 0
 535.6667 221.8333 541.1667 209.3333 545.5 196 c 0
 549.8333 182.6667 552 169.3333 552 156 c 0
 552 138.6667 549.5 124.5 544.5 113.5 c 0
 539.5 102.5 533.3333 91 526 79 c 1
 504.6667 61.6667 485.5 46.5 468.5 33.5 c 0
 451.5 20.5 433.3333 8.3333 414 -3 c 0
EndSplineSet
EndChar

StartChar: uni0417
Encoding: 1047 1047 22
Width: 817
Flags: HW
LayerCount: 3
Fore
SplineSet
170 -388 m 0x70
 170 -420 198 -447 217 -461 c 1
 240 -461 l 1
 240 -486 l 1
 19 -486 l 1
 19 -461 l 1
 51 -461 l 1
 78 -427 110 -393 144 -366 c 2
 173 -343 l 1
 189 -329 204 -319 224 -308 c 2
 259 -289 l 2
 281 -278 300 -273 317 -273 c 0
 338 -273 358 -278 374 -285 c 0
 388 -291 405 -299 425 -309 c 0
 465 -330 505 -351 545 -372 c 0
 564 -381 579 -388 592 -393 c 1
 617 -377 634.014 -364 649.014 -339 c 1xb0
 649.014 -287 640 -229 628 -187 c 1
 605 -145 594 -108 559 -75 c 0
 542 -60 528 -47 516 -36 c 1
 482 0 l 1
 457 -16 433 -32 406 -42 c 1
 374 -37 359 -24 348 0 c 0
 344 8 339 16 332 27 c 1
 339 79 381 115 417 139 c 0
 431 149 445 157 458 164 c 1
 469 164 471 168 481 166 c 0
 484 165 490 164 498 163 c 1
 527 143 553 122 577 98 c 1
 581 101 584 105 588 109 c 1
 613 160 653.008 205 653.008 281 c 0
 653.008 375 621 448 559 483 c 0
 537 496 509 502.043 475 502.043 c 0
 363 502.043 312 445 297 350 c 0
 292 321 286 291 286 259 c 1
 255 256 239 253 212 253 c 0
 187 253 172 256 147 259 c 1
 152 315 164 351 185 391 c 1
 267 451 l 1
 339 506 416 531 546 531 c 0
 619 531 676 499 714 461 c 0
 746 429 777 380 777 323 c 0xa8
 777 247 725 202 693 156 c 1
 680 145 665.014 132 649.014 119 c 2
 597 78 l 1
 621 53 643 28 664 0 c 1
 728 -93 l 1
 744 -135 758 -172 758 -228 c 0
 758 -247 758 -275 747 -286 c 2
 694 -342 l 1
 649 -388 605 -426 544 -455 c 0
 532 -461 519 -464 504 -464 c 0
 492 -464 480 -461 468 -457 c 0
 420 -440 377 -418 336 -395 c 1
 278 -365 l 2
 259 -356 241 -348 223 -342 c 1
 196 -356 190 -363 170 -383 c 1
 170 -385 170 -386 170 -388 c 0x70
EndSplineSet
Validated: 1
Layer: 2
SplineSet
19 -486 m 1
 19 -461 l 1
 51 -461 l 1
 64.3333 -443.6667 78.8333 -426.8333 94.5 -410.5 c 0
 110.1667 -394.1667 126.6667 -379.3333 144 -366 c 0
 154.6667 -357.33333 164.1667 -349.6667 172.5 -343 c 0
 180.8333 -336.3333 189 -330.1667 197 -324.5 c 0
 205 -318.8333 213.8333 -313.3333 223.5 -308 c 0
 233.1667 -302.6667 245 -296.3333 259 -289 c 0
 280.8787 -278.0607 300.147 -272.591 316.805 -272.591 c 0
 319.435 -272.591 322 -272.727333 324.5 -273 c 0
 342.8333 -275 359.3333 -279 374 -285 c 0
 388 -291 404.8333 -299 424.5 -309 c 0
 444.1667 -319 464.3333 -329.5 485 -340.5 c 0
 505.6667 -351.5 525.5 -361.8333 544.5 -371.5 c 0
 563.5 -381.1667 579.3333 -388.3333 592 -393 c 1
 604.6667 -385 615.5 -377 624.5 -369 c 0
 633.5 -361 641.6667 -351 649 -339 c 1
 649 -331 648.5 -320.1667 647.5 -306.5 c 0
 646.5 -292.8333 645 -278.6667 643 -264 c 0
 641 -249.3333 638.66667 -235.1667 636 -221.5 c 0
 633.33333 -207.8333 630.66667 -196.3333 628 -187 c 0
 618 -168.3333 608.6667 -149.3333 600 -130 c 0
 591.33333 -110.6667 577.6667 -92.3333 559 -75 c 0
 542.3333 -60.3333 528 -47.1667 516 -35.5 c 0
 504 -23.8333 492.6667 -12.6667 482 -2 c 1
 467.3333 -11.33333 453.6667 -19.3333 441 -26 c 0
 428.3333 -32.66667 416.6667 -38 406 -42 c 1
 393.3333 -40 383.6667 -37.33333 377 -34 c 0
 370.33333 -30.66667 364.6667 -26.33333 360 -21 c 0
 355.3333 -15.66667 351.16667 -9.1667 347.5 -1.5 c 0
 343.83333 6.16667 338.66667 15.6667 332 27 c 1
 334 41.6667 339.16667 55.8333 347.5 69.5 c 0
 355.83333 83.1667 366 95.8333 378 107.5 c 0
 390 119.1667 403 129.8333 417 139.5 c 0
 431 149.1667 444.6667 157.3333 458 164 c 0
 463.33333 164.666667 466.83333 165.16667 468.5 165.5 c 2
 473.5 166.5 l 2
 475.16667 166.833333 477.66667 166.666667 481 166 c 0
 484.33333 165.333333 490 164.33333 498 163 c 0
 513.3333 152.3333 527.5 141.6667 540.5 131 c 0
 553.5 120.3333 565.6667 109.3333 577 98 c 0
 579 99.33333 580.83333 101 582.5 103 c 0
 584.16667 105 586 107 588 109 c 0
 593.33333 119.6667 599.8333 131.1667 607.5 143.5 c 0
 615.1667 155.8333 622.3333 169 629 183 c 0
 635.6667 197 641.3333 212 646 228 c 0
 650.6667 244 653 261.6667 653 281 c 0
 653 306.3333 650.16667 332.1667 644.5 358.5 c 0
 638.83333 384.8333 629 408.8333 615 430.5 c 0
 601 452.1667 582.3333 469.6667 559 483 c 0
 536.778 495.6987 508.8113 502.048 475.1 502.048 c 0
 473.414 502.048 471.714 502.032 470 502 c 0
 430.6667 501.333333 399.5 494.33333 376.5 481 c 0
 353.5 467.66667 335.6667 449.8333 323 427.5 c 0
 310.3333 405.1667 301.6667 379.5 297 350.5 c 0
 292.3333 321.5 288.66667 291 286 259 c 1
 267.3333 257 252.5 255.5 241.5 254.5 c 0
 230.5 253.5 220.5 253 211.5 253 c 0
 202.5 253 193.1667 253.5 183.5 254.5 c 0
 173.8333 255.5 161.6667 257 147 259 c 1
 148.33333 273 149.83333 285.3333 151.5 296 c 0
 153.16667 306.6667 155.33333 317 158 327 c 0
 160.66667 337 164.16667 347 168.5 357 c 0
 172.83333 367 178.33333 378.3333 185 391 c 1
 215.6667 413.6667 242.8333 433.8333 266.5 451.5 c 0
 290.1667 469.1667 314.6667 483.8333 340 495.5 c 0
 365.3333 507.1667 394.1667 516 426.5 522 c 0
 458.8333 528 498.6667 531 546 531 c 0
 580.6667 531 612.1667 524.5 640.5 511.5 c 0
 668.8333 498.5 693.1667 481.8333 713.5 461.5 c 0
 733.8333 441.1667 749.5 418.6667 760.5 394 c 0
 771.5 369.3333 777 345.6667 777 323 c 0
 777 305.6667 774.16667 289.3333 768.5 274 c 0
 762.83333 258.6667 755.6667 244.1667 747 230.5 c 0
 738.3333 216.8333 729.1667 203.8333 719.5 191.5 c 0
 709.8333 179.1667 701 167.3333 693 156 c 0
 680.3333 144.6667 665.8333 132.3333 649.5 119 c 0
 633.1667 105.6667 615.6667 92 597 78 c 1
 621 52.6667 643.3333 25.8333 664 -2.5 c 0
 684.6667 -30.8333 706 -61 728 -93 c 1
 734 -109 739.1667 -123.8333 743.5 -137.5 c 0
 747.83333 -151.1667 751.16667 -164.6667 753.5 -178 c 0
 755.83333 -191.3333 757.16667 -205 757.5 -219 c 0
 757.5666667 -221.8 757.6 -224.65333 757.6 -227.56 c 0
 757.6 -239.1867 757.066667 -251.6667 756 -265 c 0
 755.333333 -268.33333 754.16667 -272.16667 752.5 -276.5 c 0
 750.83333 -280.83333 749 -284 747 -286 c 0
 728.3333 -306.6667 710.8333 -325.3333 694.5 -342 c 0
 678.1667 -358.6667 662.1667 -373.8333 646.5 -387.5 c 0
 630.8333 -401.1667 614.6667 -413.5 598 -424.5 c 0
 581.3333 -435.5 563.3333 -445.6667 544 -455 c 0
 532.6667 -460.33333 520.3333 -463.16667 507 -463.5 c 0
 506.111333 -463.522 505.224 -463.533 504.338 -463.533 c 0
 491.9347 -463.533 479.822 -461.35533 468 -457 c 0
 443.3333 -448.33333 420.1667 -438.6667 398.5 -428 c 0
 376.8333 -417.3333 356 -406.5 336 -395.5 c 0
 316 -384.5 296.6667 -374.3333 278 -365 c 0
 259.3333 -355.6667 241 -348 223 -342 c 1
 209.6667 -348.66667 199.8333 -354.8333 193.5 -360.5 c 0
 187.1667 -366.1667 179.3333 -373.6667 170 -383 c 0
 169.847333 -384.75267 169.771 -386.494 169.771 -388.224 c 0
 169.771 -401.6367 174.34733 -414.3953 183.5 -426.5 c 0
 193.8333 -440.1667 205 -451.6667 217 -461 c 1
 240 -461 l 1
 240 -486 l 1
 19 -486 l 1
EndSplineSet
EndChar

StartChar: uni0437
Encoding: 1079 1079 23
Width: 556
Flags: HW
LayerCount: 3
Fore
SplineSet
351 179 m 1xe0
 392 202 427.998 232 427.998 291 c 0
 427.998 351 384 390 339 407 c 0
 322 413 305 416.001 288 416.001 c 0
 242 416.001 205 395 181 371 c 0
 165 355 157 334 148 312 c 0
 145 303 138 294 128 287 c 1
 113 284 101 282 90 282 c 2
 87 282 l 2
 76 282 65 284 56 285 c 1
 51 294 50 301 52 308 c 0
 75 383 154 421 237 436 c 0
 267 442 297 445 328 445 c 2
 335 445 l 2
 384 445 423 445 459 428 c 0
 491 414 527 376 527 331 c 0xd0
 527 290 521 267 497 246 c 0
 459 213 418 184 373 159 c 1
 403 128 428 90 446 46 c 1
 447 38 447 30 447 22 c 0
 447 -17 439 -59 423 -78 c 1
 389 -110 341 -137 297 -159 c 0
 271 -172 252 -181.992 219 -181.992 c 0
 207 -181.992 195 -180 182 -177 c 1
 174 -170 165 -163 154 -155 c 0
 128 -136 99 -114 72 -97 c 1
 55 -99 29 -103 13 -106 c 1
 8 -102 6 -96 6 -91 c 0
 6 -86 8 -81 11 -76 c 1
 28 -73 44 -72 61 -68 c 0
 91 -60 114 -50 142 -38 c 1
 150 -44 158 -51 167 -59 c 2
 194 -85 l 2
 212 -103 234 -121 258 -132 c 1
 263 -133 267 -133 269 -133 c 0
 307 -130 331 -115 344 -92 c 1
 350 -76 357.997 -45 357.997 -20 c 0
 357.997 -7 356 3 354 10 c 1
 337 48 305 86 276 110 c 1
 265 105 253 100 242 96 c 2
 211 85 l 1
 181 88 145 116 141 145 c 0
 141 148 142 150 145 152 c 0
 181 182 209 216 267 224 c 0
 274 225 280 223 285 221 c 0
 309 210 331 196 351 179 c 1xe0
EndSplineSet
Validated: 1
Layer: 2
SplineSet
527 331 m 0
 527 313.6667 525.33333 298 522 284 c 0
 518.66667 270 510.3333 257.3333 497 246 c 0
 477 228.6667 456.6667 212.8333 436 198.5 c 0
 415.3333 184.1667 394.3333 171 373 159 c 1
 387.6667 143.6667 401.1667 126.6667 413.5 108 c 0
 425.8333 89.3333 436.6667 68.6667 446 46 c 0
 446.666667 38 447 30 447 22 c 0
 447 5.3333 445.66667 -10.6667 443 -26 c 0
 439 -49.3333 432.3333 -66.6667 423 -78 c 0
 413 -87.33333 401 -96.8333 387 -106.5 c 0
 373 -116.1667 358.3333 -125.5 343 -134.5 c 0
 327.6667 -143.5 312.3333 -151.8333 297 -159.5 c 0
 281.6667 -167.1667 268 -173 256 -177 c 0
 244 -180.33333 231.8333 -182 219.5 -182 c 0
 207.1667 -182 194.6667 -180.33333 182 -177 c 1
 174 -170.33333 164.6667 -163 154 -155 c 0
 143.3333 -147 132.8333 -139.3333 122.5 -132 c 0
 112.1667 -124.66667 102.5 -117.8333 93.5 -111.5 c 0
 84.5 -105.1667 77.3333 -100.3333 72 -97 c 1
 62 -98.33333 51.5 -99.83333 40.5 -101.5 c 0
 29.5 -103.16667 20.3333 -104.66667 13 -106 c 0
 9 -102.66667 6.66667 -98.33333 6 -93 c 0
 5.333333 -87 7 -81.3333 11 -76 c 1
 18.33333 -74.66667 26.1667 -73.5 34.5 -72.5 c 0
 42.8333 -71.5 51.6667 -70 61 -68 c 0
 74.3333 -64.66667 87.3333 -60.5 100 -55.5 c 0
 112.6667 -50.5 126.6667 -44.6667 142 -38 c 1
 150 -44 158.3333 -51.1667 167 -59.5 c 0
 175.66667 -67.83333 184.6667 -76.5 194 -85.5 c 0
 203.3333 -94.5 213.3333 -103.1667 224 -111.5 c 0
 234.6667 -119.8333 246 -126.6667 258 -132 c 0
 263.33333 -132.666667 267 -133 269 -133 c 0
 285.6667 -131.66667 299 -128.66667 309 -124 c 0
 325 -115.33333 336.6667 -104.6667 344 -92 c 0
 348.66667 -79.3333 352.66667 -62.6667 356 -42 c 0
 357.33333 -34 358 -26.6667 358 -20 c 0
 357.333333 -7.3333 356 2.6667 354 10 c 0
 344.66667 30.6667 332.6667 49.6667 318 67 c 0
 303.3333 84.3333 289.3333 98.6667 276 110 c 1
 264.6667 104.66667 253.5 100 242.5 96 c 0
 231.5 92 221 88.33333 211 85 c 1
 197 86.33333 183.1667 92.16667 169.5 102.5 c 0
 155.8333 112.83333 147.3333 123.6667 144 135 c 0
 142.66667 138.33333 141.83333 141.5 141.5 144.5 c 0
 141.16667 147.5 142.333333 150 145 152 c 0
 156.3333 161.33333 167.6667 171.1667 179 181.5 c 0
 190.3333 191.8333 202.3333 200.6667 215 208 c 0
 222.33333 212 230.5 215.33333 239.5 218 c 0
 248.5 220.66667 257.6667 222.66667 267 224 c 0
 270.33333 224.666667 273.5 224.666667 276.5 224 c 0
 279.5 223.333333 282.33333 222.33333 285 221 c 0
 309 209.6667 331 195.6667 351 179 c 1
 375 192.3333 393.8333 207.8333 407.5 225.5 c 0
 421.1667 243.1667 428 265 428 291 c 0
 428 308.3333 424 324.6667 416 340 c 0
 408 355.3333 397.5 368.6667 384.5 380 c 0
 371.5 391.3333 356.5 400.1667 339.5 406.5 c 0
 322.5 412.8333 305.3333 416 288 416 c 0
 274.6667 416 261.3333 414 248 410 c 0
 234.6667 406 222.3333 400.66667 211 394 c 0
 199.6667 387.33333 189.6667 379.6667 181 371 c 0
 172.3333 362.3333 166 353.6667 162 345 c 0
 156.66667 333 152.16667 322.1667 148.5 312.5 c 0
 144.83333 302.8333 138 294.3333 128 287 c 1
 113.3333 283.66667 100.6667 282 90 282 c 2
 87 282 l 2
 75.6667 282.666667 65.3333 283.66667 56 285 c 1
 51.33333 293.66667 50 301.3333 52 308 c 0
 59.33333 331.3333 72 351.5 90 368.5 c 0
 108 385.5 129.5 399.6667 154.5 411 c 0
 179.5 422.3333 207 430.8333 237 436.5 c 0
 267 442.1667 297.3333 445 328 445 c 0
 351.3333 445 374 444.5 396 443.5 c 0
 418 442.5 439 437.33333 459 428 c 0
 477 420 492.8333 407.1667 506.5 389.5 c 0
 520.1667 371.8333 527 352.3333 527 331 c 0
EndSplineSet
EndChar

StartChar: uniA640
Encoding: 42560 42560 24
Width: 664
Flags: HW
LayerCount: 3
Fore
SplineSet
184 -42 m 0
 135 -42 90 -57 48 -62 c 1
 40 -59 l 1
 40 -44 40 -29 40 -14 c 0
 40 67 91 181 124 226 c 0
 159 274 179 301 182 306 c 0
 201 331 235 364 282 406 c 1
 249 483 l 1
 237 483 l 1
 233 488 230 495 230 503 c 0
 230 507 231 511 233 515 c 1
 563 547 l 1
 567 543 568 538 568 532 c 1
 458 466 l 1
 371 411 298 341 236 252 c 0
 198 197 174 137 164 57 c 0
 161 35 158 18 158 18 c 1
 184 25 260 28 303 28 c 0
 435 28 531 -20 578 -109 c 0
 595 -141 604 -181 604 -227 c 0
 604 -331 572 -414 530 -481 c 0
 507 -517 481 -550 452 -579 c 0
 448 -583 418 -608 360 -656 c 0
 359 -657 357 -658 354 -658 c 0
 346 -658 337 -650 342 -645 c 0
 410 -573 469 -511 491 -398 c 0
 497 -365 500 -328 500 -286 c 0
 500 -200 459 -142 407 -104 c 0
 353 -65 275 -42 184 -42 c 0
401 474 m 1
 422 484 444 494 465 504 c 1
 359 493 l 1
 374 458 l 1
 401 474 l 1
EndSplineSet
Validated: 1
Layer: 2
SplineSet
40.4004 -58.75 m 1
 40.4004 -38.9502 l 1
 40.4004 -13.6504 l 2
 40.4004 16.2845 47.36687 51.8513 61.2998 93.0496 c 0
 79.4916 149.5664 100.3917 193.8836 124 225.9996 c 0
 159.1807 273.8589 178.514 300.5256 182 305.9996 c 0
 201.3973 330.6443 234.7307 363.9776 282 405.9996 c 1
 249.4 483.2496 l 1
 237.3 482.1496 l 2
 233.63333 485.81627 231.25 490.9496 230.15 497.5496 c 0
 229.05 504.1496 229.966667 510.0163 232.9 515.1496 c 1
 562.9 547.0496 l 1
 566.56667 542.6496 568.4 537.51627 568.4 531.6496 c 1
 458 465.9996 l 2
 418 440.6663 378.6667 409.9996 340 373.9996 c 0
 304.082 340.1516 269.4153 299.4849 236 251.9996 c 0
 212.6013 218.7489 194.6013 182.0823 182 141.9996 c 0
 173.818 115.9736 167.6847 87.5569 163.6 56.7496 c 0
 160.79533 34.275 158.962 22.1751 158.1 20.4498 c 0
 157.366667 18.983 157.366667 18.2496 158.1 18.2496 c 0
 169.8333 21.1832 193.3 23.74993 228.5 25.9498 c 0
 251.9667 27.4166 276.9 28.15 303.3 28.15 c 0
 340.7 28.15 377.55 23.56667 413.85 14.4 c 0
 450.15 5.23333 482.2333 -9.4333 510.1 -29.6 c 0
 537.9667 -49.7667 560.5167 -76.1668 577.75 -108.8004 c 0
 594.9833 -141.4337 603.6 -180.8504 603.6 -227.0504 c 0
 603.6 -275.4504 597 -320.7337 583.8 -362.9004 c 0
 570.6 -405.0671 552.6333 -444.3004 529.9 -480.6004 c 0
 507.1667 -516.9004 481.1333 -549.7171 451.8 -579.0504 c 0
 448.13333 -582.71707 417.7 -608.3837 360.5 -656.0504 c 0
 356.1 -659.71707 351.15 -659.53373 345.65 -655.5004 c 0
 340.15 -651.46707 338.86667 -647.98373 341.8 -645.0504 c 0
 368.9333 -616.4504 392.5833 -589.6837 412.75 -564.7504 c 0
 432.9167 -539.8171 449.4167 -513.7837 462.25 -486.6504 c 0
 475.0833 -459.5171 484.6167 -429.8171 490.85 -397.5504 c 0
 497.08333 -365.2837 500.2 -328.2504 500.2 -286.4504 c 0
 500.2 -246.1171 491.76667 -210.7337 474.9 -180.3004 c 0
 458.0333 -149.8671 435.3 -124.3837 406.7 -103.8504 c 0
 378.1 -83.3169 344.7333 -67.9171 306.6 -57.6508 c 0
 268.4667 -47.3839 227.7667 -42.2504 184.5 -42.2504 c 0
 171.3 -42.2504 157.9167 -43.167067 144.35 -45.0004 c 0
 130.7833 -46.833733 117.7667 -48.85033 105.3 -51.0502 c 0
 92.8331 -53.25007 81.6497 -55.45027 71.75 -57.6508 c 0
 61.85027 -59.85067 53.9668 -61.31713 48.0996 -62.0502 c 2
 40.4004 -58.75 l 1
401 474 m 1
 428 487 l 1
 465 504.15 l 1
 359.4 493.15 l 1
 374 458 l 1
 401 474 l 1
EndSplineSet
EndChar

StartChar: uniA641
Encoding: 42561 42561 25
Width: 600
Flags: HW
LayerCount: 3
Fore
SplineSet
177 -7 m 0
 132 -7 91 -20 53 -25 c 1
 45.998 -22 l 1
 45.998 -8.33333333333 45.998 5.33333333333 45.998 19 c 0
 45.998 45 52 77 65 116 c 0
 83 170 130 218 172 253 c 0
 193 270 214 287 236 302 c 1
 236 398 l 1
 225 398 l 1
 221 402 218 408 218 416 c 0
 218 420 219 424 221 427 c 1
 521 456 l 1
 524 452 526 447 526 442 c 1
 435 387 l 2
 408 370 375 347 336 316 c 0
 286 277 248 242 222 211 c 0
 189 173 167 137 158 83 c 0
 155 65 153 54 153 50 c 0
 152 49 152 48 153 48 c 0
 177 54 246 57 285 57 c 0
 405 57 492 13 534 -68 c 0
 550 -97 558 -133 558 -175 c 0
 558 -270 529 -345 491 -406 c 0
 470 -439 447 -468 420 -495 c 0
 417 -498 389 -522 337 -565 c 0
 335 -566 334 -567 332 -567 c 0
 324 -567 315 -560 320 -555 c 0
 382 -490 436 -433 455 -330 c 0
 461 -301 463.999 -267 463.999 -229 c 0
 463.999 -150 427 -97 379 -63 c 0
 330 -28 259 -7 177 -7 c 0
336 366 m 1
 353 375 369 384 385 393 c 2
 432 417 l 1
 336 407 l 1
 336 366 l 1
EndSplineSet
Validated: 1
Layer: 2
SplineSet
46 -22 m 1
 46 -4 l 1
 46 19 l 2
 46 45 52.33333 77.3333 65 116 c 0
 74.33333 144.6667 91 172 115 198 c 0
 132.3333 217.3333 151.3333 235.6667 172 253 c 0
 192.6667 270.3333 214 286.6667 236 302 c 1
 236 398 l 1
 225 397 l 2
 221.66667 400.33333 219.5 405 218.5 411 c 0
 217.5 417 218.333333 422.3333 221 427 c 1
 521 456 l 1
 524.33333 452 526 447.33333 526 442 c 1
 435 387 l 2
 407.6667 370.3333 374.6667 346.6667 336 316 c 0
 286 276.6667 248 241.6667 222 211 c 0
 198.6667 183.6667 181.3333 155.3333 170 126 c 0
 164.66667 112.6667 160.66667 98.3333 158 83 c 0
 154.66667 65 153 54 153 50 c 0
 152.333333 48.66667 152.333333 48 153 48 c 0
 163.6667 50.66667 185 53 217 55 c 0
 238.3333 56.33333 261 57 285 57 c 0
 319 57 352.5 52.83333 385.5 44.5 c 0
 418.5 36.16667 447.6667 22.8333 473 4.5 c 0
 498.3333 -13.8333 518.8333 -37.8333 534.5 -67.5 c 0
 550.1667 -97.1667 558 -133 558 -175 c 0
 558 -219 552 -260.1667 540 -298.5 c 0
 528 -336.8333 511.6667 -372.5 491 -405.5 c 0
 470.3333 -438.5 446.6667 -468.3333 420 -495 c 0
 416.66667 -498.33333 389 -521.6667 337 -565 c 0
 333 -568.33333 328.5 -568.16667 323.5 -564.5 c 0
 318.5 -560.83333 317.33333 -557.66667 320 -555 c 0
 344.6667 -529 366.1667 -504.6667 384.5 -482 c 0
 402.8333 -459.3333 417.8333 -435.6667 429.5 -411 c 0
 441.1667 -386.3333 449.8333 -359.3333 455.5 -330 c 0
 461.1667 -300.6667 464 -267 464 -229 c 0
 464 -192.3333 456.33333 -160.1667 441 -132.5 c 0
 425.6667 -104.8333 405 -81.6667 379 -63 c 0
 353 -44.3333 322.6667 -30.3333 288 -21 c 0
 253.3333 -11.66667 216.3333 -7 177 -7 c 0
 165 -7 152.8333 -7.833333 140.5 -9.5 c 0
 128.1667 -11.16667 116.3333 -13 105 -15 c 0
 93.6667 -17 83.5 -19 74.5 -21 c 0
 65.5 -23 58.3333 -24.33333 53 -25 c 2
 46 -22 l 1
340 368 m 1
 385 393 l 1
 432 417 l 1
 336 407 l 1
 336 366 l 1
 340 368 l 1
EndSplineSet
AlternateSubs2: "'salt' Stylistic Alternatives lookup 2-1" uniA641.salt
EndChar

StartChar: uni0418
Encoding: 1048 1048 26
Width: 712
Flags: HW
LayerCount: 3
Fore
SplineSet
259 495 m 1xd0
 253 97 l 1
 467 208 l 1
 465 495 l 1
 410 495 l 1
 410 519.998 l 1
 635 519.998 l 1
 635 495 l 1
 580 495 l 1xd8
 598 -430 l 1
 654 -430 l 1
 654 -455 l 1
 417 -455 l 1
 417 -430 l 1
 472 -430 l 1xc4
 467 179 l 1
 253 68 l 1xd8
 245 -430 l 1
 300 -430 l 1
 300 -455 l 1
 58 -455 l 1
 58 -430 l 1
 113 -430 l 1xe0
 139 495 l 1
 85 495 l 1
 85 519.998 l 1
 315 519.998 l 1
 315 495 l 1
 259 495 l 1xd0
EndSplineSet
Validated: 1
Layer: 2
SplineSet
259 495 m 1
 253 97 l 1
 467 208 l 1
 465 495 l 1
 410 495 l 1
 410 520 l 1
 635 520 l 1
 635 495 l 1
 580 495 l 1
 598 -430 l 1
 654 -430 l 1
 654 -455 l 1
 417 -455 l 1
 417 -430 l 1
 472 -430 l 1
 467 179 l 1
 253 68 l 1
 245 -430 l 1
 300 -430 l 1
 300 -455 l 1
 58 -455 l 1
 58 -430 l 1
 113 -430 l 1
 139 495 l 1
 85 495 l 1
 85 520 l 1
 315 520 l 1
 315 495 l 1
 259 495 l 1
EndSplineSet
EndChar

StartChar: uni0438
Encoding: 1080 1080 27
Width: 460
Flags: HW
LayerCount: 3
Fore
SplineSet
392 109 m 0xe8
 392 74 396 22 399 -0 c 1
 377 -3 359 -4 346 -4 c 2
 340 -4 l 2
 323 -4 306.998 -3 291.998 -0 c 1xf0
 291.998 38 291.998 76 291.998 114 c 0
 291.998 151 294 197 299 251 c 1
 168 209 l 1
 159 143 149 68 146 -0 c 1
 122 -3 106 -4 98 -4 c 2
 93 -4 l 2
 80 -4 64 -3 47 -0 c 1
 46 9 46 18 46 28 c 0
 46 63 53 123 56 148 c 0
 60 189 78 292 84 314 c 2
 101 382 l 2
 106 401 111 416 116 428 c 1
 144 437 186 443 222 443 c 1
 198 394 185 310 173 241 c 1
 302 283 l 1
 308 335 316 388 332 428 c 1
 359 435 406 443 438 443 c 0
 440 443 445 441 445 438 c 0
 445 437 445 437 444 436 c 0
 432 421 423 401 418 378 c 0
 402 294 392 210 392 109 c 0xe8
EndSplineSet
Validated: 1
Layer: 2
SplineSet
222 443 m 1
 212.66667 423.6667 204 395.8333 196 359.5 c 0
 188 323.1667 180.3333 283.6667 173 241 c 1
 302 283 l 1
 305.33333 311.6667 309.33333 338.5 314 363.5 c 0
 318.66667 388.5 324.6667 410 332 428 c 1
 349.3333 432.66667 368.1667 436.33333 388.5 439 c 0
 408.8333 441.66667 425.3333 443 438 443 c 0
 440 443 441.83333 442.166667 443.5 440.5 c 0
 445.16667 438.833333 445.33333 437.33333 444 436 c 0
 432 420.6667 423.3333 401.3333 418 378 c 0
 414 356.6667 410.5 337.1667 407.5 319.5 c 0
 404.5 301.8333 402 284.1667 400 266.5 c 0
 398 248.8333 396.5 230.8333 395.5 212.5 c 0
 394.5 194.1667 393.66667 174 393 152 c 0
 392.333333 137.3333 392 123 392 109 c 0
 392 95.6667 392.333333 82.6667 393 70 c 0
 395 39.3333 397 16 399 0 c 1
 377 -2.66667 359.3333 -4 346 -4 c 2
 340 -4 l 2
 323.3333 -4 307.3333 -2.66667 292 0 c 1
 292 52 l 1
 292 114 l 2
 292 151.3333 294.33333 197 299 251 c 1
 168 209 l 1
 162.66667 171.6667 158 135 154 99 c 0
 150 63 147.33333 30 146 0 c 1
 122 -2.66667 106 -4 98 -4 c 2
 93 -4 l 2
 79.6667 -4 64.3333 -2.66667 47 0 c 1
 46.333333 8.66667 46 18 46 28 c 0
 46 38 46.666667 51.3333 48 68 c 0
 50.66667 101.3333 53.33333 128 56 148 c 0
 58.66667 176 62.66667 204.3333 68 233 c 0
 76 277.6667 81.3333 304.6667 84 314 c 0
 90.66667 341.3333 96.3333 364 101 382 c 0
 105.66667 400.6667 110.66667 416 116 428 c 1
 131.3333 432.66667 148.5 436.33333 167.5 439 c 0
 186.5 441.66667 204.6667 443 222 443 c 1
EndSplineSet
EndChar

StartChar: uni0406
Encoding: 1030 1030 28
Width: 358
Flags: HW
LayerCount: 3
Fore
SplineSet
58 -455 m 1xe0
 58 -430 l 1
 113 -430 l 1xe0
 139 495 l 1
 85 495 l 1
 85 519.998 l 1
 315 519.998 l 1
 315 495 l 1
 259 495 l 1xd0
 245 -430 l 1
 300 -430 l 1
 300 -455 l 1
 58 -455 l 1xe0
EndSplineSet
Validated: 1
Layer: 2
SplineSet
58 -455 m 1
 58 -430 l 1
 113 -430 l 1
 139 495 l 1
 85 495 l 1
 85 520 l 1
 315 520 l 1
 315 495 l 1
 259 495 l 1
 245 -430 l 1
 300 -430 l 1
 300 -455 l 1
 58 -455 l 1
EndSplineSet
EndChar

StartChar: uni0456
Encoding: 1110 1110 29
Width: 260
Flags: HW
LayerCount: 3
Fore
SplineSet
81 220 m 0
 86.5457553589 274.348402517 102.172516325 363.862581623 115 428 c 1
 144 436 195 442 229 445 c 1
 230 438 l 1
 212 402 202 360 195 325 c 0
 185 267 173 167 173 97 c 0
 173 66 174 33 176 -0 c 1
 169.667 -0.333333 163.667 -0.444444 158 -0.444444 c 0
 146.667 -0.444444 136.667 0 128 0 c 2
 62.999 -0 l 1
 62.999 55 69 89 69 104 c 0
 69 180 80 219 81 220 c 0
EndSplineSet
Validated: 1
Layer: 2
SplineSet
107 390 m 0
 111 410.6667 113.66667 423.3333 115 428 c 1
 131 432.66667 149.8333 436.33333 171.5 439 c 0
 193.1667 441.66667 212.3333 443.66667 229 445 c 1
 230 438 l 1
 227 432 l 2
 212.3333 394.6667 201.8333 359 195.5 325 c 0
 189.1667 291 183.6667 251 179 205 c 0
 175 165 173 129.1667 173 97.5 c 0
 173 65.8333 174 33.3333 176 0 c 1
 156.6667 -1.33333 140.6667 -2 128 -2 c 2
 118 -2 l 2
 98.6667 -2 80.3333 -1.333333 63 0 c 1
 65 54.6667 67 89.3333 69 104 c 0
 76.33333 180 80.3333 218.667 81 220 c 0
 85.66667 268.6667 94.3333 325.333 107 390 c 0
EndSplineSet
EndChar

StartChar: uni0419
Encoding: 1049 1049 30
Width: 712
Flags: HW
LayerCount: 3
Fore
SplineSet
259 495 m 1xec
 253 97 l 1
 467 208 l 1
 465 495 l 1
 410 495 l 1
 410 519.998 l 1
 635 519.998 l 1
 635 495 l 1
 580 495 l 1xee
 598 -430 l 1
 654 -430 l 1
 654 -455 l 1
 417 -455 l 1
 417 -430 l 1
 472 -430 l 1xe5
 467 179 l 1
 253 68 l 1xee
 245 -430 l 1
 300 -430 l 1
 300 -455 l 1
 58 -455 l 1
 58 -430 l 1
 113 -430 l 1xf4
 139 495 l 1
 85 495 l 1
 85 519.998 l 1
 315 519.998 l 1
 315 495 l 1
 259 495 l 1xec
416 717 m 0
 416 706.684286444 422.615641774 700 434 700 c 0
 447 700 464 707 472 710 c 0xe5
 487 716 506 726 521 730 c 0
 527 732 533 727 533 721 c 0
 533 719 533 717 531 715 c 0
 504 681 486 668 448 647 c 0
 419 630 396 624.001 355 624.001 c 0
 328 624.001 300 645 300 672 c 0
 300 706 315 733 346 753 c 0
 377 774 422 802 467 802 c 0
 472 802 480 793 474 789 c 0
 457 776 441 763 429 747 c 0
 424 741 416 728 416 717 c 0
EndSplineSet
Validated: 1
Layer: 2
SplineSet
259 495 m 1
 253 97 l 1
 467 208 l 1
 465 495 l 1
 410 495 l 1
 410 520 l 1
 635 520 l 1
 635 495 l 1
 580 495 l 1
 598 -430 l 1
 654 -430 l 1
 654 -455 l 1
 417 -455 l 1
 417 -430 l 1
 472 -430 l 1
 467 179 l 1
 253 68 l 1
 245 -430 l 1
 300 -430 l 1
 300 -455 l 1
 58 -455 l 1
 58 -430 l 1
 113 -430 l 1
 139 495 l 1
 85 495 l 1
 85 520 l 1
 315 520 l 1
 315 495 l 1
 259 495 l 1
466 802 m 0
 469.33333 802.666667 472 801 474 797 c 0
 476 793 476 790.33333 474 789 c 0
 464.66667 781.66667 456.1667 774.6667 448.5 768 c 0
 440.8333 761.3333 434.3333 754.3333 429 747 c 0
 423.66667 741 419.66667 733.6667 417 725 c 0
 414.33333 716.3333 415.66667 709.3333 421 704 c 0
 425.66667 699.33333 433.1667 698.33333 443.5 701 c 0
 453.8333 703.66667 463.3333 706.66667 472 710 c 0
 480.6667 713.33333 489.3333 717 498 721 c 0
 506.6667 725 514.3333 728 521 730 c 0
 525.66667 731.33333 529.16667 730 531.5 726 c 0
 533.83333 722 533.66667 718.33333 531 715 c 0
 517.6667 698.3333 505 685.3333 493 676 c 0
 481 666.6667 466 657 448 647 c 0
 432 637.66667 416.8333 631.5 402.5 628.5 c 0
 388.1667 625.5 372.3333 624 355 624 c 0
 341 624 328.3333 628.66667 317 638 c 0
 305.6667 647.33333 300 658.6667 300 672 c 0
 300 706 315.3333 733 346 753 c 0
 365.3333 766.3333 384.8333 777 404.5 785 c 0
 424.1667 793 444.6667 798.6667 466 802 c 0
EndSplineSet
Ligature2: "'ccmp' Glyph Composition/Decomposition lookup 0-1" uni0418 uni0306
EndChar

StartChar: uni0439
Encoding: 1081 1081 31
Width: 460
Flags: HW
LayerCount: 3
Fore
SplineSet
392 109 m 0xf2
 392 74 396 22 399 -0 c 1
 377 -3 359 -4 346 -4 c 2
 340 -4 l 2
 323 -4 306.998 -3 291.998 -0 c 1xf4
 291.998 38 291.998 76 291.998 114 c 0xf2
 291.998 151 299 197 299 251 c 1
 168 209 l 1
 159 143 149 68 146 -0 c 1
 122 -3 106 -4 98 -4 c 2
 93 -4 l 2
 80 -4 62.999 -3 45.999 -0 c 1
 44.999 9 45.999 18 45.999 28 c 0
 45.999 63 53 123 56 148 c 0
 60 189 78 292 84 314 c 2
 101 382 l 2
 106 401 111 416 116 428 c 1
 144 437 183.998 443 219.998 443 c 1xf8
 195.998 394 185 310 173 241 c 1
 302 283 l 1
 308 335 316 388 332 428 c 1
 359 435 406 443 438 443 c 0
 440 443 447 439 444 436 c 0
 432 421 423 401 418 378 c 0
 402 294 392 210 392 109 c 0xf2
336 737 m 0xf8
 336 726.684286444 342.615641774 720 354 720 c 0
 367 720 384 727 392 730 c 0xf2
 407 736 426 746 441 750 c 0
 447 752 453 747 453 741 c 0
 453 739 453 737 451 735 c 0
 424 701 406 688 368 667 c 0
 339 650 316 643.998 275 643.998 c 0
 248 643.998 219.998 665 219.998 692 c 0
 219.998 726 235 753 266 773 c 0
 297 794 341 822 386 822 c 0
 391 822 400 813 394 809 c 0
 377 796 361 783 349 767 c 0
 344 761 336 748 336 737 c 0xf8
EndSplineSet
Validated: 1
Layer: 2
SplineSet
222 443 m 1
 212.66667 423.6667 204 395.8333 196 359.5 c 0
 188 323.1667 180.3333 283.6667 173 241 c 1
 302 283 l 1
 305.33333 311.6667 309.33333 338.5 314 363.5 c 0
 318.66667 388.5 324.6667 410 332 428 c 1
 349.3333 432.66667 368.1667 436.33333 388.5 439 c 0
 408.8333 441.66667 425.3333 443 438 443 c 0
 440 443 441.83333 442.166667 443.5 440.5 c 0
 445.16667 438.833333 445.33333 437.33333 444 436 c 0
 432 420.6667 423.3333 401.3333 418 378 c 0
 414 356.6667 410.5 337.1667 407.5 319.5 c 0
 404.5 301.8333 402 284.1667 400 266.5 c 0
 398 248.8333 396.5 230.8333 395.5 212.5 c 0
 394.5 194.1667 393.66667 174 393 152 c 0
 392.333333 137.3333 392 123 392 109 c 0
 392 95.6667 392.333333 82.6667 393 70 c 0
 395 39.3333 397 16 399 0 c 1
 377 -2.66667 359.3333 -4 346 -4 c 2
 340 -4 l 2
 323.3333 -4 307.3333 -2.66667 292 0 c 1
 292 52 l 1
 292 114 l 2
 292 151.3333 294.33333 197 299 251 c 1
 168 209 l 1
 162.66667 171.6667 158 135 154 99 c 0
 150 63 147.33333 30 146 0 c 1
 122 -2.66667 106 -4 98 -4 c 2
 93 -4 l 2
 79.6667 -4 64.3333 -2.66667 47 0 c 1
 46.333333 8.66667 46 18 46 28 c 0
 46 38 46.666667 51.3333 48 68 c 0
 50.66667 101.3333 53.33333 128 56 148 c 0
 58.66667 176 62.66667 204.3333 68 233 c 0
 76 277.6667 81.3333 304.6667 84 314 c 0
 90.66667 341.3333 96.3333 364 101 382 c 0
 105.66667 400.6667 110.66667 416 116 428 c 1
 131.3333 432.66667 148.5 436.33333 167.5 439 c 0
 186.5 441.66667 204.6667 443 222 443 c 1
386 822 m 0
 389.33333 822.666667 392 821 394 817 c 0
 396 813 396 810.33333 394 809 c 0
 384.66667 801.66667 376.1667 794.6667 368.5 788 c 0
 360.8333 781.3333 354.3333 774.3333 349 767 c 0
 343.66667 761 339.66667 753.6667 337 745 c 0
 334.33333 736.3333 335.66667 729.3333 341 724 c 0
 345.66667 719.33333 353.1667 718.33333 363.5 721 c 0
 373.8333 723.66667 383.3333 726.66667 392 730 c 0
 400.6667 733.33333 409.3333 737 418 741 c 0
 426.6667 745 434.3333 748 441 750 c 0
 445.66667 751.33333 449.16667 750 451.5 746 c 0
 453.83333 742 453.66667 738.33333 451 735 c 0
 437.6667 718.3333 425 705.3333 413 696 c 0
 401 686.6667 386 677 368 667 c 0
 352 657.66667 336.8333 651.5 322.5 648.5 c 0
 308.1667 645.5 292.3333 644 275 644 c 0
 261 644 248.3333 648.66667 237 658 c 0
 225.6667 667.33333 220 678.6667 220 692 c 0
 220 726 235.3333 753 266 773 c 0
 285.3333 786.3333 304.8333 797 324.5 805 c 0
 344.1667 813 364.6667 818.6667 386 822 c 0
EndSplineSet
Ligature2: "'ccmp' Glyph Composition/Decomposition lookup 0-1" uni0438 uni0306
EndChar

StartChar: uni0407
Encoding: 1031 1031 32
Width: 358
Flags: HW
LayerCount: 3
Fore
SplineSet
171 650 m 1xe0
 71 650 l 1
 18 771 l 1
 18 780 l 1
 118 780 l 1
 171 659 l 1
 171 650 l 1xe0
341 650 m 1
 241 650 l 1
 188 771 l 1
 188 780 l 1
 288 780 l 1
 341 659 l 1
 341 650 l 1
58 -455 m 1
 58 -430 l 1
 113 -430 l 1xf0
 139 495 l 1
 85 495 l 1
 85 519.998 l 1
 315 519.998 l 1
 315 495 l 1
 259 495 l 1xe8
 245 -430 l 1xf0
 300 -430 l 1
 300 -455 l 1
 58 -455 l 1
EndSplineSet
Validated: 1
Layer: 2
SplineSet
171 650 m 1
 71 650 l 1
 18 771 l 1
 18 780 l 1
 118 780 l 1
 171 659 l 1
 171 650 l 1
341 650 m 1
 241 650 l 1
 188 771 l 1
 188 780 l 1
 288 780 l 1
 341 659 l 1
 341 650 l 1
58 -455 m 1
 58 -430 l 1
 113 -430 l 1
 139 495 l 1
 85 495 l 1
 85 520 l 1
 315 520 l 1
 315 495 l 1
 259 495 l 1
 245 -430 l 1
 300 -430 l 1
 300 -455 l 1
 58 -455 l 1
EndSplineSet
Ligature2: "'ccmp' Glyph Composition/Decomposition lookup 0-1" uni0406 dieresis
EndChar

StartChar: uni0457
Encoding: 1111 1111 33
Width: 260
Flags: HW
LayerCount: 3
Fore
SplineSet
161 580 m 1
 61 580 l 1
 8 701 l 1
 8 710 l 1
 108 710 l 1
 161 589 l 1
 161 580 l 1
331 580 m 1
 231 580 l 1
 178 701 l 1
 178 710 l 1
 278 710 l 1
 331 589 l 1
 331 580 l 1
69 104 m 0
 83.6701769721 263.276207125 86.7206152282 286.603076141 115 428 c 1
 144 436 195 442 229 445 c 1
 230 438 l 1
 212 402 202 360 195 325 c 0
 185 267 173 167 173 97 c 0
 173 66 174 33 176 -0 c 1
 63 -0 l 1
 63 55 67 89 69 104 c 0
EndSplineSet
Validated: 1
Layer: 2
SplineSet
161 580 m 1
 61 580 l 1
 8 701 l 1
 8 710 l 1
 108 710 l 1
 161 589 l 1
 161 580 l 1
331 580 m 1
 231 580 l 1
 178 701 l 1
 178 710 l 1
 278 710 l 1
 331 589 l 1
 331 580 l 1
107 390 m 0
 111 410.6667 113.66667 423.3333 115 428 c 1
 131 432.66667 149.8333 436.33333 171.5 439 c 0
 193.1667 441.66667 212.3333 443.66667 229 445 c 1
 230 438 l 1
 227 432 l 2
 212.3333 394.6667 201.8333 359 195.5 325 c 0
 189.1667 291 183.6667 251 179 205 c 0
 175 165 173 129.1667 173 97.5 c 0
 173 65.8333 174 33.3333 176 0 c 1
 156.6667 -1.33333 140.6667 -2 128 -2 c 2
 118 -2 l 2
 98.6667 -2 80.3333 -1.333333 63 0 c 1
 65 54.6667 67 89.3333 69 104 c 0
 76.33333 180 80.3333 218.667 81 220 c 0
 85.66667 268.6667 94.3333 325.333 107 390 c 0
EndSplineSet
Ligature2: "'ccmp' Glyph Composition/Decomposition lookup 0-1" uni0456 dieresis
EndChar

StartChar: uni041A
Encoding: 1050 1050 34
Width: 663
Flags: HW
LayerCount: 3
Fore
SplineSet
75 -455 m 1xe0
 75 -430 l 1
 129.997 -430 l 1xe0
 156 494.999 l 1
 102 494.999 l 1
 102 519.998 l 1
 332 519.998 l 1
 332 494.999 l 1
 276 494.999 l 1
 270 93 l 1
 328 137 362 198 391 272 c 0
 415 334 420 413.999 424 494.999 c 1
 374 494.999 l 1
 374 519.998 l 1
 603 519.998 l 1
 603 494.999 l 1
 557 494.999 l 1xd8
 544 401.999 519 321 471 251 c 0
 426 183 357 116 290 75 c 1
 345 61 397 32 431 -5 c 0
 484 -64 521 -131 545 -217 c 0
 563.684326718 -280.239259662 582 -352.54110361 582 -430 c 1
 630 -430 l 1
 630 -455 l 1
 395 -455 l 1
 395 -430 l 1
 447 -430 l 1
 447 -410 447 -390 447 -371 c 0
 447 -352 444 -330 441 -305 c 0
 425 -177 400 -48 326 19 c 0
 310 33 291 44 270 51 c 1xd4
 262 -430 l 1
 317 -430 l 1
 317 -455 l 1
 75 -455 l 1xe0
EndSplineSet
Validated: 1
Layer: 2
SplineSet
75 -455 m 1
 75 -430 l 1
 130 -430 l 1
 156 495 l 1
 102 495 l 1
 102 520 l 1
 332 520 l 1
 332 495 l 1
 276 495 l 1
 270 93 l 1
 298 114.3333 321.5 140 340.5 170 c 0
 359.5 200 376.3333 234 391 272 c 0
 397.66667 289.3333 403 307.8333 407 327.5 c 0
 411 347.1667 414.16667 367 416.5 387 c 0
 418.83333 407 420.5 426.3333 421.5 445 c 0
 422.5 463.6667 423.33333 480.3333 424 495 c 1
 374 495 l 1
 374 520 l 1
 603 520 l 1
 603 495 l 1
 557 495 l 1
 551.66667 458.3333 543 418.8333 531 376.5 c 0
 519 334.1667 499 292.3333 471 251 c 0
 445.6667 213 416.6667 178.8333 384 148.5 c 0
 351.3333 118.1667 320 93.6667 290 75 c 1
 316.6667 68.33333 342.3333 58.1667 367 44.5 c 0
 391.6667 30.8333 413 14.3333 431 -5 c 0
 450.3333 -26.3333 467 -48 481 -70 c 0
 495 -92 507.3333 -115.1667 518 -139.5 c 0
 528.6667 -163.8333 537.8333 -189.6667 545.5 -217 c 0
 553.1667 -244.3333 560.3333 -273.6667 567 -305 c 0
 572.33333 -329 575.83333 -350.8333 577.5 -370.5 c 0
 579.16667 -390.1667 580.66667 -410 582 -430 c 1
 630 -430 l 1
 630 -455 l 1
 395 -455 l 1
 395 -430 l 1
 447 -430 l 1
 446.333333 -410 446 -390.3333 446 -371 c 0
 446 -351.6667 444.33333 -329.6667 441 -305 c 0
 434.33333 -253 425.5 -203 414.5 -155 c 0
 403.5 -107 388.3333 -67 369 -35 c 0
 356.3333 -13.6667 342 4.1667 326 18.5 c 0
 310 32.8333 291.3333 43.6667 270 51 c 1
 262 -430 l 1
 317 -430 l 1
 317 -455 l 1
 75 -455 l 1
EndSplineSet
EndChar

StartChar: uni041B
Encoding: 1051 1051 35
Width: 644
Flags: HW
LayerCount: 3
Fore
SplineSet
52 -454.999 m 1xf0
 52 -430 l 1
 104 -430 l 1
 112 -321 146 -215 192 -131 c 0
 209 -99 226 -69 242 -42 c 2
 289 37 l 2
 336.502801001 118.214466228 381.005781595 204.10172393 388.999 324 c 1
 382 495.001 l 1
 327 495.001 l 1
 327 519.998 l 1
 552 519.998 l 1
 552 495.001 l 1
 498 495.001 l 1xf0
 529 -430 l 1
 585 -430 l 1
 585 -454.999 l 1
 348 -454.999 l 1
 348 -430 l 1
 401.999 -430 l 1xe8
 388.999 169 l 1
 387.999 162 386 156 385 150 c 2
 381 134 l 2
 369 89 355 43 340 -4 c 2
 293 -147 l 1
 265 -236 244 -330 237 -430 c 1
 289 -430 l 1
 289 -454.999 l 1
 52 -454.999 l 1xf0
EndSplineSet
Validated: 1
Layer: 2
SplineSet
52 -455 m 1
 52 -430 l 1
 104 -430 l 1
 107.33333 -386 116 -337.8333 130 -285.5 c 0
 144 -233.1667 164.6667 -181.667 192 -131 c 0
 209.3333 -99 226.1667 -69.5 242.5 -42.5 c 0
 258.8333 -15.5 274.5 11 289.5 37 c 0
 304.5 63 318.5 89.5 331.5 116.5 c 0
 344.5 143.5 356.3333 172.6667 367 204 c 0
 374.33333 224.6667 379 245 381 265 c 0
 383 285 384.66667 304.6667 386 324 c 2
 382 495 l 1
 327 495 l 1
 327 520 l 1
 552 520 l 1
 552 495 l 1
 498 495 l 1
 529 -430 l 1
 585 -430 l 1
 585 -455 l 1
 348 -455 l 1
 348 -430 l 1
 402 -430 l 1
 389 169 l 1
 387.66667 162.33333 386.33333 156.1667 385 150.5 c 0
 383.66667 144.8333 382.33333 139.3333 381 134 c 0
 369 89.3333 355.1667 43.3333 339.5 -4 c 0
 323.8333 -51.3333 308.3333 -99 293 -147 c 0
 276.3333 -199 263.5 -249 254.5 -297 c 0
 245.5 -345 239.6667 -389.3333 237 -430 c 1
 289 -430 l 1
 289 -455 l 1
 52 -455 l 1
EndSplineSet
EndChar

StartChar: uni043A
Encoding: 1082 1082 36
Width: 514
Flags: HW
LayerCount: 3
Fore
SplineSet
159 117 m 0
 159 84 160 30 163 -0 c 1
 147 -3 131 -4 115 -4 c 2
 109 -4 l 2
 91 -4 73.0002 -2 60.0002 0 c 1
 59.0002 8.66667 58.6668 18 58.6668 27.7407 c 0
 58.6668 47.2222 60.0002 68.3333 60.0002 89 c 2
 60.0002 97 l 2
 60.0002 192 70 284 83 364 c 0
 87 389 91 409 95 426 c 1
 126 437 159 445 200 445 c 1
 183 378 171 294 164 215 c 0
 160 182 159 149 159 117 c 0
501 445 m 0
 503 445 504 443 504 441 c 0
 504 440 504 439 503 438 c 2
 454 377 l 2
 441 360 428 346 416 335 c 0
 412 331 400 347 396 350 c 0
 383 362 368 374 352 382 c 1
 315 353 282 304 265 256 c 1
 278 256 290 257 303 257 c 0
 316 257 326 256 332 255 c 1
 368 207 394 137 409 69 c 0
 415 44 420 21 420 0 c 1
 403 -2 385 -3 368 -3 c 0
 351 -3 332.999 -2 314.999 0 c 1
 305.999 76 286 148 250 210 c 1
 239 228 l 2
 235 235 232 242 231 247 c 1
 231 255 l 1
 259.782288865 319.41750365 299.658159851 383.37872605 354 421 c 1
 368 428 397 432 418 435 c 0
 443 439 477 445 501 445 c 0
EndSplineSet
Validated: 1
Layer: 2
SplineSet
200 445 m 1
 196.66667 431.6667 192.83333 413.1667 188.5 389.5 c 0
 184.16667 365.8333 179.66667 339.1667 175 309.5 c 0
 170.33333 279.8333 166.5 248.3333 163.5 215 c 0
 160.5 181.6667 159 149 159 117 c 0
 159 99 159.333333 78.8333 160 56.5 c 0
 160.666667 34.1667 161.66667 15.3333 163 0 c 1
 147 -2.66667 131 -4 115 -4 c 2
 109 -4 l 2
 91 -3.333333 75.6667 -2 63 0 c 1
 61.66667 12 60.83333 26.3333 60.5 43 c 0
 60.166667 59.6667 60 77.6667 60 97 c 0
 60 129 61 161 63 193 c 0
 65 225 67.83333 255.5 71.5 284.5 c 0
 75.16667 313.5 79 340.1667 83 364.5 c 0
 87 388.8333 91 409.3333 95 426 c 1
 111 432 127.6667 436.6667 145 440 c 0
 162.3333 443.33333 180.6667 445 200 445 c 1
501 445 m 0
 502.33333 445 503.33333 444.166667 504 442.5 c 0
 504.66667 440.833333 504.333333 439.33333 503 438 c 0
 483.6667 414 467.3333 393.6667 454 377 c 0
 440.6667 360.3333 428 346.3333 416 335 c 0
 414 333 412.33333 333 411 335 c 0
 407 339.66667 402.16667 344.66667 396.5 350 c 0
 390.83333 355.33333 385.1667 360.1667 379.5 364.5 c 0
 373.8333 368.8333 368.5 372.5 363.5 375.5 c 0
 358.5 378.5 354.66667 380.66667 352 382 c 0
 342.66667 374.66667 333.5 365.8333 324.5 355.5 c 0
 315.5 345.1667 307.3333 334.3333 300 323 c 0
 292 311 285 299.1667 279 287.5 c 0
 273 275.8333 268.3333 265.3333 265 256 c 1
 277.6667 256.666667 290.5 257 303.5 257 c 0
 316.5 257 326 256.333333 332 255 c 0
 342.6667 241 352.8333 224 362.5 204 c 0
 372.1667 184 381 162.5 389 139.5 c 0
 397 116.5 403.8333 92.8333 409.5 68.5 c 0
 415.1667 44.1667 418.66667 21.3333 420 0 c 1
 402.6667 -2 385.3333 -3 368 -3 c 0
 350.6667 -3 333 -2 315 0 c 1
 311.66667 27.3333 305.5 59.6667 296.5 97 c 0
 287.5 134.3333 272 172 250 210 c 0
 247.33333 214.66667 243.83333 220.6667 239.5 228 c 0
 235.16667 235.3333 232.33333 241.6667 231 247 c 2
 231 255 l 1
 236.33333 267 242.6667 280.3333 250 295 c 0
 257.33333 309.6667 266 325 276 341 c 0
 287.3333 358.3333 299.8333 373.6667 313.5 387 c 0
 327.1667 400.3333 340.6667 411.6667 354 421 c 0
 358 423 366 425.33333 378 428 c 0
 390 430.66667 403.5 433.16667 418.5 435.5 c 0
 433.5 437.83333 448.5 439.83333 463.5 441.5 c 0
 478.5 443.16667 491 444.33333 501 445 c 0
EndSplineSet
EndChar

StartChar: uni043B
Encoding: 1083 1083 37
Width: 433
Flags: HW
LayerCount: 3
Fore
SplineSet
325 351 m 0xe0
 325 240 350 87 379 0 c 1
 362 -3 343 -5 322 -5 c 0
 301 -5 283 -3 266 0 c 1xd0
 258 36 253 80 247 123 c 0
 241 179 234 234 228 290 c 1
 224 277 219 263 213 250 c 2
 197 215 l 2
 193 206 189 197 186 188 c 2
 176 161 l 2
 166 134 148 81 148 58 c 0
 148 41 146 26 146 15 c 2
 146 6 l 1
 120 -3 83 -6 49 -6 c 1
 49 26 56 42 70 71 c 0
 117.66169658 171.089562817 199.184558575 242.505421272 220 370 c 1
 220 389 217 406 217 425 c 1
 243 436 297 443 332 447 c 1
 328 416 325 386 325 351 c 0xe0
EndSplineSet
Validated: 1
Layer: 2
SplineSet
266 0 m 1
 262.66667 14.6667 259.5 32.5 256.5 53.5 c 0
 253.5 74.5 250.5 97.6667 247.5 123 c 0
 244.5 148.3333 241.33333 175.1667 238 203.5 c 0
 234.66667 231.8333 231.33333 260.6667 228 290 c 1
 224 276.6667 219 263.3333 213 250 c 0
 207 236.6667 201.8333 225.1667 197.5 215.5 c 0
 193.1667 205.8333 189.33333 196.6667 186 188 c 0
 182.66667 179.3333 179.33333 170.3333 176 161 c 0
 172.66667 151.6667 169 140.6667 165 128 c 0
 155 98.6667 149.3333 75.3333 148 58 c 0
 146.6667 40.6667 146 26.3333 146 15 c 2
 146 6 l 1
 140 4 132.6667 2.16667 124 0.5 c 0
 115.33333 -1.16667 106.5 -2.5 97.5 -3.5 c 0
 88.5 -4.5 79.6667 -5.16667 71 -5.5 c 0
 62.33333 -5.833333 55 -6 49 -6 c 1
 49 -2.66667 48.833333 0.66667 48.5 4 c 0
 48.166667 7.33333 48.666667 11.33333 50 16 c 0
 53.33333 32 60 50.5 70 71.5 c 0
 80 92.5 92 113.6667 106 135 c 0
 114.66667 147.6667 122.5 159.3333 129.5 170 c 0
 136.5 180.6667 143.3333 191 150 201 c 0
 156.6667 211 163 221.3333 169 232 c 0
 175 242.6667 181 254.6667 187 268 c 0
 196.33333 286.6667 203.5 304.1667 208.5 320.5 c 0
 213.5 336.8333 217.33333 353.3333 220 370 c 0
 219.333333 379.33333 218.83333 388.5 218.5 397.5 c 0
 218.16667 406.5 217.666667 415.6667 217 425 c 1
 229.6667 430.33333 247 434.83333 269 438.5 c 0
 291 442.16667 312 445 332 447 c 1
 329.33333 427 327.33333 406.3333 326 385 c 0
 325.333333 374.3333 325 363 325 351 c 0
 325 339.6667 325.333333 327.3333 326 314 c 0
 328.66667 261.3333 335.33333 203 346 139 c 0
 356 83 367 36.667 379 0 c 1
 361.6667 -3.33333 342.6667 -5 322 -5 c 0
 301.3333 -5 282.6667 -3.33333 266 0 c 1
EndSplineSet
EndChar

StartChar: uni041C
Encoding: 1052 1052 38
Width: 1070
Flags: HW
LayerCount: 3
Fore
SplineSet
435 495 m 1
 431 470 l 2
 430 463 427 455 427 444 c 0
 427 343 408 261 408 198 c 2
 408 168 l 2
 408 95 416 11 431 -83 c 1
 452 -187 483 -294 521 -382 c 0
 535 -413 550 -441 566 -464 c 1
 632 -364 674 -219 701 -83 c 1
 716 12 722.998 95 722.998 168 c 2
 722.998 237 l 2
 722.998 277 717 346 704 444 c 0
 702 459 701 468 700 470 c 2
 696 495 l 1
 638 495 l 1
 638 519.998 l 1
 868 519.998 l 1
 868 495 l 1
 816 495 l 1
 831.272025597 391.913827218 853.446259666 285.02820296 874 185 c 0
 918.291505474 -20.63913256 966.107206477 -235.985943319 1020 -430 c 1
 1082 -430 l 1
 1082 -455 l 1
 840 -455 l 1
 840 -430 l 1
 889 -430 l 1
 836 -209 l 1
 814 -112 788 5 766 113 c 2
 754 172 l 1
 754 44 736 -60 714 -173 c 0
 683 -335 637 -504 585 -632 c 0
 582 -640 575 -649 572 -658 c 1
 560 -658 l 1
 527 -593 505 -523 478 -430 c 0
 442 -304 409 -146 390 -0 c 0
 383 55 377.001 113 377.001 172 c 1
 336.127902056 -32.3654897197 290.319751594 -232.004197277 243 -430 c 1
 292 -430 l 1
 292 -455 l 1
 50 -455 l 1
 50 -430 l 1
 112 -430 l 1
 131 -358 151 -282 170 -202 c 2
 231 63 l 1
 248 142 264 221 280 300 c 2
 300 405 l 2
 306 438 311 468 315 495 c 1
 264 495 l 1
 264 519.998 l 1
 494 519.998 l 1
 494 495 l 1
 435 495 l 1
EndSplineSet
Validated: 1
Layer: 2
SplineSet
435 495 m 1
 433.66667 487 432.33333 478.6667 431 470 c 0
 429.66667 463.33333 428.33333 454.6667 427 444 c 0
 414.3333 342.667 408 260.667 408 198 c 2
 408 168 l 2
 408 94.6667 415.66667 11 431 -83 c 0
 437 -113 444.5 -145.3333 453.5 -180 c 0
 462.5 -214.6667 472.6667 -249.1667 484 -283.5 c 0
 495.3333 -317.8333 507.8333 -350.6667 521.5 -382 c 0
 535.1667 -413.3333 550 -440.6667 566 -464 c 1
 581.3333 -440.6667 595.8333 -413.3333 609.5 -382 c 0
 623.1667 -350.6667 635.8333 -317.8333 647.5 -283.5 c 0
 659.1667 -249.1667 669.5 -214.6667 678.5 -180 c 0
 687.5 -145.3333 695 -113 701 -83 c 0
 715.6667 11.6667 723 95.333 723 168 c 2
 723 198 l 1
 723 213 l 1
 723 226 l 2
 723.116 229.30467 723.174 232.871 723.174 236.699 c 0
 723.174 276.8997 716.78267 346 704 444 c 0
 702 459.3333 700.66667 468 700 470 c 0
 698.66667 478.66667 697.33333 487 696 495 c 1
 638 495 l 1
 638 520 l 1
 868 520 l 1
 868 495 l 1
 816 495 l 1
 820 467.6667 825 437.6667 831 405 c 0
 837 372.3333 843.6667 337.5 851 300.5 c 0
 858.3333 263.5 866.1667 225 874.5 185 c 0
 882.8333 145 891.6667 104.3333 901 63 c 0
 922.3333 -33 942.5 -121.167 961.5 -201.5 c 0
 980.5 -281.8333 1000 -358 1020 -430 c 1
 1082 -430 l 1
 1082 -455 l 1
 840 -455 l 1
 840 -430 l 1
 889 -430 l 1
 872.3333 -363.3333 854.6667 -289.667 836 -209 c 0
 817.3333 -128.333 798.3333 -41 779 53 c 0
 774.33333 73 770 93 766 113 c 0
 762 133 758 152.6667 754 172 c 1
 753.333333 112.6667 749.33333 55.167 742 -0.5 c 0
 734.66667 -56.167 725.3333 -113.667 714 -173 c 0
 696.6667 -265 676.5 -350.667 653.5 -430 c 0
 630.5 -509.333 607.6667 -576.667 585 -632 c 0
 583 -637.33333 580.33333 -643 577 -649 c 0
 575 -651.66667 573.33333 -654.66667 572 -658 c 2
 560 -658 l 1
 557.33333 -652.66667 555 -648.33333 553 -645 c 0
 551 -641.66667 549 -637.33333 547 -632 c 0
 524.3333 -576.6667 501.5 -509.333 478.5 -430 c 0
 455.5 -350.667 435.3333 -265 418 -173 c 0
 406.6667 -113.6667 397.3333 -56.167 390 -0.5 c 0
 382.6667 55.167 378.3333 112.667 377 172 c 1
 373 152.6667 369 133 365 113 c 2
 353 53 l 2
 333 -41 313.6667 -128.333 295 -209 c 0
 276.3333 -289.667 259 -363.333 243 -430 c 1
 292 -430 l 1
 292 -455 l 1
 50 -455 l 1
 50 -430 l 1
 112 -430 l 1
 131.3333 -358 150.6667 -281.833 170 -201.5 c 0
 189.3333 -121.1667 209.6667 -33 231 63 c 0
 239.66667 104.3333 248.1667 145 256.5 185 c 0
 264.83333 225 272.6667 263.5 280 300.5 c 0
 287.3333 337.5 294 372.3333 300 405 c 0
 306 437.6667 311 467.6667 315 495 c 1
 264 495 l 1
 264 520 l 1
 494 520 l 1
 494 495 l 1
 435 495 l 1
EndSplineSet
EndChar

StartChar: uni043C
Encoding: 1084 1084 39
Width: 702
Flags: HW
LayerCount: 3
Fore
SplineSet
653 0 m 1
 639 -3 620 -3 602 -3 c 0
 584 -3 564 -3 548 0 c 1
 536 61 l 2
 531 85 526 112 521 141 c 2
 506 232 l 2
 501 264 497 295 493 326 c 1
 380 23 l 1
 381 16 382 9 385 0 c 1
 370 -2 352 -3 332 -3 c 0
 312 -3 295 -2 282 0 c 1
 267.902962426 98.6792630184 255.71210846 213.808847607 246 317 c 1
 242 306 237 295 232 285 c 2
 215 247 l 2
 197 209 180 168 166 129 c 0
 156 103 152 78 152 44 c 0
 152 26 153 15 156 0 c 1
 141 -3 117 -3 99 -3 c 0
 98 -3 97 -3 96 -3 c 0
 79 -3 60.002 -3 47.002 0 c 1
 48.002 4 47.002 8 47.002 12 c 0
 47.002 35 56 58 65 74 c 0
 78 99 101 134 118 158 c 0
 168 225 213.002 295 238.002 387 c 1
 238.002 401 238.002 414 238.002 427 c 1
 269.002 438 303 443 344 443 c 1
 344 355 352 259 360 175 c 0
 362 142 366 112 370 84 c 1
 485 390 l 1
 485 402 482 413 482 424 c 1
 508 435 549 441 585 443 c 1
 593 370 598 284 610 207 c 0
 622 137 637 60 653 0 c 1
EndSplineSet
Validated: 1
Layer: 2
SplineSet
385 0 m 1
 369.6667 -2 352 -3 332 -3 c 0
 312 -3 295.3333 -2 282 0 c 1
 280 14 277.5 33 274.5 57 c 0
 271.5 81 268.33333 107.5 265 136.5 c 0
 261.66667 165.5 258.33333 195.8333 255 227.5 c 0
 251.66667 259.1667 248.66667 289 246 317 c 1
 242 305.6667 237.5 294.8333 232.5 284.5 c 0
 227.5 274.1667 221.6667 261.6667 215 247 c 0
 205 225.6667 195.8333 205 187.5 185 c 0
 179.1667 165 172 146.3333 166 129 c 0
 160.66667 115 157 101.1667 155 87.5 c 0
 153 73.8333 152 59.3333 152 44 c 0
 152 35.33333 152.333333 27.6667 153 21 c 0
 153.666667 14.3333 154.66667 7.3333 156 0 c 1
 148.66667 -1.33333 139.8333 -2.16667 129.5 -2.5 c 0
 119.1667 -2.833333 108.8333 -3 98.5 -3 c 0
 88.1667 -3 78.3333 -2.833333 69 -2.5 c 0
 59.66667 -2.166667 52 -1.33333 46 0 c 1
 46.666667 4 47 7.83333 47 11.5 c 0
 47 15.16667 47.333333 19 48 23 c 0
 51.33333 42.3333 56.83333 59.1667 64.5 73.5 c 0
 72.16667 87.8333 81.6667 103.6667 93 121 c 0
 101.66667 134.3333 110 146.5 118 157.5 c 0
 126 168.5 133.8333 179.3333 141.5 190 c 0
 149.1667 200.6667 156.8333 211.8333 164.5 223.5 c 0
 172.1667 235.1667 180.3333 248.3333 189 263 c 0
 202.3333 287 212.6667 308.1667 220 326.5 c 0
 227.3333 344.8333 234 365 240 387 c 0
 239.333333 395 238.83333 402.3333 238.5 409 c 0
 238.16667 415.6667 238 421.6667 238 427 c 1
 253.3333 432.33333 269.6667 436.16667 287 438.5 c 0
 304.3333 440.83333 323.3333 442.33333 344 443 c 1
 344 421 344.666667 395.1667 346 365.5 c 0
 347.333333 335.8333 349.16667 304.6667 351.5 272 c 0
 353.83333 239.3333 356.5 206.8333 359.5 174.5 c 0
 362.5 142.1667 366 112 370 84 c 1
 485 390 l 2
 484.333333 396 483.83333 401.8333 483.5 407.5 c 0
 483.16667 413.1667 482.666667 418.6667 482 424 c 1
 494.6667 429.33333 510.1667 433.5 528.5 436.5 c 0
 546.8333 439.5 565.6667 441.66667 585 443 c 1
 588.33333 413.6667 591.5 378.5 594.5 337.5 c 0
 597.5 296.5 602.66667 253 610 207 c 0
 616.66667 166.3333 623.8333 128 631.5 92 c 0
 639.1667 56 646.3333 25.3333 653 0 c 1
 646.33333 -1.33333 638.6667 -2.16667 630 -2.5 c 0
 621.3333 -2.83333 612.1667 -3 602.5 -3 c 0
 592.8333 -3 583.3333 -2.833333 574 -2.5 c 0
 564.6667 -2.166667 556 -1.33333 548 0 c 1
 544.66667 16 540.66667 36.1667 536 60.5 c 0
 531.33333 84.8333 526.5 111.6667 521.5 141 c 0
 516.5 170.3333 511.5 200.8333 506.5 232.5 c 0
 501.5 264.1667 497 295.3333 493 326 c 1
 380 23 l 2
 380.666667 16.33333 382.33333 8.6667 385 0 c 1
EndSplineSet
EndChar

StartChar: uni041D
Encoding: 1053 1053 40
Width: 712
Flags: HW
LayerCount: 3
Fore
SplineSet
259 495 m 1xd0
 259 241 l 1
 467 162 l 1
 467 495 l 1
 410 495 l 1
 410 519.998 l 1
 635 519.998 l 1
 635 495 l 1
 580 495 l 1xd8
 598 -430 l 1
 654 -430 l 1
 654 -455 l 1
 417 -455 l 1
 417 -430 l 1
 472 -430 l 1xc4
 467 134 l 1
 255 213 l 1
 245 -430 l 1
 300 -430 l 1
 300 -455 l 1
 58 -455 l 1
 58 -430 l 1
 113 -430 l 1xe8
 139 495 l 1
 85 495 l 1
 85 519.998 l 1
 315 519.998 l 1
 315 495 l 1
 259 495 l 1xd0
EndSplineSet
Validated: 1
Layer: 2
SplineSet
259 495 m 1
 256 241 l 1
 467 162 l 1
 465 495 l 1
 410 495 l 1
 410 520 l 1
 635 520 l 1
 635 495 l 1
 580 495 l 1
 598 -430 l 1
 654 -430 l 1
 654 -455 l 1
 417 -455 l 1
 417 -430 l 1
 472 -430 l 1
 467 134 l 1
 255 213 l 1
 245 -430 l 1
 300 -430 l 1
 300 -455 l 1
 58 -455 l 1
 58 -430 l 1
 113 -430 l 1
 139 495 l 1
 85 495 l 1
 85 520 l 1
 315 520 l 1
 315 495 l 1
 259 495 l 1
EndSplineSet
EndChar

StartChar: uni043D
Encoding: 1085 1085 41
Width: 458
Flags: HW
LayerCount: 3
Fore
SplineSet
430 441 m 1
 397.886784094 396.041497731 391 325.164689568 391 249 c 2
 391 213 l 2
 391 148 401 49 412 0 c 1
 395 -3 376 -4 356 -4 c 0
 354 -5 352 -5 350 -5 c 0
 332 -5 316 -3 302 0 c 1
 295 74 290.998 147 290.998 228 c 2
 290.998 258 l 1
 169 302 l 1
 156 205 151 100 151 -0 c 1
 132 -3 115 -4 100 -4 c 0
 85 -4 67.999 -3 49.999 0 c 1
 49.999 18 49.999 36 49.999 54 c 0
 49.999 150 64 278 77 365 c 0
 81 388 85 408 90 425 c 1
 129 437 164 445 197 445 c 1
 202 441 l 1
 190 429 186 418 182 390 c 0
 179 370 176 351 173 332 c 1
 290.998 289 l 1
 293.998 337 299 382 306 423 c 1
 336 437 385 445 427 445 c 1
 430 441 l 1
EndSplineSet
Validated: 1
Layer: 2
SplineSet
198 437 m 2
 196.66667 435.66667 194 431 190 423 c 0
 187.33333 418.33333 184.66667 407.3333 182 390 c 0
 180.66667 380 179.16667 370.1667 177.5 360.5 c 0
 175.83333 350.8333 174.33333 341.3333 173 332 c 1
 291 289 l 1
 292.33333 314.3333 294.33333 338.1667 297 360.5 c 0
 299.66667 382.8333 302.66667 403.6667 306 423 c 1
 322.6667 431 342.1667 436.5 364.5 439.5 c 0
 386.8333 442.5 407.6667 444.33333 427 445 c 1
 430 441 l 1
 425.33333 434.33333 421 427.3333 417 420 c 0
 413 412.6667 409.66667 404.3333 407 395 c 0
 403.66667 381.6667 401 369.1667 399 357.5 c 0
 397 345.8333 395.5 334.5 394.5 323.5 c 0
 393.5 312.5 392.66667 301 392 289 c 0
 391.33333 277 391 263.6667 391 249 c 2
 391 229 l 2
 390.9046667 223.762 390.857 218.449 390.857 213.061 c 0
 390.857 180.7343 392.57133 145.714 396 108 c 0
 400.66667 63.3333 406 27.3333 412 0 c 1
 394.6667 -2.66667 376 -4 356 -4 c 0
 354 -4.666667 352 -5 350 -5 c 0
 332 -5 316 -3.33333 302 0 c 1
 298.66667 37.3333 296 75.3333 294 114 c 0
 292 150 291 188 291 228 c 2
 291 258 l 1
 169 302 l 1
 161.66667 245.3333 156.8333 191.167 154.5 139.5 c 0
 152.1667 87.833 151 41.3333 151 0 c 1
 132.3333 -2.66667 115.3333 -4 100 -4 c 0
 84.6667 -4 68 -2.66667 50 0 c 1
 50 24 l 1
 50 54 l 2
 50 65.3333 51.33333 89.3333 54 126 c 0
 55.33333 152 57.16667 179.1667 59.5 207.5 c 0
 61.83333 235.8333 64.5 263.3333 67.5 290 c 0
 70.5 316.6667 73.83333 341.6667 77.5 365 c 0
 81.16667 388.3333 85.33333 408.3333 90 425 c 1
 128.6667 437 164.3333 443.6667 197 445 c 1
 202 441 l 1
 198 437 l 2
EndSplineSet
EndChar

StartChar: uni041E
Encoding: 1054 1054 42
Width: 684
Flags: HW
LayerCount: 3
Fore
SplineSet
323 505 m 0
 273 505 248 465 232 426 c 0
 191 327 191 177 191 40 c 2
 191 32 l 2
 191 -74 194 -186 209 -277 c 0
 219 -335 237 -388 269 -419 c 0
 284 -434 302 -441 323 -441 c 0
 373 -441 398 -401 414 -361 c 0
 455 -263 455.001 -113 455.001 24 c 2
 455.001 32 l 2
 455.001 138 452 250 437 341 c 0
 427 399 409 452 377 484 c 0
 362 498 344 505 323 505 c 0
323 -465 m 0
 286 -465 251 -454 220 -431 c 0
 149 -379 107 -284 85 -176 c 0
 72 -115 65.001 -45 65.001 32 c 0
 65.001 178 89 305 139 396 c 0
 162 439 189 472 220 495 c 0
 251 518 286 528.998 323 528.998 c 0
 360 528.998 395 518 426 495 c 0
 497 443 539 348 561 240 c 0
 574 179 581 109 581 32 c 0
 581 -114 557 -241 507 -332 c 0
 484 -376 457 -408 426 -431 c 0
 395 -454 360 -465 323 -465 c 0
EndSplineSet
Validated: 1
Layer: 2
SplineSet
323 505 m 0
 301.6667 505 283.6667 497.83333 269 483.5 c 0
 254.3333 469.1667 242 449.8333 232 425.5 c 0
 222 401.1667 214.3333 373 209 341 c 0
 203.6667 309 199.66667 275.5 197 240.5 c 0
 194.33333 205.5 192.66667 170 192 134 c 0
 191.33333 98 191 64 191 32 c 0
 191 0 191.333333 -34 192 -70 c 0
 192.666667 -106 194.33333 -141.5 197 -176.5 c 0
 199.66667 -211.5 203.66667 -245 209 -277 c 0
 214.33333 -309 222 -337.1667 232 -361.5 c 0
 242 -385.8333 254.3333 -405.1667 269 -419.5 c 0
 283.6667 -433.8333 301.6667 -441 323 -441 c 0
 344.3333 -441 362.3333 -433.83333 377 -419.5 c 0
 391.6667 -405.16667 404 -385.8333 414 -361.5 c 0
 424 -337.1667 431.6667 -309 437 -277 c 0
 442.3333 -245 446.33333 -211.5 449 -176.5 c 0
 451.66667 -141.5 453.33333 -106 454 -70 c 0
 454.66667 -34 455 0 455 32 c 0
 455 64 454.666667 98 454 134 c 0
 453.333333 170 451.66667 205.5 449 240.5 c 0
 446.33333 275.5 442.33333 309 437 341 c 0
 431.66667 373 424 401.1667 414 425.5 c 0
 404 449.8333 391.6667 469.1667 377 483.5 c 0
 362.3333 497.8333 344.3333 505 323 505 c 0
323 -465 m 0
 285.6667 -465 251.3333 -453.6667 220 -431 c 0
 188.6667 -408.3333 161.5 -375.5 138.5 -332.5 c 0
 115.5 -289.5 97.5 -237.3333 84.5 -176 c 0
 71.5 -114.6667 65 -45.333 65 32 c 0
 65 109.333 71.5 178.667 84.5 240 c 0
 97.5 301.3333 115.5 353.5 138.5 396.5 c 0
 161.5 439.5 188.6667 472.3333 220 495 c 0
 251.3333 517.6667 285.6667 529 323 529 c 0
 360.3333 529 394.6667 517.6667 426 495 c 0
 457.3333 472.3333 484.5 439.5 507.5 396.5 c 0
 530.5 353.5 548.5 301.3333 561.5 240 c 0
 574.5 178.6667 581 109.333 581 32 c 0
 581 -45.333 574.5 -114.667 561.5 -176 c 0
 548.5 -237.333 530.5 -289.5 507.5 -332.5 c 0
 484.5 -375.5 457.3333 -408.3333 426 -431 c 0
 394.6667 -453.6667 360.3333 -465 323 -465 c 0
EndSplineSet
EndChar

StartChar: uni043E
Encoding: 1086 1086 43
Width: 489
Flags: HW
LayerCount: 3
Fore
SplineSet
217 371 m 0
 185 371 159 341 144 315 c 1
 142 300 141 286 141 275 c 0
 141 225 155 177 182 131 c 0
 213 80 245 54 278 54 c 0
 285 54 291 55 297 57 c 0
 310 61 325 75 342 100 c 1
 347 121 350.001 142 350.001 162 c 0
 350.001 224 327 274 304 302 c 0
 283 328 267 346 255 355 c 0
 242 366 229 371 217 371 c 0
294 449.999 m 0
 317 449.999 347 425 384 374 c 0
 423 321 443 274 443 235 c 0
 443 230 443 225 442 220 c 0
 430 124 356 39 287 12 c 0
 250 -3 220 -10.001 197 -10.001 c 0
 190 -10.001 185 -11.001 180 -10.001 c 0
 153 -2.001 122 29 89 80 c 0
 60 124 46.001 162 46.001 194 c 2
 46.001 196 l 2
 46.001 236 59 273 84 308 c 0
 112 346 144 379 180 407 c 0
 217 436 255 449.999 294 449.999 c 0
EndSplineSet
Validated: 1
Layer: 2
SplineSet
176 354 m 0
 164.6667 345.33333 154 332.3333 144 315 c 1
 142 299.6667 141 286.3333 141 275 c 0
 141 225 154.6667 177 182 131 c 0
 212.6667 79.6667 244.6667 54 278 54 c 0
 284.66667 54 291 55 297 57 c 0
 309.6667 61 324.6667 75.3333 342 100 c 1
 347.33333 121.3333 350 142 350 162 c 0
 350 177.3333 349.333333 188.3333 348 195 c 0
 338.66667 242.3333 324 278 304 302 c 0
 283.3333 328 267 345.6667 255 355 c 0
 241.6667 365.6667 229 371 217 371 c 0
 204.3333 371 190.6667 365.33333 176 354 c 0
294 450 m 0
 316.6667 450 346.6667 424.6667 384 374 c 0
 423.3333 320.6667 443 274.3333 443 235 c 0
 443 230.33333 442.666667 225.33333 442 220 c 0
 437.33333 181.3333 424.3333 146 403 114 c 0
 369 63.3333 330.3333 29.3333 287 12 c 0
 249.6667 -2.6667 219.6667 -10 197 -10 c 0
 190.33333 -10 184.6667 -9.333333 180 -8 c 0
 152.6667 0 122.3333 29.3333 89 80 c 0
 60.3333 124 46 162 46 194 c 2
 46 196 l 2
 46 236 58.6667 273.3333 84 308 c 0
 112 346 144 379 180 407 c 0
 217.3333 435.6667 255.3333 450 294 450 c 0
EndSplineSet
EndChar

StartChar: uni041F
Encoding: 1055 1055 44
Width: 712
Flags: HW
LayerCount: 3
Fore
SplineSet
58 -455 m 1xe0
 58 -430 l 1
 113 -430 l 1xe0
 139 495 l 1
 85 495 l 1
 85 520 l 1
 635 520 l 1
 635 495 l 1
 580 495 l 1xd8
 598 -430 l 1
 654 -430 l 1
 654 -455 l 1
 417 -455 l 1
 417 -430 l 1
 472 -430 l 1xc4
 465 495 l 1
 259 495 l 1xd8
 245 -430 l 1
 300 -430 l 1
 300 -455 l 1
 58 -455 l 1xe0
EndSplineSet
Validated: 1
Layer: 2
SplineSet
58 -455 m 1
 58 -430 l 1
 113 -430 l 1
 139 495 l 1
 85 495 l 1
 85 520 l 1
 635 520 l 1
 635 495 l 1
 580 495 l 1
 598 -430 l 1
 654 -430 l 1
 654 -455 l 1
 417 -455 l 1
 417 -430 l 1
 472 -430 l 1
 465 495 l 1
 259 495 l 1
 245 -430 l 1
 300 -430 l 1
 300 -455 l 1
 58 -455 l 1
EndSplineSet
EndChar

StartChar: uni043F
Encoding: 1087 1087 45
Width: 460
Flags: HW
LayerCount: 3
Fore
SplineSet
291 45 m 0
 291 166 302 299.001 312 407.001 c 1
 188 407.001 l 1
 179 377.001 175 334 171 294 c 0
 161 202 153 98 153 0 c 1
 134 -2 116 -4 98 -4 c 0
 80 -4 63 -2 46 0 c 1
 46 110 61 233 75 336 c 0
 80 375 86 407.998 92 436.998 c 1
 420 436.998 l 1
 420 433.998 422 435 422 432 c 0
 406 348 396 253 396 149 c 0
 396 114 395 84 395 52 c 0
 395 33 397 15 397 0 c 1
 382 -3 365 -5 346 -5 c 0
 327 -5 309 -3 292 0 c 1
 292 14 291 29 291 45 c 0
EndSplineSet
Validated: 1
Layer: 2
SplineSet
46 0 m 1
 46.666667 27.3333 48.33333 60.1667 51 98.5 c 0
 53.66667 136.8333 57 176.3333 61 217 c 0
 65 257.6667 69.66667 297.3333 75 336 c 0
 80.33333 374.6667 86 408.3333 92 437 c 1
 420 437 l 1
 420 435.66667 420.333333 434.83333 421 434.5 c 0
 421.666667 434.16667 422 433.33333 422 432 c 0
 414.66667 393.3333 408.5 350.5 403.5 303.5 c 0
 398.5 256.5 396 205 396 149 c 0
 396 119.6667 395.833333 92.3333 395.5 67 c 0
 395.4333333 61.93333 395.4 56.9867 395.4 52.16 c 0
 395.4 32.8533 395.933333 15.4667 397 0 c 1
 381.6667 -3.33333 364.6667 -5 346 -5 c 0
 327.3333 -5 309.3333 -3.33333 292 0 c 1
 291.407333 14.2222 291.111 29.3333 291.111 45.3333 c 0
 291.111 65.3333 291.574 86.7222 292.5 109.5 c 0
 294.16667 150.5 296.16667 190.6667 298.5 230 c 0
 300.83333 269.3333 303.33333 305.1667 306 337.5 c 0
 308.66667 369.8333 310.66667 393 312 407 c 1
 188 407 l 1
 184.66667 395.6667 181.66667 380.1667 179 360.5 c 0
 176.33333 340.8333 173.66667 318.6667 171 294 c 0
 168.33333 269.3333 166 243.3333 164 216 c 0
 162 188.6667 160.16667 161.8333 158.5 135.5 c 0
 156.83333 109.1667 155.5 84.1667 154.5 60.5 c 0
 153.5 36.8333 153 16.6667 153 0 c 1
 134.3333 -2.33333 116.0833 -3.5 98.25 -3.5 c 0
 80.4167 -3.5 63 -2.33333 46 0 c 1
EndSplineSet
EndChar

StartChar: uni047A
Encoding: 1146 1146 46
Width: 1262
Flags: HW
LayerCount: 3
Fore
SplineSet
1158 10 m 0
 1158 -22 1148 -62 1128 -110 c 0
 1080 -226 989 -324 883 -385 c 0
 826 -418 766 -441 701 -456 c 1
 688 -500 657 -522.004 609 -522.004 c 0
 564 -522.004 534 -503 519 -466 c 1
 386 -452 273 -390 198 -315 c 0
 129 -246 59.998 -132 59.998 -8 c 0
 59.998 64 70 124 90 171 c 0
 141 292 226 382 335 446 c 0
 392 479 453 503 518 517 c 1
 529 562 560 587 612 587 c 0
 659 587 689 567 703 526 c 1
 766 519 825 500 881 470 c 0
 947 435 993 403 1020 374 c 1
 1110 283 1158 189 1158 10 c 0
612 426.993 m 0
 569 426.993 526 449 517 484 c 1
 424 445 343 370 288 288 c 0
 244 221 202 125 202 17 c 0
 202 -111 243 -201 299 -274 c 0
 351 -343 425 -398 512 -429 c 1
 512 -395 546 -374 574 -367 c 0
 585 -364 600 -362 617 -362 c 0
 634 -362 652 -367 671 -378 c 0
 690 -389 701 -403 704 -422 c 1
 797 -383 876 -308 930 -226 c 0
 973 -160 1016 -63 1016 44 c 0
 1016 167 974 262 919 334 c 0
 867 403 794 458 707 489 c 1
 700 451 656 426.993 612 426.993 c 0
EndSplineSet
Validated: 1
Layer: 2
SplineSet
1158 10 m 0
 1158 -22 1148 -62 1128 -110 c 0
 1104.6667 -166 1072 -217.667 1030 -265 c 0
 987.3333 -313 938.3333 -353 883 -385 c 0
 826.3333 -417.6667 765.667 -441.3333 701 -456 c 1
 687.6667 -500 657 -522 609 -522 c 0
 563.6667 -522 533.6667 -503.3333 519 -466 c 1
 455.6667 -459.33333 396.667 -442.6667 342 -416 c 0
 286 -388.6667 238 -355 198 -315 c 0
 157.3333 -274.3333 124.6667 -227.6667 100 -175 c 0
 73.3333 -117.6667 60 -62 60 -8 c 0
 60 64 70 123.667 90 171 c 0
 114.6667 229.6667 147.3333 281.333 188 326 c 0
 229.3333 372.6667 278.3333 412.6667 335 446 c 0
 391.6667 479.3333 452.667 503 518 517 c 1
 524 541.6667 535 559.3333 551 570 c 0
 567.6667 581.3333 588 587 612 587 c 0
 658.6667 587 689 566.6667 703 526 c 1
 765.6667 518.66667 825 500 881 470 c 0
 947 434.6667 993.333 402.6667 1020 374 c 0
 1062.6667 330.6947 1095.3333 284.3617 1118 235.001 c 0
 1144.6667 177.0003 1158 102 1158 10 c 0
616.504 -362.001 m 0
 633.5067 -362.001 651.506 -367.33333 670.502 -377.998 c 0
 689.502 -388.6653 700.6687 -403.3323 704.002 -421.999 c 1
 748.002 -403.3323 789.502 -376.999 828.502 -342.999 c 0
 867.502 -308.999 901.3353 -269.999 930.002 -225.999 c 0
 956.6687 -185.3323 978.6687 -137.999 996.002 -83.999 c 0
 1009.334 -42.6663 1016 0.000300000000038 1016 44.001 c 0
 1016 53.33367 1015.666667 62.6667 1015 72 c 0
 1011 123.3327 1001.0007 170.6657 985.002 213.999 c 0
 968.3347 257.999 946.3347 297.999 919.002 333.999 c 0
 891.6687 369.999 860.002 401.1657 824.002 427.499 c 0
 788.002 453.8317 749.002 474.3317 707.002 488.999 c 1
 703.66867 469.6657 692.502 454.499 673.502 443.499 c 0
 654.502 432.499 634.002 426.999 612.002 426.999 c 0
 590.6687 426.999 570.6687 431.999 552.002 441.999 c 0
 533.3347 451.999 521.6677 465.999 517.001 483.999 c 1
 473.001 465.3317 431.1677 438.9983 391.501 404.999 c 0
 351.8337 370.999 317.3337 331.999 288.001 287.999 c 0
 261.3337 247.3317 239.3337 199.9983 222.001 145.999 c 0
 208.6677 104.6657 202.001 61.6657 202.001 16.999 c 0
 202.001 6.99901 202.334333 -2.3343 203.001 -11.001 c 0
 207.001 -65.001 216.6677 -112.668 232.001 -154.001 c 0
 249.3337 -198.001 271.6667 -238.001 299 -274.001 c 0
 326.3327 -310.001 358.1657 -341.1677 394.499 -367.501 c 0
 430.8317 -393.8343 469.9983 -414.3343 511.999 -429.001 c 1
 512.665667 -419.001 515.999 -409.8343 521.999 -401.501 c 0
 527.999 -393.16833 535.499 -386.0017 544.499 -380.001 c 0
 553.499 -374.001 563.499 -369.501 574.499 -366.501 c 0
 585.499 -363.501 599.5007 -362.001 616.504 -362.001 c 0
EndSplineSet
EndChar

StartChar: uni047B
Encoding: 1147 1147 47
Width: 686
Flags: HW
LayerCount: 3
Fore
SplineSet
624 218 m 0
 624 136 582 80 532 45 c 0
 482 12 412 -12.001 333 -12.001 c 0
 213 -12.001 126 36 84 116 c 0
 70 145 62 179 62 218 c 0
 62 301 104 355 154 391 c 0
 203 425 274 449 353 449 c 0
 472 449 560 399 602 320 c 0
 616 290 624 257 624 218 c 0
354 420.999 m 0
 266 420.999 213 366 190 299 c 0
 180 274 176 247 176 218 c 0
 176 129 206 61 265 31 c 0
 284 21 307 16 333 16 c 0
 421 16 474 71 497 137 c 0
 506 162 510.001 189 510.001 218 c 0
 510.001 307 480 374 422 405 c 0
 403 416 380 420.999 354 420.999 c 0
EndSplineSet
Validated: 1
Layer: 2
SplineSet
624 218 m 0
 624 180 615.5 146.5 598.5 117.5 c 0
 581.5 88.5 559.1667 64.5 531.5 45.5 c 0
 503.8333 26.5 472.6667 12.1667 438 2.5 c 0
 403.3333 -7.1667 368.3333 -12 333 -12 c 0
 297.6667 -12 263.6667 -7.33333 231 2 c 0
 198.3333 11.33333 169.5 25.5 144.5 44.5 c 0
 119.5 63.5 99.5 87.5 84.5 116.5 c 0
 69.5 145.5 62 179.3333 62 218 c 0
 62 256.6667 70.5 290.3333 87.5 319 c 0
 104.5 347.6667 126.6667 371.6667 154 391 c 0
 181.3333 410.3333 212.5 424.8333 247.5 434.5 c 0
 282.5 444.1667 317.6667 449 353 449 c 0
 388.3333 449 422.3333 444.16667 455 434.5 c 0
 487.6667 424.83333 516.5 410.5 541.5 391.5 c 0
 566.5 372.5 586.5 348.5 601.5 319.5 c 0
 616.5 290.5 624 256.6667 624 218 c 0
354 421 m 0
 328 421 304.1667 416 282.5 406 c 0
 260.8333 396 242.1667 382 226.5 364 c 0
 210.8333 346 198.5 324.5 189.5 299.5 c 0
 180.5 274.5 176 247.3333 176 218 c 0
 176 188.6667 179.33333 161.6667 186 137 c 0
 192.66667 112.3333 202.6667 91 216 73 c 0
 229.3333 55 245.6667 41 265 31 c 0
 284.3333 21 307 16 333 16 c 0
 359 16 382.8333 21 404.5 31 c 0
 426.1667 41 444.8333 55 460.5 73 c 0
 476.1667 91 488.3333 112.3333 497 137 c 0
 505.66667 161.6667 510 188.6667 510 218 c 0
 510 247.3333 506.66667 274.3333 500 299 c 0
 493.33333 323.6667 483.5 345 470.5 363 c 0
 457.5 381 441.3333 395.1667 422 405.5 c 0
 402.6667 415.8333 380 421 354 421 c 0
EndSplineSet
EndChar

StartChar: uni0420
Encoding: 1056 1056 48
Width: 682
Flags: HW
LayerCount: 3
Fore
SplineSet
75 -455 m 1xe8
 75 -430 l 1
 129.998 -430 l 1xe8
 151.998 343 l 1xd8
 151.998 407 189 452 227 481 c 0
 278 520 327 530 410 530 c 0
 461 530 507 513 542 494 c 0
 569 480 585 466 595 434 c 0
 600 419 602 405 602 392 c 0
 602 342 589 318 558 294 c 0
 528 270 463 269 418 261 c 0
 388 257 348 254 327 241 c 0
 301 225 280 212 271 181 c 1
 262 -430 l 1
 321 -430 l 1
 321 -455 l 1
 75 -455 l 1xe8
495.999 392 m 0
 495.999 461 466 507.989 395 507.989 c 0
 343 507.989 301 485 283 450 c 0
 278 439 275 429 275 418 c 2
 272 231 l 1xd8
 289 248 309 263 336 270 c 0
 376 281 427 282 455 300 c 0
 484 319 495.999 346 495.999 392 c 0
EndSplineSet
Validated: 1
Layer: 2
SplineSet
75 -455 m 1
 75 -430 l 1
 130 -430 l 1
 152 343 l 2
 153.33333 375 161.33333 402.3333 176 425 c 0
 190.66667 447.6667 207.6667 466.3333 227 481 c 0
 255 502.3333 283.5 515.8333 312.5 521.5 c 0
 341.5 527.1667 374 530 410 530 c 0
 422 530 435.8333 528.66667 451.5 526 c 0
 467.1667 523.33333 482.6667 519.33333 498 514 c 0
 513.3333 508.66667 528 502.1667 542 494.5 c 0
 556 486.8333 567.6667 478 577 468 c 0
 584.33333 460 590.3333 448.6667 595 434 c 0
 599.6667 419.3333 602 405.3333 602 392 c 0
 602 370.6667 599 352.3333 593 337 c 0
 587 321.6667 575.3333 307.3333 558 294 c 0
 551.33333 288.66667 542.3333 284.33333 531 281 c 0
 519.6667 277.66667 507.5 274.83333 494.5 272.5 c 0
 481.5 270.16667 468.3333 268.16667 455 266.5 c 0
 441.6667 264.83333 429.3333 263 418 261 c 0
 413.33333 260.333333 407 259.5 399 258.5 c 0
 391 257.5 382.5 256.33333 373.5 255 c 0
 364.5 253.66667 355.8333 251.83333 347.5 249.5 c 0
 339.1667 247.16667 332.3333 244.33333 327 241 c 0
 318.33333 235.66667 311 230.8333 305 226.5 c 0
 299 222.1667 293.8333 217.83333 289.5 213.5 c 0
 285.1667 209.16667 281.5 204.33333 278.5 199 c 0
 275.5 193.66667 273 187.6667 271 181 c 2
 262 -430 l 1
 321 -430 l 1
 321 -455 l 1
 75 -455 l 1
272 231 m 1
 277.33333 236.33333 283.1667 241.5 289.5 246.5 c 0
 295.8333 251.5 303.3333 256.33333 312 261 c 0
 319.33333 265 327.5 268.16667 336.5 270.5 c 0
 345.5 272.83333 354.6667 274.83333 364 276.5 c 0
 373.3333 278.16667 382.1667 279.5 390.5 280.5 c 0
 398.8333 281.5 406 282.66667 412 284 c 0
 430 288 444.5 293.5 455.5 300.5 c 0
 466.5 307.5 475 315.6667 481 325 c 0
 487 334.3333 491 344.6667 493 356 c 0
 495 367.3333 496 379.3333 496 392 c 0
 496 405.3333 494.5 418.8333 491.5 432.5 c 0
 488.5 446.1667 483.33333 458.6667 476 470 c 0
 468.66667 481.3333 458.3333 490.5 445 497.5 c 0
 431.6667 504.5 415 508 395 508 c 0
 377 508 360.6667 505.33333 346 500 c 0
 331.3333 494.66667 318.6667 487.8333 308 479.5 c 0
 297.3333 471.1667 289.1667 461.5 283.5 450.5 c 0
 277.8333 439.5 275 428.6667 275 418 c 2
 272 231 l 1
EndSplineSet
EndChar

StartChar: uni0440
Encoding: 1088 1088 49
Width: 340
Flags: HW
LayerCount: 3
Fore
SplineSet
65 -318 m 2
 65 -220 54.0039 -144 54.0039 -46 c 0
 54.0039 96 64 231 113 324 c 0
 139 375 177 426 232 449 c 0
 235 450 239 451 244 451 c 0
 248 451 251 450 252 448 c 0
 277 409 284 366 284 306 c 0
 284 189 255 81 218 0 c 1
 136 0 l 1
 136 -41 l 2
 136 -76 138 -112 138 -147 c 0
 138 -261 135 -374 109 -459 c 0
 101 -484 87 -503 67 -516 c 0
 65 -518 62 -518 60 -518 c 0
 51 -518 41 -508 43 -501 c 2
 54.0039 -464 l 1
 64.9963 -419.031 65 -373.063 65 -318.114 c 2
 65 -318 l 2
159 254 m 0
 145 216 136 168 136 119 c 1
 143 112 157 107 170 107 c 0
 179 107 188 109 194 115 c 1
 206 148 216 202 216 245 c 0
 216 254 215 262 213 267 c 1
 205 274 197 277 188 277 c 0
 180 277 172 274 165 268 c 0
 163 265 161 261 159 254 c 0
EndSplineSet
Validated: 1
Layer: 2
SplineSet
284 306 m 0
 284 276.6667 282 247.5 278 218.5 c 0
 274 189.5 268.83333 161.6667 262.5 135 c 0
 256.16667 108.3333 249 83.5 241 60.5 c 0
 233 37.5 225.3333 18 218 2 c 1
 195.0667 -0.13333 172.9867 -1.2 151.76 -1.2 c 0
 146.45333 -1.2 141.2 -1.1333333 136 -1 c 1
 136 -41 l 2
 136 -59 136.333333 -76.8333 137 -94.5 c 0
 137.666667 -112.1667 138 -129.6667 138 -147 c 0
 138 -208.3333 136.16667 -265.667 132.5 -319 c 0
 128.83333 -372.333 121 -419 109 -459 c 0
 105 -472.3333 99.33333 -483.6667 92 -493 c 0
 84.66667 -502.3333 76.3333 -510 67 -516 c 0
 62.33333 -519.33333 56.8333 -519 50.5 -515 c 0
 44.1667 -511 41.66667 -506.33333 43 -501 c 0
 46.33333 -487.6667 49.5 -475.1667 52.5 -463.5 c 0
 55.5 -451.8333 58 -438 60 -422 c 0
 62.66667 -402.6667 64.16667 -385.6667 64.5 -371 c 0
 64.83333 -356.3333 65 -338.6667 65 -318 c 0
 65 -292 64.5 -268.1667 63.5 -246.5 c 0
 62.5 -224.8333 61.16667 -203.5 59.5 -182.5 c 0
 57.83333 -161.5 56.5 -140.1667 55.5 -118.5 c 0
 54.5 -96.8333 54 -72.6667 54 -46 c 0
 54 -12.6667 54.666667 20.8333 56 54.5 c 0
 57.33333 88.1667 60.16667 120.8333 64.5 152.5 c 0
 68.83333 184.1667 74.8333 214.6667 82.5 244 c 0
 90.16667 273.3333 100.3333 300 113 324 c 0
 126.3333 350 142.6667 374.5 162 397.5 c 0
 181.3333 420.5 204.6667 437.6667 232 449 c 0
 235.33333 450.33333 239.16667 451 243.5 451 c 0
 247.83333 451 250.66667 450 252 448 c 0
 265.3333 426.6667 274 404.3333 278 381 c 0
 282 357.6667 284 332.6667 284 306 c 0
141 180 m 0
 139.66667 166.6667 138.66667 155.8333 138 147.5 c 0
 137.33333 139.1667 136.66667 129.6667 136 119 c 1
 142.66667 112.33333 152.1667 108.3333 164.5 107 c 0
 176.8333 105.6667 186.6667 108.33333 194 115 c 0
 196 120.33333 198.66667 129.8333 202 143.5 c 0
 205.33333 157.1667 208.16667 172 210.5 188 c 0
 212.83333 204 214.5 219.3333 215.5 234 c 0
 215.772667 238 215.909 241.72733 215.909 245.182 c 0
 215.909 254.394 214.939333 261.6667 213 267 c 0
 205 274.33333 196.6667 277.8333 188 277.5 c 0
 179.3333 277.1667 171.6667 274 165 268 c 0
 163 265.33333 160.83333 260.66667 158.5 254 c 0
 156.16667 247.33333 153.83333 239.6667 151.5 231 c 0
 149.16667 222.3333 147 213.5 145 204.5 c 0
 143 195.5 141.66667 187.3333 141 180 c 0
EndSplineSet
AlternateSubs2: "'salt' Stylistic Alternatives lookup 2-1" uni0440.salt
EndChar

StartChar: uni0421
Encoding: 1057 1057 50
Width: 692
Flags: HW
LayerCount: 3
Fore
SplineSet
576 -50 m 1
 576 -171 542 -278 494 -355 c 0
 458 -412 405 -464.999 323 -464.999 c 0
 286 -464.999 251 -454 220 -431 c 0
 149 -379 107 -284 85 -176 c 0
 72 -115 65 -45 65 32 c 0
 65 178 89 305 139 396 c 0
 162 439 189 472 220 495 c 0
 251 518 286 529 323 529 c 0
 402 529 455 479 490 424 c 0
 537 352 565 250 575 135 c 1
 623 135 l 1
 623 109.998 l 1
 413 109.998 l 1
 413 135 l 1
 455 135 l 1
 451 261 443 399 388 472 c 0
 371 494 350 504.998 323 504.998 c 0
 273 504.998 248 465 232 425 c 0
 191 327 191 177 191 40 c 2
 191 32 l 2
 191 -74 194 -186 209 -277 c 0
 219 -335 237 -388 269 -420 c 0
 284 -434 302 -441 323 -441 c 0
 350 -441 373 -429 390 -406 c 0
 446 -327 451 -181 455 -50 c 1
 413 -50 l 1
 413 -25 l 1
 623 -25 l 1
 623 -50 l 1
 576 -50 l 1
EndSplineSet
Validated: 1
Layer: 2
SplineSet
576 -50 m 1
 571.33333 -115.3333 562 -173.667 548 -225 c 0
 534 -276.3333 516 -319.6667 494 -355 c 0
 472 -390.3333 446.5 -417.5 417.5 -436.5 c 0
 388.5 -455.5 357 -465 323 -465 c 0
 285.6667 -465 251.3333 -453.6667 220 -431 c 0
 188.6667 -408.3333 161.5 -375.5 138.5 -332.5 c 0
 115.5 -289.5 97.5 -237.3333 84.5 -176 c 0
 71.5 -114.6667 65 -45.333 65 32 c 0
 65 109.333 71.5 178.667 84.5 240 c 0
 97.5 301.3333 115.5 353.5 138.5 396.5 c 0
 161.5 439.5 188.6667 472.3333 220 495 c 0
 251.3333 517.6667 285.6667 529 323 529 c 0
 355.6667 529 386.1667 520 414.5 502 c 0
 442.8333 484 468 458.1667 490 424.5 c 0
 512 390.8333 530.3333 349.6667 545 301 c 0
 559.6667 252.3333 569.6667 197 575 135 c 1
 623 135 l 1
 623 110 l 1
 413 110 l 1
 413 135 l 1
 455 135 l 1
 453.66667 179 451.16667 223 447.5 267 c 0
 443.83333 311 437.1667 350.6667 427.5 386 c 0
 417.8333 421.3333 404.6667 450 388 472 c 0
 371.3333 494 349.6667 505 323 505 c 0
 301.6667 505 283.6667 497.83333 269 483.5 c 0
 254.3333 469.1667 242 449.8333 232 425.5 c 0
 222 401.1667 214.3333 373 209 341 c 0
 203.6667 309 199.66667 275.5 197 240.5 c 0
 194.33333 205.5 192.66667 170 192 134 c 0
 191.33333 98 191 64 191 32 c 0
 191 0 191.333333 -34 192 -70 c 0
 192.666667 -106 194.33333 -141.5 197 -176.5 c 0
 199.66667 -211.5 203.66667 -245 209 -277 c 0
 214.33333 -309 222 -337.1667 232 -361.5 c 0
 242 -385.8333 254.3333 -405.1667 269 -419.5 c 0
 283.6667 -433.8333 301.6667 -441 323 -441 c 0
 350.3333 -441 372.5 -429.1667 389.5 -405.5 c 0
 406.5 -381.8333 419.6667 -351.3333 429 -314 c 0
 438.3333 -276.6667 444.6667 -234.6667 448 -188 c 0
 451.3333 -141.3333 453.66667 -95.3333 455 -50 c 1
 413 -50 l 1
 413 -25 l 1
 623 -25 l 1
 623 -50 l 1
 576 -50 l 1
EndSplineSet
EndChar

StartChar: uni0441
Encoding: 1089 1089 51
Width: 285
Flags: HW
LayerCount: 3
Fore
SplineSet
130 0 m 0
 125 -2 110 -11 101 -11 c 0
 98 -11 95 -10 94 -7 c 0
 84 10 79 46 73 73 c 0
 64 118 55 171 55 224 c 0
 55 289 75 337 102 376 c 0
 128 413 174 445 233 445 c 1
 233 435 234 425 234 416 c 0
 234 392 231 363 229 344 c 1
 205 333 174 308 158 288 c 1
 156 278 154 257 154 240 c 0
 154 214 159 184 159 161 c 0
 159 147 162 138 163 133 c 1
 185 140 198 148 216 160 c 0
 219 163 222 157 222 155 c 0
 222 112 215 81 205 45 c 1
 183 28 156 12 130 0 c 0
EndSplineSet
Validated: 1
Layer: 2
SplineSet
113 -7 m 0
 110.33333 -8.33333 106.83333 -9.33333 102.5 -10 c 0
 98.16667 -10.66667 95.33333 -9.666667 94 -7 c 0
 91.33333 -2.33333 88.16667 7.3333 84.5 22 c 0
 80.83333 36.6667 77 53.6667 73 73 c 0
 69 92.3333 65.5 112.8333 62.5 134.5 c 0
 59.5 156.1667 57.33333 177 56 197 c 0
 55.390467 206.14267 55.0857 214.9893 55.0857 223.54 c 0
 55.0857 252.3993 58.55713 277.886 65.5 300 c 0
 74.5 328.6667 86.6667 354 102 376 c 0
 116.6667 397.3333 135.6667 414.1667 159 426.5 c 0
 182.3333 438.8333 207 445 233 445 c 1
 233.666667 435 234 425.3333 234 416 c 0
 234 406.6667 233.666667 397.6667 233 389 c 0
 231.66667 371.6667 230.33333 356.6667 229 344 c 1
 216.3333 338 203.3333 329.6667 190 319 c 0
 176.6667 308.3333 166 298 158 288 c 0
 156 279.33333 154.83333 267.3333 154.5 252 c 0
 154.4166667 248.16667 154.375 244.31267 154.375 240.438 c 0
 154.375 228.8127 154.75 217 155.5 205 c 0
 156.5 189 157.66667 174.1667 159 160.5 c 0
 160.33333 146.8333 161.66667 137.6667 163 133 c 1
 173 136.33333 182 140.16667 190 144.5 c 0
 198 148.83333 206.6667 154 216 160 c 0
 217.33333 161.33333 218.66667 161.16667 220 159.5 c 0
 221.33333 157.83333 222 156.33333 222 155 c 0
 220 133 217.83333 113.3333 215.5 96 c 0
 213.16667 78.6667 209.66667 61.6667 205 45 c 1
 197 39 188.6667 33.3333 180 28 c 0
 171.33333 22.66667 162.6667 17.6667 154 13 c 0
 145.3333 8.3333 137.5 4.33333 130.5 1 c 0
 123.5 -2.33333 117.6667 -5 113 -7 c 0
EndSplineSet
EndChar

StartChar: uni0422
Encoding: 1058 1058 52
Width: 718
Flags: HW
LayerCount: 3
Fore
SplineSet
217 -455 m 1xe0
 217 -430 l 1
 272 -430 l 1xe0
 298 495 l 1
 193 495 l 1
 191 482 189 467 187 451 c 2
 181 399 l 2
 177 365 174 328 171 294 c 1
 160 294 l 1
 120 377 82 437 19 505 c 0
 17 507 16 509 16 511 c 0
 16 512 17 513 17 514 c 0
 17 516 18 518 19 520 c 1
 699 520 l 1
 699 518 699 516 700 514 c 0
 700 512 700 510 700 509 c 0
 700 507 700 506 699 505 c 0
 636 437 598 377 558 294 c 1
 547 294 l 1
 544 328 541 365 537 399 c 2
 531 451 l 2
 529 467 527 482 525 495 c 1
 418 495 l 1xd0
 404 -430 l 1
 459 -430 l 1
 459 -455 l 1
 217 -455 l 1xe0
EndSplineSet
Validated: 1
Layer: 2
SplineSet
217 -455 m 1
 217 -430 l 1
 272 -430 l 1
 298 495 l 1
 193 495 l 1
 191 481.6667 189 466.8333 187 450.5 c 0
 185 434.1667 183 417 181 399 c 0
 179 381 177.16667 363 175.5 345 c 0
 173.83333 327 172.33333 310 171 294 c 1
 160 294 l 1
 142 331.3333 122.3333 366.8333 101 400.5 c 0
 79.6667 434.1667 52.3333 469 19 505 c 0
 16.33333 507.66667 15.66667 510.66667 17 514 c 0
 17 516 17.666667 518 19 520 c 2
 699 520 l 1
 699 518 699.333333 516 700 514 c 0
 700 512.66667 700.166667 511.16667 700.5 509.5 c 0
 700.833333 507.83333 700.333333 506.33333 699 505 c 0
 665.6667 469 638.3333 434.1667 617 400.5 c 0
 595.6667 366.8333 576 331.3333 558 294 c 1
 547 294 l 1
 545.66667 310 544.16667 327 542.5 345 c 0
 540.83333 363 539 381 537 399 c 0
 535 417 533 434.1667 531 450.5 c 0
 529 466.8333 527 481.6667 525 495 c 1
 418 495 l 1
 404 -430 l 1
 459 -430 l 1
 459 -455 l 1
 217 -455 l 1
EndSplineSet
EndChar

StartChar: uni0442
Encoding: 1090 1090 53
Width: 598
Flags: HW
LayerCount: 3
Fore
SplineSet
250.001 -0 m 1xe8
 250.001 135.934020542 261.727952344 283.303920319 276 406.995 c 1
 176 406.995 l 1
 166 379.995 166 338 166 303 c 0xd8
 166 293 165 283 165 273 c 0
 165 253 167 229 167 212 c 0
 167 207 167 203 167 199 c 1
 139 188 101 178 67 175 c 1
 60 178 l 1xe8
 63 246 68 315 68 385 c 0
 68 393 68 399.995 68 406.995 c 1xd8
 60 406.995 l 1
 55 409.995 53 415 53 422 c 0
 53 428 55 432.998 60 436.998 c 1
 587 436.998 l 2
 590 436.998 592 434 592 431 c 0
 592 429 591 426 590 425 c 2
 557 391 l 2
 528 361 494 326 476 287 c 0
 475 285 472 284 469 284 c 0
 465 284 463 285 463 287 c 0
 462 292 462 298 462 305 c 0
 462 320 462 336 462 351 c 0
 462 376 460 397.995 447 406.995 c 1
 376 406.995 l 1
 365 315.995 358 203 354 103 c 0
 352 65 351 31 351 -0 c 1
 333 -2 316 -3 300 -3 c 0
 284 -3 267.001 -2 250.001 -0 c 1xe8
EndSplineSet
Validated: 1
Layer: 2
SplineSet
587 437 m 2
 589.66667 437 591.33333 435.5 592 432.5 c 0
 592.66667 429.5 592 427 590 425 c 0
 579.3333 414.3333 568.3333 403.1667 557 391.5 c 0
 545.6667 379.8333 534.8333 368 524.5 356 c 0
 514.1667 344 504.6667 332 496 320 c 0
 487.3333 308 480.6667 297 476 287 c 0
 474.66667 285 472.16667 284 468.5 284 c 0
 464.83333 284 463 285 463 287 c 0
 462.333333 291.66667 462 297.6667 462 305 c 2
 462 328 l 1
 462 351.5 l 2
 462 359.16667 461.666667 365.6667 461 371 c 0
 459.66667 381.6667 458.16667 389.5 456.5 394.5 c 0
 454.83333 399.5 451.66667 403.66667 447 407 c 2
 376 407 l 1
 373.33333 385 370.5 357.1667 367.5 323.5 c 0
 364.5 289.8333 361.83333 254.1667 359.5 216.5 c 0
 357.16667 178.8333 355.16667 141 353.5 103 c 0
 351.83333 65 351 30.6667 351 0 c 1
 333 -2 316 -3 300 -3 c 0
 284 -3 267.3333 -2 250 0 c 1
 250 26.6667 250.666667 58 252 94 c 0
 253.333333 130 255.33333 166.8333 258 204.5 c 0
 260.66667 242.1667 263.5 278.8333 266.5 314.5 c 0
 269.5 350.1667 272.66667 381 276 407 c 1
 176 407 l 1
 174 401.66667 172.66667 396.5 172 391.5 c 0
 171.33333 386.5 170.66667 380.6667 170 374 c 0
 168.66667 362.6667 167.66667 350.8333 167 338.5 c 0
 166.33333 326.1667 166 314.3333 166 303 c 0
 165.333333 292.6667 165 282.5833 165 272.75 c 0
 165 262.9167 165.333333 253.3333 166 244 c 0
 166.888667 231.5553 167.333 220.7407 167.333 211.556 c 0
 167.333 206.96333 167.222 202.778 167 199 c 0
 151.6667 193 135.1667 187.8333 117.5 183.5 c 0
 99.8333 179.16667 83 176.33333 67 175 c 1
 60 178 l 1
 60.666667 192.6667 61.5 210.5 62.5 231.5 c 0
 63.5 252.5 64.5 273.8333 65.5 295.5 c 0
 66.5 317.1667 67.33333 337.8333 68 357.5 c 0
 68.333333 367.33333 68.5 376.375 68.5 384.625 c 0
 68.5 392.875 68.333333 400.3333 68 407 c 1
 60 407 l 2
 55.33333 410.33333 53 415.16667 53 421.5 c 0
 53 427.83333 55.33333 433 60 437 c 1
 587 437 l 2
EndSplineSet
EndChar

StartChar: uni0423
Encoding: 1059 1059 54
Width: 667
Flags: HW
LayerCount: 3
Fore
SplineSet
351 -394 m 1
 357 -415 369 -435 394 -435 c 2
 428 -435 l 1
 428 -460 l 1
 236 -460 l 1
 236 -435 l 1
 275 -435 l 2
 300 -435 318.002 -422 327.002 -396 c 1
 329.002 -317 330 -238 335 -156 c 1
 322 -112 318 -76 306 -25 c 0
 277 87 235 200 192 300 c 0
 168 354 141 412 112 453 c 1
 47 423 l 1
 41 426 36 435 37 445 c 1
 200 520 l 1
 213 520 l 1
 244 482 274 418 298 366 c 0
 323 309 352 237 371 180 c 1
 388 245 401 305 423 368 c 0
 436 406 450 439 463 466 c 1
 490 489 535 515 582 515 c 0
 609 515 642 525 657 540 c 1
 666 533 667 524 667 508 c 0
 667 495 663 486 655 480 c 0
 647 475 636 468 623 461 c 0
 609 453 599 443 594 431 c 1
 596 416 600 400 600 383 c 0
 600 378 599 372 598 367 c 1
 590 362 l 1
 578 376 566 390 554 404 c 1
 532 426 l 1
 510 440 l 1
 501 434 493 433 486 426 c 1
 454 369 431 320 413 247 c 1
 389 161 373 77 367 -25 c 1
 358 -149 354 -275 351 -394 c 1
EndSplineSet
Validated: 1
Layer: 2
SplineSet
236 -460 m 1
 236 -435 l 1
 275 -435 l 2
 300.3333 -435 317.6667 -422 327 -396 c 1
 327.666667 -362 328.5 -325 329.5 -285 c 0
 330.5 -245 332.33333 -202 335 -156 c 0
 333 -149.33333 331.16667 -142.5 329.5 -135.5 c 0
 327.83333 -128.5 326.66667 -123.3333 326 -120 c 0
 321.33333 -92 314.5 -60.5 305.5 -25.5 c 0
 296.5 9.5 286 45.5 274 82.5 c 0
 262 119.5 248.8333 156.6667 234.5 194 c 0
 220.1667 231.3333 205.8333 266.5 191.5 299.5 c 0
 177.1667 332.5 163.1667 362.3333 149.5 389 c 0
 135.8333 415.6667 123.3333 437 112 453 c 1
 47 423 l 2
 44.33333 424.33333 41.83333 427 39.5 431 c 0
 37.16667 435 36.33333 439.66667 37 445 c 1
 200 521 l 1
 213 521 l 1
 225 506.3333 238.5 485 253.5 457 c 0
 268.5 429 283.3333 398.5 298 365.5 c 0
 312.6667 332.5 326.5 299.5 339.5 266.5 c 0
 352.5 233.5 363 204.6667 371 180 c 1
 380 215 l 1
 389 253 l 2
 398.33333 291 409.6667 329.1667 423 367.5 c 0
 436.3333 405.8333 449.6667 438.6667 463 466 c 1
 472.33333 474 483.3333 481.6667 496 489 c 0
 508.6667 496.3333 522 502.3333 536 507 c 0
 553.3333 512.33333 568.6667 515 582 515 c 0
 595.3333 515 609.6667 517.33333 625 522 c 0
 638.3333 526 649 532 657 540 c 1
 662 536 l 2
 664.66667 532 666.16667 527.66667 666.5 523 c 0
 666.83333 518.33333 667 513.33333 667 508 c 0
 667 495.3333 663 486.1667 655 480.5 c 0
 647 474.8333 636.3333 468.3333 623 461 c 0
 609 453 599.3333 443 594 431 c 1
 595.33333 419 596.83333 407.6667 598.5 397 c 0
 600.16667 386.3333 600 376.3333 598 367 c 1
 590 362 l 1
 573 382 l 1
 554 404 l 1
 532 426 l 1
 510 440 l 1
 505.33333 436.66667 501 434.33333 497 433 c 0
 493 431.66667 489.33333 429.33333 486 426 c 0
 470.6667 398.6667 457 371.1667 445 343.5 c 0
 433 315.8333 422.3333 283.6667 413 247 c 0
 405.66667 221 399.5 196.5 394.5 173.5 c 0
 389.5 150.5 385.16667 128.3333 381.5 107 c 0
 377.83333 85.6667 374.83333 64.1667 372.5 42.5 c 0
 370.16667 20.8333 368.33333 -1.6667 367 -25 c 0
 361.66667 -97 358 -164.333 356 -227 c 0
 354 -289.6667 352.33333 -345.333 351 -394 c 0
 354.33333 -406 359.5 -415.8333 366.5 -423.5 c 0
 373.5 -431.1667 382.6667 -435 394 -435 c 2
 428 -435 l 1
 428 -460 l 1
 236 -460 l 1
EndSplineSet
EndChar

StartChar: uni0443
Encoding: 1091 1091 55
Width: 461
Flags: HW
LayerCount: 3
Fore
SplineSet
234 0 m 1
 208 -6 188 -6 159 -6 c 0
 153 -6 148 -6 142 -6 c 1
 136 45 126 108 118 163 c 1
 100 269 l 2
 93 305 87 337 81 366 c 0
 80 374 76 383 71 394 c 1
 57 418 l 1
 58 425 l 1
 95 436 126 439 170 442 c 1
 183 371 196 301 208 229 c 2
 225 127 l 2
 230 94 235 65 238 39 c 1
 255 140 266 232 283 334 c 0
 290 373 313 405 348 417 c 0
 376 427 415 436 449 440 c 1
 451 432 452 425 452 419 c 0
 452 406 449 395.001 447 381.001 c 1
 410 376.001 374 368 353 344 c 0
 343 332 336 320 336 308 c 0
 336 263 326 217 320 172 c 2
 312 104 l 2
 307 70 305 29 298 -5 c 1
 275 -175 252 -318 207 -459 c 0
 199 -481 194 -496.998 170 -502.998 c 1
 161 -497.998 156 -491 156 -481 c 1
 170 -475 176 -468 179 -452 c 0
 208 -309 234 -167 234 0 c 1
EndSplineSet
Validated: 1
Layer: 2
SplineSet
179 -452 m 0
 194.3333 -377.3333 207.3333 -302.833 218 -228.5 c 0
 228.6667 -154.167 234 -77.333 234 2 c 1
 218 -1.33333 203 -3.66667 189 -5 c 0
 179.66667 -5.888887 169.5927 -6.33333 158.778 -6.33333 c 0
 153.37067 -6.33333 147.778 -6.22222 142 -6 c 1
 140 12 136.83333 36 132.5 66 c 0
 128.16667 96 123.16667 128.5 117.5 163.5 c 0
 111.83333 198.5 105.8333 233.8333 99.5 269.5 c 0
 93.16667 305.1667 87 337.3333 81 366 c 0
 79.66667 374 76.16667 383.1667 70.5 393.5 c 0
 64.83333 403.8333 60.3333 412 57 418 c 1
 58 425 l 1
 76.6667 430.33333 94.6667 434.16667 112 436.5 c 0
 129.3333 438.83333 148.6667 440.66667 170 442 c 1
 176 408.6667 182.3333 373.8333 189 337.5 c 0
 195.6667 301.1667 202 265.1667 208 229.5 c 0
 214 193.8333 219.6667 159.6667 225 127 c 0
 230.3333 94.3333 234.66667 65 238 39 c 1
 242.66667 67 246.66667 92.8333 250 116.5 c 0
 253.33333 140.1667 256.83333 163.3333 260.5 186 c 0
 264.16667 208.6667 267.66667 231.8333 271 255.5 c 0
 274.33333 279.1667 278.33333 305.3333 283 334 c 0
 284.33333 341.33333 286.83333 349.3333 290.5 358 c 0
 294.16667 366.6667 298 374 302 380 c 0
 307.33333 388 313.5 395.1667 320.5 401.5 c 0
 327.5 407.8333 336.6667 413 348 417 c 0
 362.6667 422.33333 379 427 397 431 c 0
 415 435 432.3333 438 449 440 c 1
 452.33333 428 453.16667 417.6667 451.5 409 c 0
 449.83333 400.3333 448.33333 391 447 381 c 1
 437 379.66667 427.5 377.83333 418.5 375.5 c 0
 409.5 373.16667 399.3333 370.33333 388 367 c 0
 374.6667 363 363 355.1667 353 343.5 c 0
 343 331.8333 337.3333 320 336 308 c 0
 333.33333 284 330.66667 260.8333 328 238.5 c 0
 325.33333 216.1667 322.66667 194 320 172 c 0
 317.33333 150 314.5 127.3333 311.5 104 c 0
 308.5 80.6667 305.66667 56 303 30 c 0
 302.333333 24.66667 301.66667 19 301 13 c 0
 300.33333 7 299.33333 1 298 -5 c 0
 286 -95 273 -176.833 259 -250.5 c 0
 245 -324.167 227.6667 -393.667 207 -459 c 0
 203 -470.3333 198.66667 -479.8333 194 -487.5 c 0
 189.33333 -495.1667 181.3333 -500.3333 170 -503 c 1
 161.33333 -498.33333 156.6667 -491 156 -481 c 1
 163.33333 -477.66667 168.6667 -473.83333 172 -469.5 c 0
 175.3333 -465.16667 177.66667 -459.3333 179 -452 c 0
EndSplineSet
AlternateSubs2: "'salt' Stylistic Alternatives lookup 2-1" uni0443.salt
EndChar

StartChar: uni0478
Encoding: 1144 1144 56
Width: 1078
Flags: HW
LayerCount: 3
Fore
SplineSet
755 -6 m 1
 749 45 739 108 731 163 c 1
 713 269 l 2
 706 305 700 337 694 366 c 0
 693 374 689 383 684 394 c 1
 670 418 l 1
 671 425 l 1
 708 436 739 439 783 442 c 1
 796 371 809 301 821 229 c 2
 838 127 l 2
 843 94 848 65 851 39 c 1
 868 140 879 232 896 334 c 0
 903 373 926 405 961 417 c 0
 989 427 1028 436 1062 440 c 1
 1064 432 1065 425 1065 419 c 0
 1065 406 1062 395.001 1060 381.001 c 1
 1023 376.001 987 368 966 344 c 0
 956 332 950 320 949 308 c 0
 944 263 939 217 933 172 c 2
 925 104 l 2
 920 70 918 29 911 -5 c 1
 888 -175 865 -318 820 -459 c 0
 812 -481 807 -496.998 783 -502.998 c 1
 774 -497.998 770 -491 769 -481 c 1
 783 -475 789 -468 792 -452 c 0
 821 -309 847 -167 847 0 c 1
 821 -5 783 -6 755 -6 c 1
323 504.998 m 0
 273 504.998 248 465 232 425 c 0
 191 327 191 177 191 40 c 2
 191 32 l 2
 191 -74 194 -186 209 -277 c 0
 219 -335 237 -388 269 -420 c 0
 284 -434 302 -441 323 -441 c 0
 373 -441 398 -401 414 -362 c 0
 455 -263 455.008 -113 455.008 24 c 2
 455.008 32 l 2
 455.008 138 452 250 437 341 c 0
 427 399 409 452 377 483 c 0
 362 498 344 504.998 323 504.998 c 0
323 -465.002 m 0
 286 -465.002 251 -454 220 -431 c 0
 149 -379 107 -284 85 -176 c 0
 72 -115 65 -45 65 32 c 0
 65 178 89 305 139 396 c 0
 162 439 189 472 220 495 c 0
 251 518 286 529 323 529 c 0
 360 529 395 518 426 495 c 0
 497 443 539 348 562 240 c 0
 575 179 581 109 581 32 c 0
 581 -114 557 -241 508 -333 c 0
 485 -376 457 -408 426 -431 c 0
 395 -454 360 -465.002 323 -465.002 c 0
EndSplineSet
Validated: 1
Layer: 2
SplineSet
792 -452 m 0
 807.3333 -377.3333 820.3333 -302.833 831 -228.5 c 0
 841.6667 -154.167 847 -77.333 847 2 c 1
 831 -1.33333 816 -3.66667 802 -5 c 0
 792.66667 -5.888887 782.5927 -6.33333 771.778 -6.33333 c 0
 766.37067 -6.33333 760.778 -6.22222 755 -6 c 1
 753 12 749.83333 36 745.5 66 c 0
 741.16667 96 736.16667 128.5 730.5 163.5 c 0
 724.83333 198.5 718.8333 233.8333 712.5 269.5 c 0
 706.16667 305.1667 700 337.3333 694 366 c 0
 692.66667 374 689.16667 383.1667 683.5 393.5 c 0
 677.83333 403.8333 673.3333 412 670 418 c 1
 671 425 l 1
 689.6667 430.33333 707.6667 434.16667 725 436.5 c 0
 742.3333 438.83333 761.6667 440.66667 783 442 c 1
 789 408.6667 795.3333 373.8333 802 337.5 c 0
 808.6667 301.1667 815 265.1667 821 229.5 c 0
 827 193.8333 832.6667 159.6667 838 127 c 0
 843.3333 94.3333 847.66667 65 851 39 c 1
 855.66667 67 859.66667 92.8333 863 116.5 c 0
 866.33333 140.1667 869.83333 163.3333 873.5 186 c 0
 877.16667 208.6667 880.66667 231.8333 884 255.5 c 0
 887.33333 279.1667 891.33333 305.3333 896 334 c 0
 897.33333 341.33333 899.83333 349.3333 903.5 358 c 0
 907.16667 366.6667 911 374 915 380 c 0
 920.33333 388 926.5 395.1667 933.5 401.5 c 0
 940.5 407.8333 949.6667 413 961 417 c 0
 975.6667 422.33333 992 427 1010 431 c 0
 1028 435 1045.3333 438 1062 440 c 1
 1065.33333 428 1066.16667 417.6667 1064.5 409 c 0
 1062.83333 400.3333 1061.33333 391 1060 381 c 1
 1050 379.66667 1040.5 377.83333 1031.5 375.5 c 0
 1022.5 373.16667 1012.3333 370.33333 1001 367 c 0
 987.6667 363 976 355.1667 966 343.5 c 0
 956 331.8333 950.3333 320 949 308 c 0
 946.33333 284 943.66667 260.8333 941 238.5 c 0
 938.33333 216.1667 935.66667 194 933 172 c 0
 930.33333 150 927.5 127.3333 924.5 104 c 0
 921.5 80.6667 918.66667 56 916 30 c 0
 915.333333 24.66667 914.66667 19 914 13 c 0
 913.33333 7 912.33333 1 911 -5 c 0
 899 -95 886 -176.833 872 -250.5 c 0
 858 -324.167 840.6667 -393.667 820 -459 c 0
 816 -470.3333 811.66667 -479.8333 807 -487.5 c 0
 802.33333 -495.1667 794.3333 -500.3333 783 -503 c 1
 774.33333 -498.33333 769.6667 -491 769 -481 c 1
 776.33333 -477.66667 781.6667 -473.83333 785 -469.5 c 0
 788.3333 -465.16667 790.66667 -459.3333 792 -452 c 0
323 505 m 0
 301.6667 505 283.6667 497.83333 269 483.5 c 0
 254.3333 469.1667 242 449.8333 232 425.5 c 0
 222 401.1667 214.3333 373 209 341 c 0
 203.6667 309 199.66667 275.5 197 240.5 c 0
 194.33333 205.5 192.66667 170 192 134 c 0
 191.33333 98 191 64 191 32 c 0
 191 0 191.333333 -34 192 -70 c 0
 192.666667 -106 194.33333 -141.5 197 -176.5 c 0
 199.66667 -211.5 203.66667 -245 209 -277 c 0
 214.33333 -309 222 -337.1667 232 -361.5 c 0
 242 -385.8333 254.3333 -405.1667 269 -419.5 c 0
 283.6667 -433.8333 301.6667 -441 323 -441 c 0
 344.3333 -441 362.3333 -433.83333 377 -419.5 c 0
 391.6667 -405.16667 404 -385.8333 414 -361.5 c 0
 424 -337.1667 431.6667 -309 437 -277 c 0
 442.3333 -245 446.33333 -211.5 449 -176.5 c 0
 451.66667 -141.5 453.33333 -106 454 -70 c 0
 454.66667 -34 455 0 455 32 c 0
 455 64 454.666667 98 454 134 c 0
 453.333333 170 451.66667 205.5 449 240.5 c 0
 446.33333 275.5 442.33333 309 437 341 c 0
 431.66667 373 424 401.1667 414 425.5 c 0
 404 449.8333 391.6667 469.1667 377 483.5 c 0
 362.3333 497.8333 344.3333 505 323 505 c 0
323 -465 m 0
 285.6667 -465 251.3333 -453.6667 220 -431 c 0
 188.6667 -408.3333 161.5 -375.5 138.5 -332.5 c 0
 115.5 -289.5 97.5 -237.3333 84.5 -176 c 0
 71.5 -114.6667 65 -45.333 65 32 c 0
 65 109.333 71.5 178.667 84.5 240 c 0
 97.5 301.3333 115.5 353.5 138.5 396.5 c 0
 161.5 439.5 188.6667 472.3333 220 495 c 0
 251.3333 517.6667 285.6667 529 323 529 c 0
 360.3333 529 394.6667 517.6667 426 495 c 0
 457.3333 472.3333 484.5 439.5 507.5 396.5 c 0
 530.5 353.5 548.5 301.3333 561.5 240 c 0
 574.5 178.6667 581 109.333 581 32 c 0
 581 -45.333 574.5 -114.667 561.5 -176 c 0
 548.5 -237.333 530.5 -289.5 507.5 -332.5 c 0
 484.5 -375.5 457.3333 -408.3333 426 -431 c 0
 394.6667 -453.6667 360.3333 -465 323 -465 c 0
EndSplineSet
AlternateSubs2: "'salt' Stylistic Alternatives lookup 2-1" uni0478.salt
Ligature2: "'ccmp' Glyph Composition/Decomposition lookup 0-1" uni041E uni0443
EndChar

StartChar: uni0479
Encoding: 1145 1145 57
Width: 722
Flags: HW
LayerCount: 3
Fore
SplineSet
495 0 m 1
 469 -6 449 -6 420 -6 c 0
 414 -6 409 -6 403 -6 c 1
 397 45 387 108 379 163 c 1
 361 269 l 2
 354 305 348 337 342 366 c 0
 341 374 337 383 332 394 c 1
 318 418 l 1
 319 425 l 1
 356 436 387 439 431 442 c 1
 444 371 457 301 469 229 c 2
 486 127 l 2
 491 94 496 65 499 39 c 1
 516 140 527 232 544 334 c 0
 551 373 574 405 609 417 c 0
 637 427 676 436 710 440 c 1
 712 432 713 425 713 419 c 0
 713 406 710 395.001 708 381.001 c 1
 671 376.001 635 368 614 344 c 0
 604 332 597 320 597 308 c 0
 597 263 587 217 581 172 c 2
 573 104 l 2
 568 70 566 29 559 -5 c 1
 536 -175 513 -318 468 -459 c 0
 460 -481 455 -496.998 431 -502.998 c 1
 422 -497.998 417 -491 417 -481 c 1
 431 -475 437 -468 440 -452 c 0
 469 -309 495 -167 495 0 c 1
191 447 m 0
 224 410 238 345 238 275 c 0
 238 148 192 47 121 -9 c 0
 118 -11 114 -13 110 -13 c 0
 107 -13 104 -12 103 -9 c 0
 76 42 58 102 58 178 c 0
 58 279 86 359 134 413 c 0
 146 427 159 438 174 447 c 0
 177 449 180 450 183 450 c 0
 186 450 189 449 191 447 c 0
161 154 m 1
 170 178 178 213 178 244 c 0
 178 246 178 248 178 250 c 0
 178 258 177 265 176 271 c 1
 166 277 159 280 150 280 c 0
 144 280 137 278 128 275 c 1
 116 255 112 217 112 186 c 0
 111 184 111 182 111 179 c 0
 111 171 112 164 113 158 c 1
 122 152 130 149 139 149 c 0
 146 149 153 150 161 154 c 1
EndSplineSet
Validated: 1
Layer: 2
SplineSet
440 -452 m 0
 455.3333 -377.3333 468.3333 -302.833 479 -228.5 c 0
 489.6667 -154.167 495 -77.333 495 2 c 1
 479 -1.33333 464 -3.66667 450 -5 c 0
 440.66667 -5.888887 430.5927 -6.33333 419.778 -6.33333 c 0
 414.37067 -6.33333 408.778 -6.22222 403 -6 c 1
 401 12 397.83333 36 393.5 66 c 0
 389.16667 96 384.16667 128.5 378.5 163.5 c 0
 372.83333 198.5 366.8333 233.8333 360.5 269.5 c 0
 354.16667 305.1667 348 337.3333 342 366 c 0
 340.66667 374 337.16667 383.1667 331.5 393.5 c 0
 325.83333 403.8333 321.3333 412 318 418 c 1
 319 425 l 1
 337.6667 430.33333 355.6667 434.16667 373 436.5 c 0
 390.3333 438.83333 409.6667 440.66667 431 442 c 1
 437 408.6667 443.3333 373.8333 450 337.5 c 0
 456.6667 301.1667 463 265.1667 469 229.5 c 0
 475 193.8333 480.6667 159.6667 486 127 c 0
 491.3333 94.3333 495.66667 65 499 39 c 1
 503.66667 67 507.66667 92.8333 511 116.5 c 0
 514.33333 140.1667 517.83333 163.3333 521.5 186 c 0
 525.16667 208.6667 528.66667 231.8333 532 255.5 c 0
 535.33333 279.1667 539.33333 305.3333 544 334 c 0
 545.33333 341.33333 547.83333 349.3333 551.5 358 c 0
 555.16667 366.6667 559 374 563 380 c 0
 568.33333 388 574.5 395.1667 581.5 401.5 c 0
 588.5 407.8333 597.6667 413 609 417 c 0
 623.6667 422.33333 640 427 658 431 c 0
 676 435 693.3333 438 710 440 c 1
 713.33333 428 714.16667 417.6667 712.5 409 c 0
 710.83333 400.3333 709.33333 391 708 381 c 1
 698 379.66667 688.5 377.83333 679.5 375.5 c 0
 670.5 373.16667 660.3333 370.33333 649 367 c 0
 635.6667 363 624 355.1667 614 343.5 c 0
 604 331.8333 598.3333 320 597 308 c 0
 594.33333 284 591.66667 260.8333 589 238.5 c 0
 586.33333 216.1667 583.66667 194 581 172 c 0
 578.33333 150 575.5 127.3333 572.5 104 c 0
 569.5 80.6667 566.66667 56 564 30 c 0
 563.333333 24.66667 562.66667 19 562 13 c 0
 561.33333 7 560.33333 1 559 -5 c 0
 547 -95 534 -176.833 520 -250.5 c 0
 506 -324.167 488.6667 -393.667 468 -459 c 0
 464 -470.3333 459.66667 -479.8333 455 -487.5 c 0
 450.33333 -495.1667 442.3333 -500.3333 431 -503 c 1
 422.33333 -498.33333 417.6667 -491 417 -481 c 1
 424.33333 -477.66667 429.6667 -473.83333 433 -469.5 c 0
 436.3333 -465.16667 438.66667 -459.3333 440 -452 c 0
191 447 m 0
 201 435.6667 209.3333 421.5 216 404.5 c 0
 222.6667 387.5 227.8333 368.6667 231.5 348 c 0
 235.1667 327.3333 237.16667 305.6667 237.5 283 c 0
 237.5373333 280.48133 237.556 277.96267 237.556 275.444 c 0
 237.556 255.296 236.37067 235.148 234 215 c 0
 227.33333 165.6667 214.1667 121.8333 194.5 83.5 c 0
 174.8333 45.1667 150.3333 14.3333 121 -9 c 0
 118.33333 -11 115 -12.33333 111 -13 c 0
 107 -13.66667 104.33333 -12.333333 103 -9 c 0
 85.6667 23.6667 73 60.1667 65 100.5 c 0
 60.2 124.7 57.8 150.64 57.8 178.32 c 0
 57.8 196.7733 58.86667 216 61 236 c 0
 63.66667 260 68.33333 282.8333 75 304.5 c 0
 81.66667 326.1667 90 346.1667 100 364.5 c 0
 110 382.8333 121.1667 399 133.5 413 c 0
 145.8333 427 159.3333 438.3333 174 447 c 0
 180.66667 451.66667 186.3333 451.66667 191 447 c 0
161 154 m 1
 163.66667 160.66667 166.16667 169.1667 168.5 179.5 c 0
 170.83333 189.8333 172.83333 200.5 174.5 211.5 c 0
 176.16667 222.5 177.16667 233.3333 177.5 244 c 0
 177.83333 254.6667 177.333333 263.6667 176 271 c 1
 167.33333 276.33333 159.5 279.16667 152.5 279.5 c 0
 145.5 279.83333 137.3333 278.33333 128 275 c 0
 124.66667 269.66667 121.83333 262 119.5 252 c 0
 117.16667 242 115.33333 231.3333 114 220 c 0
 112.66667 208.6667 111.83333 197.3333 111.5 186 c 0
 111.16667 174.6667 111.666667 165.3333 113 158 c 1
 121 152.66667 128.6667 149.66667 136 149 c 0
 143.3333 148.33333 151.6667 150 161 154 c 1
EndSplineSet
Ligature2: "'ccmp' Glyph Composition/Decomposition lookup 0-1" uni043E uni0443
Ligature2: "'ccmp' Glyph Composition/Decomposition lookup 0-1" uni1C82 uni0443
EndChar

StartChar: uniA64A
Encoding: 42570 42570 58
Width: 641
Flags: HW
LayerCount: 3
Fore
SplineSet
331 20 m 5
 337 21 344 22 351 22 c 4
 360 22 370 18 381 11 c 4
 422 -16 457 -61 482 -106 c 4
 496 -132 512 -165 512 -199 c 4
 512 -269 477 -331 440 -373 c 4
 395 -423 328 -463.997 237 -463.997 c 5
 196 -448.997 161 -406 138 -370 c 4
 116 -337 93.001 -290 93.001 -243 c 4
 93.001 -183 127 -132 158 -96 c 4
 192 -55 240 -15 290 7 c 5
 259 132 212 265 160 372 c 4
 143 407 127 436 112 458 c 5
 48 428 l 5
 42 431 38 440 38 450 c 5
 201 526 l 5
 214 526 l 5
 214 525 l 5
 267.541213164 447.365240912 312.113094723 344.203126351 348 250 c 5
 348 251 349 254 350 258 c 4
 368 328 396 414 424 471 c 5
 451 494 496 520 543 520 c 4
 570 520 603 530 618 545 c 5
 627 538 628 529 628 513 c 4
 628 500 624 491 616 486 c 4
 598.58195728 472.93646796 564.025688444 458.659652266 555 436.998 c 5
 557 421.998 561 405 561 388 c 4
 561 383 560 377 559 372 c 5
 551 367 l 5
 534 387 l 6
 517 408 496 434 471 445 c 5
 462 439 454 438 447 431 c 5
 415 373 394 324 374 252 c 4
 351 170 339 109 331 20 c 5
406 -366 m 5
 410 -344 412 -321 412 -296 c 4
 412 -201 375 -133 321 -86 c 4
 302 -70 275 -49 246 -49 c 5
 228 -59 206 -82 196 -99 c 5
 193 -112 191 -127 191 -142 c 4
 191 -245 230 -321 285 -370 c 4
 301 -384 325 -404 349 -404 c 5
 380 -387 l 6
 390 -381 399 -374 406 -366 c 5
EndSplineSet
Validated: 1
Layer: 2
SplineSet
512 -199 m 0
 512 -227 505.83333 -256.5 493.5 -287.5 c 0
 481.16667 -318.5 463.1667 -347.1667 439.5 -373.5 c 0
 415.8333 -399.8333 387 -421.5 353 -438.5 c 0
 319 -455.5 280.3333 -464 237 -464 c 1
 219 -457.33333 201.3333 -445.3333 184 -428 c 0
 166.6667 -410.6667 151.1667 -391.3333 137.5 -370 c 0
 123.8333 -348.6667 113 -326.6667 105 -304 c 0
 97 -281.3333 93 -261 93 -243 c 0
 93 -218.3333 99 -193.3333 111 -168 c 0
 123 -142.6667 138.5 -118.6667 157.5 -96 c 0
 176.5 -73.3333 197.6667 -53 221 -35 c 0
 244.3333 -17 267.3333 -3 290 7 c 1
 280.66667 45 269 85.6667 255 129 c 0
 241 172.3333 226 214.6667 210 256 c 0
 194 297.3333 177.3333 335.8333 160 371.5 c 0
 142.6667 407.1667 126.6667 436 112 458 c 1
 48 428 l 2
 45.33333 429.33333 42.83333 432 40.5 436 c 0
 38.16667 440 37.33333 444.66667 38 450 c 1
 201 526 l 1
 214 526 l 1
 214 525 l 1
 224.6667 509.6667 236.1667 490.8333 248.5 468.5 c 0
 260.8333 446.1667 273 422.3333 285 397 c 0
 297 371.6667 308.5 346.1667 319.5 320.5 c 0
 330.5 294.8333 340 271.3333 348 250 c 1
 348 251.33333 348.666667 254 350 258 c 0
 360 296 371.5 334.1667 384.5 372.5 c 0
 397.5 410.8333 410.6667 443.6667 424 471 c 1
 433.33333 479 444.3333 486.6667 457 494 c 0
 469.6667 501.3333 483 507.3333 497 512 c 0
 514.3333 517.33333 529.6667 520 543 520 c 0
 556.3333 520 570.6667 522.33333 586 527 c 0
 599.3333 531 610 537 618 545 c 1
 623 541 l 2
 625.66667 537 627.16667 532.66667 627.5 528 c 0
 627.83333 523.33333 628 518.33333 628 513 c 0
 628 500.3333 624 491.1667 616 485.5 c 0
 608 479.8333 597.3333 473.3333 584 466 c 0
 570 458 560.3333 448 555 436 c 1
 556.33333 424 557.83333 412.6667 559.5 402 c 0
 561.16667 391.3333 561 381.3333 559 372 c 1
 551 367 l 1
 545.66667 373 540 379.6667 534 387 c 0
 528 394.3333 521.5 401.8333 514.5 409.5 c 0
 507.5 417.1667 500.3333 424.1667 493 430.5 c 0
 485.6667 436.8333 478.3333 441.6667 471 445 c 1
 466.33333 441.66667 462 439.33333 458 438 c 0
 454 436.66667 450.33333 434.33333 447 431 c 0
 431.6667 403.6667 418.1667 376.1667 406.5 348.5 c 0
 394.8333 320.8333 384 288.6667 374 252 c 0
 361.3333 207.3333 351.8333 167 345.5 131 c 0
 339.1667 95 334.3333 58 331 20 c 1
 334.33333 20.666667 337.66667 21.16667 341 21.5 c 0
 344.33333 21.83333 347.66667 22 351 22 c 0
 359.66667 22 369.6667 18.33333 381 11 c 0
 392.3333 3.66667 404 -5.8333 416 -17.5 c 0
 428 -29.1667 439.6667 -42.8333 451 -58.5 c 0
 462.3333 -74.1667 472.5 -90.1667 481.5 -106.5 c 0
 490.5 -122.8333 497.8333 -139 503.5 -155 c 0
 509.1667 -171 512 -185.6667 512 -199 c 0
406 -366 m 1
 409.87867 -344.182 411.818 -320.9533 411.818 -296.314 c 0
 411.818 -287.07467 411.545333 -277.6367 411 -268 c 0
 409 -232.6667 400 -198.3333 384 -165 c 0
 376.66667 -151 367.5 -137.1667 356.5 -123.5 c 0
 345.5 -109.8333 333.6667 -97.5 321 -86.5 c 0
 308.3333 -75.5 295.3333 -66.6667 282 -60 c 0
 268.6667 -53.33333 256.6667 -49.6667 246 -49 c 1
 236.66667 -54.33333 227.3333 -61.8333 218 -71.5 c 0
 208.66667 -81.16667 201.3333 -90.3333 196 -99 c 0
 192.97 -112.3333 191.455 -126.7687 191.455 -142.306 c 0
 191.455 -143.85933 191.47 -145.424 191.5 -147 c 0
 191.833333 -164.3333 193.5 -181.8333 196.5 -199.5 c 0
 199.5 -217.1667 203.83333 -234.6667 209.5 -252 c 0
 215.16667 -269.3333 221.6667 -285.3333 229 -300 c 0
 235 -312 243 -324.1667 253 -336.5 c 0
 263 -348.8333 273.6667 -360 285 -370 c 0
 296.3333 -380 307.6667 -388.1667 319 -394.5 c 0
 330.3333 -400.8333 340.3333 -404 349 -404 c 1
 359 -398.66667 369.1667 -393 379.5 -387 c 0
 389.8333 -381 398.6667 -374 406 -366 c 1
EndSplineSet
EndChar

StartChar: uniA64B
Encoding: 42571 42571 59
Width: 460
Flags: HW
LayerCount: 3
Fore
SplineSet
609 812 m 0xd8
 609 779 590 744 576 721 c 2
 506 601 l 2
 443 494 376.995 409 289.995 323 c 1
 330 274 l 2
 355 244 376 211 389 172 c 0
 396 153 399 134 399 113 c 0
 399 59 366 27 328 10 c 0
 296 -6 253 -8 207 -8 c 0
 140 -8 97 19 74 64 c 0
 69 74 66.9971 85 66.9971 96 c 0xb8
 66.9971 132 92 162 112 186 c 0
 125 201 140 217 157 234 c 2
 209 285 l 1
 173.095577404 331.675749375 130.978584488 368.556190171 99 420 c 1
 79 449 l 1
 63 474 52.9961 499 52.9961 540 c 0
 52.9961 573 73 597 92 615 c 0
 113 633 142 651 172 658 c 0
 174 658 176 659 177 659 c 0
 185 659 190 654 190 647 c 0
 190 639.396944402 178.42178454 628.281189693 175 626 c 1
 167 617 l 2
 157 607 154 587 154 568 c 0
 154 546 157 529 163 515 c 0
 170 499 179 482 192 463 c 0
 211 435 229 406 248 379 c 2
 269 351 l 1
 358 456 427 567 495 693 c 0
 508 717 512.998 727 512.998 764 c 0
 512.998 774 509 779 500 779 c 0
 494 779 486 776 475 771 c 0
 473 770 471 770 469 770 c 0
 461 770 455 774 455 780 c 0
 455 782 456 785 459 787 c 0
 482 805 502 820 528 832 c 1
 550 841 l 2
 561 846 573 849 583 849 c 0
 594 849 604 845 607 831 c 0
 608 825 609 819 609 812 c 0xd8
227 260 m 1
 190.456201814 219.975840082 155 179.296411366 155 110 c 0
 155 66 175 22 219 22 c 0
 276 22 289.995 58 289.995 114 c 0
 289.995 145 284 171 272 193 c 0
 260 214 245 237 227 260 c 1
EndSplineSet
Validated: 1
Layer: 2
SplineSet
576 721 m 0
 550.6667 676.3333 527.5 636.3333 506.5 601 c 0
 485.5 565.6667 464.3333 532.6667 443 502 c 0
 421.6667 471.3333 399 441.6667 375 413 c 0
 351 384.3333 323 354.3333 291 323 c 1
 304.3333 306.3333 317.5 290 330.5 274 c 0
 343.5 258 355 241.5 365 224.5 c 0
 375 207.5 383.1667 189.8333 389.5 171.5 c 0
 395.8333 153.1667 399 133.6667 399 113 c 0
 399 97 396 82.3333 390 69 c 0
 384 55.6667 375.6667 44 365 34 c 0
 354.3333 24 342.1667 15.8333 328.5 9.5 c 0
 314.8333 3.16667 300.6667 -1 286 -3 c 0
 272.6667 -5 259.3333 -6.33333 246 -7 c 0
 232.6667 -7.666667 219.6667 -8 207 -8 c 0
 195.6667 -8 184.3333 -7.166667 173 -5.5 c 0
 161.6667 -3.833333 150.6667 -1 140 3 c 0
 132.66667 5.66667 124.8333 10 116.5 16 c 0
 108.1667 22 100.3333 29 93 37 c 0
 85.6667 45 79.5 54 74.5 64 c 0
 69.5 74 67 84.6667 67 96 c 0
 67 110 71.16667 124.5 79.5 139.5 c 0
 87.83333 154.5 98.6667 169.8333 112 185.5 c 0
 125.3333 201.1667 140.5 217.3333 157.5 234 c 0
 174.5 250.6667 191.6667 267.6667 209 285 c 1
 199 298.3333 189.1667 310.5 179.5 321.5 c 0
 169.8333 332.5 160.5 343.1667 151.5 353.5 c 0
 142.5 363.8333 133.5 374.3333 124.5 385 c 0
 115.5 395.6667 107 407.3333 99 420 c 0
 91.66667 430.6667 85.1667 440.3333 79.5 449 c 0
 73.8333 457.6667 69 466.5 65 475.5 c 0
 61 484.5 58 494.1667 56 504.5 c 0
 54 514.8333 53 526.6667 53 540 c 0
 53 554 56.66667 567.3333 64 580 c 0
 71.33333 592.6667 80.6667 604.1667 92 614.5 c 0
 103.3333 624.8333 116 633.8333 130 641.5 c 0
 144 649.1667 158 654.6667 172 658 c 0
 179.33333 660 184.8333 658.5 188.5 653.5 c 0
 192.1667 648.5 191.33333 643 186 637 c 0
 181.33333 631.66667 177.83333 627.83333 175.5 625.5 c 2
 167 617 l 2
 161.66667 611.66667 158.33333 605 157 597 c 0
 155.66667 589 154.66667 581.3333 154 574 c 0
 153.9393333 571.818 153.909 569.67067 153.909 567.558 c 0
 153.909 546.4287 156.93933 528.7427 163 514.5 c 0
 169.66667 498.8333 179.3333 481.6667 192 463 c 0
 199.33333 451.6667 206.1667 441.3333 212.5 432 c 0
 218.8333 422.6667 224.8333 413.6667 230.5 405 c 0
 236.1667 396.3333 242.1667 387.6667 248.5 379 c 0
 254.8333 370.3333 261.6667 361 269 351 c 1
 313 403 353.1667 457.333 389.5 514 c 0
 425.8333 570.6667 461 630.333 495 693 c 0
 501 704.3333 505.5 714.5 508.5 723.5 c 0
 511.5 732.5 513 746 513 764 c 0
 513 773.69 508.71833 778.535 500.155 778.535 c 0
 493.98967 778.535 485.6047 776.02333 475 771 c 0
 467.66667 767.66667 461.8333 768.5 457.5 773.5 c 0
 453.1667 778.5 453.66667 783 459 787 c 0
 469 795 478 801.6667 486 807 c 0
 494 812.3333 501.3333 817 508 821 c 0
 514.66667 825 521.3333 828.5 528 831.5 c 0
 534.6667 834.5 542 837.66667 550 841 c 0
 562.6667 846.33333 572.8333 849.16667 580.5 849.5 c 0
 588.1667 849.83333 594.1667 848.16667 598.5 844.5 c 0
 602.8333 840.83333 605.66667 836.16667 607 830.5 c 0
 608.33333 824.83333 609 818.6667 609 812 c 0
 609 798 605.66667 783 599 767 c 0
 592.33333 751 584.6667 735.6667 576 721 c 0
290 114 m 0
 290 144.6667 284 170.8333 272 192.5 c 0
 260 214.1667 245 236.6667 227 260 c 1
 205.6667 237.3333 188.3333 214.1667 175 190.5 c 0
 161.6667 166.8333 155 140 155 110 c 0
 155 100 156.33333 89.6667 159 79 c 0
 161.66667 68.3333 165.5 58.8333 170.5 50.5 c 0
 175.5 42.1667 182 35.3333 190 30 c 0
 198 24.66667 207.6667 22 219 22 c 0
 235 22 247.8333 24.66667 257.5 30 c 0
 267.16667 35.33333 274.3333 42.3333 279 51 c 0
 283.6667 59.6667 286.66667 69.5 288 80.5 c 0
 289.33333 91.5 290 102.6667 290 114 c 0
EndSplineSet
AlternateSubs2: "'salt' Stylistic Alternatives lookup 2-1" uniA64B.salt uniA64B.salt2 uniA64B.salt3
EndChar

StartChar: uni0424
Encoding: 1060 1060 60
Width: 859
Flags: HW
LayerCount: 3
Fore
SplineSet
279 -455 m 1xfc80
 279 -430 l 1
 342 -430 l 1
 342 -170 l 1xfc80
 233 -158 135 -120 84 -48 c 0
 66 -22 57 10 57 48 c 0
 57 128 106 178 158 211 c 0
 209 244 281 267 353 276 c 1xfa80
 360 495 l 1
 306 495 l 1
 306 520 l 1
 536 520 l 1
 536 495 l 1
 480 495 l 1xf980
 477 275 l 1xfa80
 587 261 686 223 738 150 c 0
 756 124 765 93 765 58 c 0
 765 -25 717 -76 662 -108 c 0
 610 -140 539 -161 470 -170 c 1
 466 -430 l 1
 521 -430 l 1
 521 -455 l 1
 279 -455 l 1xfc80
182 50 m 0
 182 -30 229 -84 280 -115 c 0
 300 -126 320 -135 342 -141 c 1xfc80
 353 246 l 1xfa80
 280 227 223 181 195 117 c 0
 186 96 182 74 182 50 c 0
640 60 m 0
 640 112 618 150 592 179 c 0
 564 210 522 234 477 246 c 1xfa80
 471 -143 l 1
 542 -124 600 -75 626 -10 c 0
 635 12 640 35 640 60 c 0
EndSplineSet
Validated: 1
Layer: 2
SplineSet
279 -455 m 1
 279 -430 l 1
 334 -430 l 1
 342 -170 l 1
 312 -166.66667 280.3333 -160.5 247 -151.5 c 0
 213.6667 -142.5 182.8333 -129.5 154.5 -112.5 c 0
 126.1667 -95.5 102.8333 -74 84.5 -48 c 0
 66.1667 -22 57 10 57 48 c 0
 57 84.6667 66.5 116.3333 85.5 143 c 0
 104.5 169.6667 128.5 192.3333 157.5 211 c 0
 186.5 229.6667 218.5 244.1667 253.5 254.5 c 0
 288.5 264.8333 322 272 354 276 c 1
 360 495 l 1
 306 495 l 1
 306 520 l 1
 536 520 l 1
 536 495 l 1
 480 495 l 1
 477 275 l 1
 509 271 542 264.1667 576 254.5 c 0
 610 244.83333 641 231.3333 669 214 c 0
 697 196.6667 720 175.1667 738 149.5 c 0
 756 123.8333 765 93.3333 765 58 c 0
 765 19.3333 755.33333 -13.6667 736 -41 c 0
 716.6667 -68.3333 692.1667 -90.8333 662.5 -108.5 c 0
 632.8333 -126.1667 600.8333 -139.8333 566.5 -149.5 c 0
 532.1667 -159.1667 500 -166 470 -170 c 1
 466 -430 l 1
 521 -430 l 1
 521 -455 l 1
 279 -455 l 1
182 50 m 0
 182 26 186.33333 3.6667 195 -17 c 0
 203.66667 -37.6667 215.1667 -56.1667 229.5 -72.5 c 0
 243.8333 -88.8333 260.8333 -102.8333 280.5 -114.5 c 0
 300.1667 -126.1667 321 -135 343 -141 c 1
 353 246 l 1
 329.6667 240 307.6667 231 287 219 c 0
 266.3333 207 248.1667 192.3333 232.5 175 c 0
 216.8333 157.6667 204.5 138.5 195.5 117.5 c 0
 186.5 96.5 182 74 182 50 c 0
640 60 m 0
 640 83.3333 635.66667 105 627 125 c 0
 618.33333 145 606.6667 163 592 179 c 0
 577.3333 195 560 208.5 540 219.5 c 0
 520 230.5 499 239 477 245 c 1
 471 -143 l 1
 493.6667 -137 515.1667 -127.6667 535.5 -115 c 0
 555.8333 -102.3333 573.8333 -87.1667 589.5 -69.5 c 0
 605.1667 -51.8333 617.5 -32 626.5 -10 c 0
 635.5 12 640 35.3333 640 60 c 0
EndSplineSet
EndChar

StartChar: uni0444
Encoding: 1092 1092 61
Width: 705
Flags: HW
LayerCount: 3
Fore
SplineSet
298 791 m 1xb880
 280 788 265 787 246 787 c 1
 241 790 239 795 239 800 c 0
 239 806 241 813 244 817 c 1xd880
 316 823 382 832 443 848 c 1
 449 847 454 836 454 828 c 0
 454 824 453 820 451 818 c 1
 445 817 439 815 434 814 c 2
 420 810 l 1
 420 795 416 776 416 753 c 1xb880
 412 675 l 2
 408 616 404 547 404 485 c 1
 423 462 450 437 486 408 c 0
 511 388 535 369 558 348 c 2
 586 323 l 2
 613 298 635 262 646 222 c 0
 649 208 651 194 651 180 c 0
 651 115 613 75 571 48 c 0
 525 20 461 2 395 -6 c 1
 391 -171 385 -340 381 -498 c 1
 370 -504 365 -509 349 -509 c 0
 334 -509 326 -505 318 -498 c 1
 318 -421 315 -343 315 -262 c 0xb180
 315 -182 315 -98 315 -10 c 1xb280
 209 -6 117 34 72 101 c 0
 57 124 50 149 50 177 c 0
 50 202 56 224 68 243 c 0
 87 272 124 307 152 331 c 0
 202 372 266 411 290 475 c 0
 300 501 307 529 310 558 c 1
 308 637 301 718 298 791 c 1xb880
315 32 m 1x9280
 315 449 l 1x9180
 310 438 302 427 295 418 c 0
 264 377 226 337 198 293 c 0
 179 263 166 232 166 184 c 0
 166 141 191 106 214 83 c 1
 235 60 278 43 315 32 c 1x9280
546 182 m 0
 546 272 476 308 421 344 c 0
 415 348 409 352 402 355 c 1x9480
 402 244 399 133 396 24 c 1x9280
 460 33 509 71 533 121 c 0
 542 140 546 160 546 182 c 0
EndSplineSet
Validated: 1
Layer: 2
SplineSet
651 180 m 0
 651 150.6667 643.66667 125.1667 629 103.5 c 0
 614.33333 81.8333 595 63.5 571 48.5 c 0
 547 33.5 519.6667 21.6667 489 13 c 0
 458.3333 4.33333 427 -2 395 -6 c 1
 393 -95.3333 390.66667 -181.5 388 -264.5 c 0
 385.33333 -347.5 383 -425.333 381 -498 c 1
 375 -501.33333 370 -504 366 -506 c 0
 362 -508 356.33333 -509 349 -509 c 0
 341.66667 -509 335.6667 -508 331 -506 c 0
 326.3333 -504 322 -501.33333 318 -498 c 0
 316.66667 -421.3333 316 -342.833 316 -262.5 c 0
 316 -182.167 315.666667 -98 315 -10 c 1
 281.6667 -8.66667 249.1667 -3.5 217.5 5.5 c 0
 185.8333 14.5 157.5 27 132.5 43 c 0
 107.5 59 87.5 78.3333 72.5 101 c 0
 57.5 123.6667 50 149 50 177 c 0
 50 201.6667 56.16667 223.6667 68.5 243 c 0
 80.8333 262.3333 97.6667 281.6667 119 301 c 0
 131 312.3333 142.1667 322.3333 152.5 331 c 0
 162.8333 339.6667 172.8333 347.8333 182.5 355.5 c 0
 192.1667 363.1667 202 371 212 379 c 0
 222 387 232.6667 396.3333 244 407 c 0
 265.3333 427 280.8333 449.8333 290.5 475.5 c 0
 300.1667 501.1667 306.6667 528.6667 310 558 c 1
 308.66667 602.6667 306.66667 644.8333 304 684.5 c 0
 301.33333 724.1667 299.33333 759.6667 298 791 c 1
 288.66667 789.66667 279.8333 788.83333 271.5 788.5 c 0
 263.1667 788.16667 254.6667 787.666667 246 787 c 0
 240.66667 789.66667 238.33333 794.33333 239 801 c 0
 239.66667 807.66667 241.33333 813 244 817 c 0
 261.3333 818.33333 279 819.83333 297 821.5 c 0
 315 823.16667 333.6667 825.66667 353 829 c 0
 371.6667 831.66667 387 834.33333 399 837 c 0
 411 839.66667 425.6667 843.33333 443 848 c 0
 448.33333 846.66667 451.83333 842.16667 453.5 834.5 c 0
 455.16667 826.83333 454.333333 821.3333 451 818 c 0
 445 816.66667 439.5 815.33333 434.5 814 c 0
 429.5 812.66667 424.66667 811.33333 420 810 c 1
 418.66667 795.3333 417.33333 776.3333 416 753 c 0
 414.66667 729.6667 413.16667 703.6667 411.5 675 c 0
 409.83333 646.3333 408.33333 615.6667 407 583 c 0
 405.66667 550.3333 404.66667 517.6667 404 485 c 1
 422.6667 462.3333 450 436.6667 486 408 c 0
 496.6667 399.33333 505.8333 391.8333 513.5 385.5 c 0
 521.16667 379.16667 528.6667 373 536 367 c 0
 543.3333 361 550.8333 354.5 558.5 347.5 c 0
 566.1667 340.5 575.3333 332.3333 586 323 c 0
 594 315.66667 602 306.6667 610 296 c 0
 618 285.3333 625 273.6667 631 261 c 0
 637 248.3333 641.8333 235.1667 645.5 221.5 c 0
 649.1667 207.8333 651 194 651 180 c 0
315 32 m 1
 315 96 314.833333 161.167 314.5 227.5 c 0
 314.166667 293.833 313.666667 363.333 313 436 c 2
 313 449 l 1
 308.33333 437.6667 302.5 427.5 295.5 418.5 c 0
 288.5 409.5 281.3333 400.3333 274 391 c 0
 259.3333 373 245.5 356.1667 232.5 340.5 c 0
 219.5 324.8333 208 309.1667 198 293.5 c 0
 188 277.8333 180.1667 261.3333 174.5 244 c 0
 168.83333 226.6667 166 206.6667 166 184 c 0
 166 164.6667 170.66667 146.3333 180 129 c 0
 189.33333 111.6667 200.6667 96.3333 214 83 c 0
 222.66667 73.66667 236 64.5 254 55.5 c 0
 272 46.5 292.3333 38.6667 315 32 c 1
546 182 m 0
 546 200 543 216.3333 537 231 c 0
 531 245.6667 523.1667 259 513.5 271 c 0
 503.83333 283 492.5 294 479.5 304 c 0
 466.5 314 453 323.6667 439 333 c 0
 433 336.33333 427 340 421 344 c 0
 415 348 408.6667 351.66667 402 355 c 1
 401.333333 299.6667 400.5 244.333 399.5 189 c 0
 398.5 133.667 397.33333 78.667 396 24 c 1
 414.6667 26.66667 433 32.16667 451 40.5 c 0
 469 48.83333 485 59.8333 499 73.5 c 0
 513 87.1667 524.3333 103.1667 533 121.5 c 0
 541.66667 139.8333 546 160 546 182 c 0
EndSplineSet
AlternateSubs2: "'salt' Stylistic Alternatives lookup 2-1" uni0444.salt uni0444.salt2
EndChar

StartChar: uni0425
Encoding: 1061 1061 62
Width: 793
Flags: HW
LayerCount: 3
Fore
SplineSet
-53 -548 m 1
 -53 -523 l 1
 0 -523 l 1
 371 129 l 1
 299 524 l 1
 343 524 384 518 419 507 c 1
 461 287 l 1
 570 477 l 1
 600 507 650 528 708 528 c 0
 728 528 749 526 763 520 c 1
 766 509 l 1
 747 490 732 482 716 458 c 0
 702 436 686 404 678 380 c 1
 668 380 l 1
 647 408 615 434 586 455 c 1
 469 248 l 1
 600 -430 l 1
 660 -430 l 1
 660 -455 l 1
 423 -455 l 1
 423 -430 l 1
 473 -430 l 1
 380 82 l 1
 83 -523 l 1
 130 -523 l 1
 130 -548 l 1
 -53 -548 l 1
EndSplineSet
Validated: 1
Layer: 2
SplineSet
-53 -548 m 1
 -53 -523 l 1
 0 -523 l 1
 371 129 l 1
 299 524 l 1
 321 523.333333 342.1667 521.66667 362.5 519 c 0
 382.8333 516.33333 401.6667 512.33333 419 507 c 1
 461 287 l 1
 570 477 l 1
 585.3333 492.3333 605 504.6667 629 514 c 0
 653 523.33333 679.3333 528 708 528 c 0
 718 528 727.8333 527.166667 737.5 525.5 c 0
 747.1667 523.833333 755.6667 521.33333 763 518 c 1
 766 509 l 1
 757.33333 500.33333 748.8333 492.6667 740.5 486 c 0
 732.1667 479.3333 724 470 716 458 c 0
 706.66667 443.3333 698.6667 428.6667 692 414 c 0
 685.3333 399.3333 680.6667 388 678 380 c 1
 668 380 l 1
 658 393.3333 645.6667 406.3333 631 419 c 0
 616.3333 431.6667 601.3333 443.6667 586 455 c 1
 469 248 l 1
 600 -430 l 1
 660 -430 l 1
 660 -455 l 1
 423 -455 l 1
 423 -430 l 1
 473 -430 l 1
 380 82 l 1
 83 -523 l 1
 130 -523 l 1
 130 -548 l 1
 -53 -548 l 1
EndSplineSet
EndChar

StartChar: uni0445
Encoding: 1093 1093 63
Width: 474
Flags: HW
LayerCount: 3
Fore
SplineSet
376 335 m 1
 371 337 357 344 357 351 c 1
 351 364 335 374 316 374 c 0
 313 374 311 374 309 374 c 1
 275 287 l 2
 265 261 255 236 244 211 c 1
 256 135 l 2
 260 110 264 85 269 60 c 2
 290 -54 l 1
 310 -156 332 -246 365 -336 c 1
 361 -348 l 1
 345 -350 328 -351 310 -351 c 0
 292 -351 273 -348 252 -348 c 1
 223 -218 198 -96 174 50 c 1
 151 3 129 -46 107 -94 c 0
 72 -169 36 -245 0 -321 c 2
 -59 -446 l 2
 -62 -452 -67 -455 -72 -455 c 0
 -80 -455 -88 -449 -88 -440 c 0
 -88 -438 -88 -436 -87 -434 c 0
 -10.272980747 -274.488565237 63.700267109 -112.507325373 139 48 c 2
 152 76 l 2
 157 85 161 95 165 104 c 1
 157 153 150 197 144 238 c 2
 128 362 l 1
 125 366 121 371 116 377 c 2
 101 397 l 2
 92 408 82 420 73 429 c 1
 77 436.998 l 1
 94 438.998 122 440 142 440 c 0
 165 440 194 436.998 214 436.998 c 1
 220 385.998 228 326 236 269 c 1
 252 310 268 350 284 390 c 1
 302 407 l 2
 319 423 362 432.998 387 436.998 c 0
 404 439.998 423 445 444 445 c 1
 450 451 457 458 463 464 c 1
 473 464 480 458 483 447 c 1
 466 429 448 410 431 392 c 2
 400 359 l 2
 390 348 382 340 376 335 c 1
EndSplineSet
Validated: 1
Layer: 2
SplineSet
332 424 m 0
 352 431.33333 370.3333 436.3333 387 439 c 0
 403.6667 441.6667 422.6667 443.66667 444 445 c 1
 453.5 454.5 l 1
 463 464 l 1
 473 464 479.6667 458.33333 483 447 c 1
 478.33333 442.33333 471.1667 434.8333 461.5 424.5 c 0
 451.8333 414.1667 441.6667 403.3333 431 392 c 0
 420.3333 380.6667 410 369.6667 400 359 c 0
 390 348.3333 382 340.3333 376 335 c 0
 372.66667 336.33333 368.66667 338.5 364 341.5 c 0
 359.33333 344.5 357 347.66667 357 351 c 0
 353.66667 358.33333 347.66667 364.3333 339 369 c 0
 330.33333 373.6667 320.3333 375.33333 309 374 c 1
 296.3333 342 285 313 275 287 c 0
 265 261 254.6667 235.6667 244 211 c 1
 256 135 l 2
 260 109.6667 264.33333 84.6667 269 60 c 0
 276.33333 18.6667 283.3333 -19.3333 290 -54 c 0
 296.66667 -88.6667 303.8333 -121.6667 311.5 -153 c 0
 319.16667 -184.3333 327.1667 -214.8333 335.5 -244.5 c 0
 343.83333 -274.1667 353.6667 -304.6667 365 -336 c 1
 361 -348 l 1
 345.3333 -350 328.4167 -351 310.25 -351 c 0
 292.0833 -351 272.6667 -350 252 -348 c 1
 239.3333 -292 226.5 -231.833 213.5 -167.5 c 0
 200.5 -103.1667 187.3333 -30.667 174 50 c 1
 170.5 43 l 1
 167 36 l 2
 145 -11.3333 125 -54.5 107 -93.5 c 0
 89 -132.5 71.3333 -170.5 54 -207.5 c 0
 36.6667 -244.5 19 -282.1667 1 -320.5 c 0
 -17 -358.8333 -37 -400.6667 -59 -446 c 0
 -61 -450.66667 -64.16667 -453.5 -68.5 -454.5 c 0
 -72.83333 -455.5 -76.66667 -455.166667 -80 -453.5 c 0
 -83.33333 -451.833333 -85.83333 -449.33333 -87.5 -446 c 0
 -89.16667 -442.66667 -89 -438.66667 -87 -434 c 0
 -65 -388.6667 -45 -346.8333 -27 -308.5 c 0
 -9 -270.1667 8.6667 -232.5 26 -195.5 c 0
 43.3333 -158.5 61 -120.5 79 -81.5 c 0
 97 -42.5 117 0.6667 139 48 c 0
 143.66667 58 148.16667 67.5 152.5 76.5 c 0
 156.83333 85.5 161 94.6667 165 104 c 1
 157 152.6667 150.1667 197.5 144.5 238.5 c 0
 138.8333 279.5 133.3333 320.6667 128 362 c 0
 124.66667 366 120.66667 371.16667 116 377.5 c 0
 111.33333 383.83333 106.33333 390.3333 101 397 c 0
 95.66667 403.6667 90.5 409.8333 85.5 415.5 c 0
 80.5 421.1667 76.33333 425.6667 73 429 c 1
 77 437 l 1
 83.66667 437.666667 93 438.33333 105 439 c 0
 117 439.66667 129.5 440 142.5 440 c 0
 155.5 440 168.5 439.666667 181.5 439 c 0
 194.5 438.333333 205.3333 437.66667 214 437 c 1
 216 419.6667 218.83333 396.3333 222.5 367 c 0
 226.16667 337.6667 230.66667 305 236 269 c 1
 243.33333 287.6667 250.8333 306.8333 258.5 326.5 c 0
 266.16667 346.1667 274.6667 367.3333 284 390 c 0
 289.33333 394.66667 295.5 400.3333 302.5 407 c 0
 309.5 413.6667 319.3333 419.3333 332 424 c 0
EndSplineSet
AlternateSubs2: "'salt' Stylistic Alternatives lookup 2-1" uni0445.salt uni0445.salt2 uni0445.salt3
EndChar

StartChar: uni0426
Encoding: 1062 1062 64
Width: 712
Flags: HW
LayerCount: 3
Fore
SplineSet
259 495 m 1xe8
 245 -430 l 1
 471 -430 l 1xf2
 465 495 l 1
 410 495 l 1
 410 520 l 1
 635 520 l 1
 635 495 l 1
 580 495 l 1xe4
 604 -724 l 1
 664 -724 l 1
 664 -749 l 1
 417 -749 l 1
 417 -724 l 1
 473 -724 l 1
 471 -455 l 1
 58 -455 l 1
 58 -430 l 1
 113 -430 l 1xf2
 139 495 l 1
 85 495 l 1
 85 520 l 1
 315 520 l 1
 315 495 l 1
 259 495 l 1xe8
EndSplineSet
Validated: 1
Layer: 2
SplineSet
259 495 m 1
 245 -430 l 1
 471 -430 l 1
 465 495 l 1
 410 495 l 1
 410 520 l 1
 635 520 l 1
 635 495 l 1
 580 495 l 1
 604 -724 l 1
 664 -724 l 1
 664 -749 l 1
 417 -749 l 1
 417 -724 l 1
 473 -724 l 1
 471 -455 l 1
 58 -455 l 1
 58 -430 l 1
 113 -430 l 1
 139 495 l 1
 85 495 l 1
 85 520 l 1
 315 520 l 1
 315 495 l 1
 259 495 l 1
EndSplineSet
AlternateSubs2: "'salt' Stylistic Alternatives lookup 2-1" uni0426.salt
EndChar

StartChar: uni0446
Encoding: 1094 1094 65
Width: 488
Flags: HW
LayerCount: 3
Fore
SplineSet
379.999 -108.911 m 0xe4
 379.999 -64.9664 379.998 -39.9732 377 0 c 1
 60 0 l 1
 60 34 l 2
 60 108 66 156 72 231 c 0
 79 297 87 377 100 429 c 1
 135 438 168 444 201 445 c 1
 205 440 l 1
 177 322 165 172 165 30 c 1
 308.001 30 l 1xe8
 303.001 86 303.001 156 301.001 216 c 0
 300.668 223.667 300.557 231.222 300.557 238.667 c 0
 300.557 253.556 301.001 268 301.001 282 c 2
 301.001 329 l 2xf0
 301.001 363 304.001 390 308.001 419 c 1xe8
 332.001 429 363 438 393 443 c 0
 402 444 409 445 414 445 c 1
 419 440 l 1
 406 403 399 365 399 315 c 0xf0
 399 236 402 151 407 77 c 0
 408 56 411 41 411 30 c 1xe8
 457 30 l 1
 457 -155 444 -336 409 -489 c 0
 404 -510 398 -519 385 -530 c 1
 383 -530 l 2
 373 -530 364 -526 357 -518 c 1
 367 -476 372 -415 375 -371 c 0
 379 -315 379.999 -263 379.999 -204 c 2
 379.999 -108.911 l 0xe4
EndSplineSet
Validated: 1
Layer: 2
SplineSet
60 34 m 2
 60 65.3333 61.16667 95.8333 63.5 125.5 c 0
 65.83333 155.1667 68.83333 190.1667 72.5 230.5 c 0
 76.16667 270.8333 80.33333 308.8333 85 344.5 c 0
 89.66667 380.1667 94.66667 408.3333 100 429 c 1
 134.6667 438.33333 168.3333 443.6667 201 445 c 1
 205 440 l 1
 197 406.6667 190.3333 370.1667 185 330.5 c 0
 179.6667 290.8333 175.5 252 172.5 214 c 0
 169.5 176 167.5 140.6667 166.5 108 c 0
 165.5 75.3333 165 49.3333 165 30 c 1
 308 30 l 1
 306.66667 44 305.66667 61.1667 305 81.5 c 0
 304.33333 101.8333 303.83333 123.5 303.5 146.5 c 0
 303.16667 169.5 302.666667 192.6667 302 216 c 0
 301.333333 239.3333 301 261.3333 301 282 c 2
 301 328.5 l 2
 301 341.5 301.333333 353.1667 302 363.5 c 0
 302.666667 373.8333 303.5 383.3333 304.5 392 c 0
 305.5 400.6667 306.66667 409.6667 308 419 c 1
 316 422.33333 325 425.66667 335 429 c 0
 345 432.33333 355 435.16667 365 437.5 c 0
 375 439.83333 384.3333 441.66667 393 443 c 0
 401.6667 444.33333 408.6667 445 414 445 c 2
 419 440 l 1
 412.33333 421.3333 407.3333 402 404 382 c 0
 400.6667 362 399 339.6667 399 315 c 0
 399 287 399.5 258.5 400.5 229.5 c 0
 401.5 200.5 402.5 173 403.5 147 c 0
 404.5 121 405.66667 97.6667 407 77 c 0
 408.33333 56.3333 409.66667 40.6667 411 30 c 1
 457 30 l 1
 457 16.6667 456.666667 -1.5 456 -24.5 c 0
 455.333333 -47.5 454.33333 -71.6667 453 -97 c 0
 451 -135.6667 449 -171.1667 447 -203.5 c 0
 445 -235.8333 442.5 -267.3333 439.5 -298 c 0
 436.5 -328.6667 432.66667 -359.5 428 -390.5 c 0
 423.33333 -421.5 417 -454.3333 409 -489 c 0
 406.33333 -500.3333 403 -508.8333 399 -514.5 c 0
 395 -520.16667 390.33333 -525.3333 385 -530 c 1
 374.3333 -530.666667 365 -526.66667 357 -518 c 1
 359 -509.33333 360.66667 -501 362 -493 c 0
 363.33333 -485 364.66667 -475.6667 366 -465 c 0
 370 -431 373 -399.8333 375 -371.5 c 0
 377 -343.1667 378.33333 -315.3333 379 -288 c 0
 379.66667 -260.6667 380 -232.5 380 -203.5 c 2
 380 -109 l 2
 380 -87 379.833333 -68 379.5 -52 c 0
 379.166667 -36 378.33333 -18.6667 377 0 c 1
 61 0 l 1
 60 34 l 2
EndSplineSet
AlternateSubs2: "'salt' Stylistic Alternatives lookup 2-1" uni0446.salt
EndChar

StartChar: uni0427
Encoding: 1063 1063 66
Width: 646
Flags: HW
LayerCount: 3
Fore
SplineSet
115 397 m 0
 115 432 131 473 146 495 c 1
 80 495 l 1
 80 520 l 1
 300 520 l 1
 300 495 l 1
 270 495 l 1
 247 463 236 429 236 392 c 0
 236 336 279 286 335 286 c 0
 349 286 363 289 378 296 c 1
 389 365 399 434 412 495 c 1
 359 495 l 1
 359 520 l 1
 587 520 l 1
 587 495 l 1
 530 495 l 1
 503 366 472 219 472 76 c 1
 500 69 522 51 522 17 c 0
 522 -19 491 -39 462 -51 c 1
 454 -177 452 -310 449 -430 c 1
 504 -430 l 1
 504 -454.998 l 1
 264 -454.998 l 1
 264 -430 l 1
 319 -430 l 1
 321 -314 323 -187 332 -68 c 1
 302 -62 278 -45 278 -10 c 0
 278 28 316 49 345 60 c 1
 353 131 362 199 373 266 c 1
 349 258 328 256.002 294 256.002 c 0
 193 256.002 115 296 115 397 c 0
EndSplineSet
Validated: 1
Layer: 2
SplineSet
270 495 m 1
 247.3333 463 236 428.6667 236 392 c 0
 236 365.3333 244.16667 342.1667 260.5 322.5 c 0
 276.8333 302.8333 297.3333 291.3333 322 288 c 0
 332 286.66667 342 286.83333 352 288.5 c 0
 362 290.16667 370.6667 292.66667 378 296 c 1
 384 335.3333 389.8333 371.8333 395.5 405.5 c 0
 401.1667 439.1667 406.6667 469 412 495 c 1
 359 495 l 1
 359 520 l 1
 587 520 l 1
 587 495 l 1
 530 495 l 1
 524.66667 469.6667 519.5 441.3333 514.5 410 c 0
 509.5 378.6667 504.5 345 499.5 309 c 0
 494.5 273 489.66667 235.3333 485 196 c 0
 480.33333 156.6667 476 116.6667 472 76 c 1
 484.6667 72.66667 495.3333 67.33333 504 60 c 0
 513.33333 52 519 41.6667 521 29 c 0
 521.666667 25 522 21 522 17 c 0
 522 3 517.33333 -9.3333 508 -20 c 0
 496.6667 -32.6667 481.3333 -43 462 -51 c 1
 457.33333 -124.3333 454.33333 -193.5 453 -258.5 c 0
 451.66667 -323.5 450.33333 -380.667 449 -430 c 1
 504 -430 l 1
 504 -455 l 1
 264 -455 l 1
 264 -430 l 1
 319 -430 l 1
 319.666667 -382 320.66667 -327 322 -265 c 0
 323.33333 -203 326.66667 -137.333 332 -68 c 1
 318.6667 -65.33333 307.3333 -60.33333 298 -53 c 0
 287.3333 -45.66667 281 -35 279 -21 c 0
 278.333333 -16.33333 278 -12.66667 278 -10 c 0
 278 5.3333 283.66667 18.3333 295 29 c 0
 309 42.3333 325.6667 52.6667 345 60 c 1
 349 96 353.33333 131.1667 358 165.5 c 0
 362.66667 199.8333 367.66667 233.3333 373 266 c 1
 362.3333 262.66667 351 260.16667 339 258.5 c 0
 327 256.83333 312 256 294 256 c 0
 268 256 244.1667 258.83333 222.5 264.5 c 0
 200.8333 270.16667 182 278.6667 166 290 c 0
 150 301.3333 137.5 316 128.5 334 c 0
 119.5 352 115 373 115 397 c 0
 115 412.3333 118 429.1667 124 447.5 c 0
 130 465.8333 137.3333 481.6667 146 495 c 1
 80 495 l 1
 80 520 l 1
 300 520 l 1
 300 495 l 1
 270 495 l 1
EndSplineSet
EndChar

StartChar: uni0447
Encoding: 1095 1095 67
Width: 375
Flags: HW
LayerCount: 3
Fore
SplineSet
189 -0 m 1xf8
 192 101 195 203 205 303 c 1
 183 303 l 1
 168 294 152 286 134 283 c 1
 97 297 74 342 62 382 c 0
 58 397 55 411.999 55 424.999 c 1
 82 437.999 120 442 157 445 c 1
 157 405 180 363 193 334 c 1
 212 334 l 1
 222 366 235 404 250 429 c 1
 279 439 313 445 348 445 c 1
 353 436.998 l 1
 350 425.998 346 415 341 401 c 2
 325 357 l 1
 314 330 302 297 302 263 c 0xf4
 302 169 291 86 289 -0 c 1
 271 -2 257 -4 239 -4 c 0
 220 -4 208 -2 189 -0 c 1xf8
EndSplineSet
Validated: 1
Layer: 2
SplineSet
55 424 m 1
 69 430.66667 85 435.5 103 438.5 c 0
 121 441.5 139 443.66667 157 445 c 1
 157.666667 425.6667 162 406.1667 170 386.5 c 0
 178 366.8333 185.6667 349 193 333 c 1
 212 334 l 1
 217.33333 352 223.3333 369.5 230 386.5 c 0
 236.6667 403.5 243.3333 417.6667 250 429 c 1
 266 434.33333 282.5 438.16667 299.5 440.5 c 0
 316.5 442.83333 332.6667 444.33333 348 445 c 1
 353 439 l 1
 350.33333 427.6667 346.33333 415.1667 341 401.5 c 0
 335.66667 387.8333 330.1667 373.1667 324.5 357.5 c 0
 318.8333 341.8333 313.8333 326 309.5 310 c 0
 305.1667 294 302.66667 278.3333 302 263 c 0
 299.33333 208.3333 296.66667 159.333 294 116 c 0
 291.33333 72.667 289.66667 34 289 0 c 1
 279 -1.33333 270 -2.33333 262 -3 c 0
 254 -3.66667 246.3333 -4 239 -4 c 0
 231.6667 -4 224.1667 -3.666667 216.5 -3 c 0
 208.8333 -2.333333 199.6667 -1.33333 189 0 c 1
 190.33333 44.6667 192 92.5 194 143.5 c 0
 196 194.5 199.66667 247.667 205 303 c 1
 183 302 l 1
 168.3333 292.66667 152 286.3333 134 283 c 1
 123.3333 287 113.3333 294 104 304 c 0
 94.6667 314 86.5 325.8333 79.5 339.5 c 0
 72.5 353.1667 66.8333 367.3333 62.5 382 c 0
 58.16667 396.6667 55.66667 410.6667 55 424 c 1
EndSplineSet
EndChar

StartChar: uni0428
Encoding: 1064 1064 68
Width: 922
Flags: HW
LayerCount: 3
Fore
SplineSet
526 495 m 1xe8
 532 -430 l 1
 682 -430 l 1xea
 675 495 l 1
 630 495 l 1
 630 520 l 1
 845 520 l 1
 845 495 l 1
 790 495 l 1xcc
 808 -430 l 1
 864 -430 l 1
 864 -455 l 1
 58 -455 l 1
 58 -430 l 1
 113 -430 l 1xea
 139 495 l 1
 85 495 l 1
 85 520 l 1
 305 520 l 1
 305 495 l 1
 259 495 l 1xd8
 245 -430 l 1
 400 -430 l 1
 406 495 l 1
 361 495 l 1
 361 520 l 1
 571 520 l 1
 571 495 l 1
 526 495 l 1xe8
EndSplineSet
Validated: 1
Layer: 2
SplineSet
526 495 m 1
 532 -430 l 1
 682 -430 l 1
 675 495 l 1
 630 495 l 1
 630 520 l 1
 845 520 l 1
 845 495 l 1
 790 495 l 1
 808 -430 l 1
 864 -430 l 1
 864 -455 l 1
 58 -455 l 1
 58 -430 l 1
 113 -430 l 1
 139 495 l 1
 85 495 l 1
 85 520 l 1
 305 520 l 1
 305 495 l 1
 259 495 l 1
 245 -430 l 1
 400 -430 l 1
 406 495 l 1
 361 495 l 1
 361 520 l 1
 571 520 l 1
 571 495 l 1
 526 495 l 1
EndSplineSet
EndChar

StartChar: uni0448
Encoding: 1096 1096 69
Width: 683
Flags: HW
LayerCount: 3
Fore
SplineSet
618 195 m 0
 618 123 620 64 626 -0 c 1
 47 -0 l 1
 47 14.6666666667 47 29.3333333333 47 44 c 0
 50 179 69 327 109 430 c 1
 135 436 168 440 198 444 c 0
 207 444 215 445 221 445 c 1
 224 442 l 1
 181 364 158 241 153 125 c 0
 151 88 150 56 149 30 c 1
 276 30 l 1
 276 164 285 247 309 345 c 0
 316 377 327 405 340 428 c 1
 369 436 405 444 441 444 c 1
 445 439 l 1
 393 351 379 205 379 68 c 0
 379 52 379 39 380 30 c 1
 522 30 l 1
 520 49 519 73 519 102 c 2
 519 196 l 2
 519 268 521 347 542 397 c 2
 556 429 l 1
 585 440 626 445 664 445 c 1
 667 435 l 1
 634 400 626 353 622 289 c 2
 620 259 l 1
 620 237 618 219 618 195 c 0
EndSplineSet
Validated: 1
Layer: 2
SplineSet
276 30 m 1
 276 76.6667 276.666667 109 278 127 c 0
 281.33333 175.6667 285 213.6667 289 241 c 0
 294.33333 279 300.8333 313.8333 308.5 345.5 c 0
 316.1667 377.1667 326.6667 404.6667 340 428 c 1
 347.33333 430 355.8333 432 365.5 434 c 0
 375.1667 436 384.6667 437.83333 394 439.5 c 0
 403.3333 441.16667 412.1667 442.33333 420.5 443 c 0
 428.8333 443.66667 435.6667 444 441 444 c 1
 445 439 l 1
 431.6667 416.3333 421.1667 392.8333 413.5 368.5 c 0
 405.8333 344.1667 399.6667 316 395 284 c 0
 387.66667 235.3333 383 187.3333 381 140 c 0
 379.66667 112.6667 379 88.6667 379 68 c 0
 379 52 379.333333 39.3333 380 30 c 1
 522 30 l 1
 520 49.3333 519 73.5 519 102.5 c 2
 519 196 l 2
 519 208.6667 519.166667 222.1667 519.5 236.5 c 0
 519.833333 250.8333 520.333333 265.1667 521 279.5 c 0
 521.666667 293.8333 522.83333 307.5 524.5 320.5 c 0
 526.16667 333.5 528 345.3333 530 356 c 0
 534 373.3333 538.16667 387 542.5 397 c 0
 546.83333 407 551.33333 417.6667 556 429 c 1
 563.33333 431.66667 572 434 582 436 c 0
 592 438 602 439.66667 612 441 c 0
 622 442.33333 631.6667 443.33333 641 444 c 0
 650.3333 444.66667 658 445 664 445 c 1
 667 435 l 1
 653 420.3333 643 404.1667 637 386.5 c 0
 631 368.8333 627 348.3333 625 325 c 0
 623.66667 311.6667 622.66667 299.8333 622 289.5 c 0
 621.33333 279.1667 620.66667 269 620 259 c 0
 619.33333 249 618.83333 239 618.5 229 c 0
 618.16667 219 618 207.6667 618 195 c 0
 618.666667 157 619.5 122.3333 620.5 91 c 0
 621.5 59.6667 623.33333 29.3333 626 0 c 1
 48 0 l 1
 47 11 l 1
 47 44 l 2
 47.666667 70.6667 48.33333 92.3333 49 109 c 0
 50.33333 138.3333 54.33333 178.3333 61 229 c 0
 66.33333 270.3333 73 307.3333 81 340 c 0
 89 372.6667 98.3333 402.6667 109 430 c 1
 117 432 126.3333 434 137 436 c 0
 147.6667 438 158.1667 439.5 168.5 440.5 c 0
 178.8333 441.5 188.6667 442.5 198 443.5 c 0
 207.3333 444.5 215 445 221 445 c 1
 224 442 l 1
 212 420 200.3333 391.6667 189 357 c 0
 177.6667 322.3333 169.3333 285 164 245 c 0
 158 202.3333 154.16667 162.3333 152.5 125 c 0
 150.83333 87.6667 149.66667 56 149 30 c 1
 276 30 l 1
EndSplineSet
EndChar

StartChar: uni0429
Encoding: 1065 1065 70
Width: 922
Flags: HW
LayerCount: 3
Fore
SplineSet
526 495 m 1xe2
 532 -430 l 1
 682 -430 l 1xe480
 675 495 l 1
 630 495 l 1
 630 520 l 1
 845 520 l 1
 845 495 l 1
 790 495 l 1xe1
 808 -430 l 1
 864 -430 l 1
 864 -455 l 1
 532 -455 l 1
 534 -672 l 1
 587 -672 l 1
 587 -697 l 1
 345 -697 l 1
 345 -672 l 1
 399 -672 l 1
 399 -455 l 1
 58 -455 l 1
 58 -430 l 1
 113 -430 l 1xf480
 139 495 l 1
 85 495 l 1
 85 520 l 1
 305 520 l 1
 305 495 l 1
 259 495 l 1xe8
 245 -430 l 1
 399 -430 l 1xf4
 406 495 l 1
 361 495 l 1
 361 520 l 1
 571 520 l 1
 571 495 l 1
 526 495 l 1xe2
EndSplineSet
Validated: 1
Layer: 2
SplineSet
526 495 m 1
 532 -430 l 1
 682 -430 l 1
 675 495 l 1
 630 495 l 1
 630 520 l 1
 845 520 l 1
 845 495 l 1
 790 495 l 1
 808 -430 l 1
 864 -430 l 1
 864 -455 l 1
 532 -455 l 1
 534 -672 l 1
 587 -672 l 1
 587 -697 l 1
 345 -697 l 1
 345 -672 l 1
 398 -672 l 1
 399 -455 l 1
 58 -455 l 1
 58 -430 l 1
 113 -430 l 1
 139 495 l 1
 85 495 l 1
 85 520 l 1
 305 520 l 1
 305 495 l 1
 259 495 l 1
 245 -430 l 1
 399 -430 l 1
 406 495 l 1
 361 495 l 1
 361 520 l 1
 571 520 l 1
 571 495 l 1
 526 495 l 1
EndSplineSet
EndChar

